<svg width="96" height="96" viewBox="0 0 96 96" fill="none" xmlns="http://www.w3.org/2000/svg">
<path fill-rule="evenodd" clip-rule="evenodd" d="M17.4913 31.75C15.5479 31.75 13.8857 33.1469 13.5511 35.0613L10.9401 50H39.8872L35.0264 34.5496C34.5022 32.8834 32.9575 31.75 31.2108 31.75H17.4913ZM11.5809 34.717L8.90974 50H8.50012C7.39555 50 6.50012 50.8954 6.50012 52V59.75H4.25012C2.59327 59.75 1.25012 61.0931 1.25012 62.75V71.5C1.25012 73.1569 2.59327 74.5 4.25012 74.5H6.63242C7.47531 80.0207 12.2438 84.25 18.0001 84.25H65.2501C71.6014 84.25 76.7501 79.1013 76.7501 72.75C76.7501 71.1048 76.4046 69.5402 75.7823 68.125H82.2501V74.875C82.2501 79.8456 86.2796 83.875 91.2501 83.875H91.3845C93.2407 83.875 94.6515 82.2064 94.3427 80.376L89.6268 52.4174C89.4644 51.4547 88.6309 50.75 87.6547 50.75H84.2501C83.1456 50.75 82.2501 51.6454 82.2501 52.75V55.9212C79.8396 56.7843 76.5128 57.9641 73.6324 58.9613C72.0544 59.5076 70.6148 59.9975 69.5347 60.3502C69.13 60.4823 68.7796 60.5939 68.4935 60.6815L64.6212 52.796C63.7807 51.0845 62.0399 50 60.1331 50H58.0001V45.2C58.0001 44.6477 58.4478 44.2 59.0001 44.2C60.1047 44.2 61.0001 43.3046 61.0001 42.2V39.8333C61.0001 38.8208 60.1793 38 59.1668 38C54.9326 38 51.5001 41.4325 51.5001 45.6667V50H41.9838L36.9342 33.9494C36.1479 31.4501 33.8308 29.75 31.2108 29.75H17.4913C14.5762 29.75 12.0828 31.8453 11.5809 34.717ZM8.50012 72.75C8.50012 77.9967 12.7534 82.25 18.0001 82.25H65.2501C70.4968 82.25 74.7501 77.9967 74.7501 72.75C74.7501 71.0431 74.3 69.4413 73.5119 68.057C73.1392 67.9116 72.8751 67.5492 72.8751 67.125C72.8751 67.1111 72.8754 67.0974 72.876 67.0836C71.1444 64.7571 68.3733 63.25 65.2501 63.25H18.0001C12.7534 63.25 8.50012 67.5033 8.50012 72.75ZM8.50012 59.75V60.75V66.2673C10.5712 63.238 14.0535 61.25 18.0001 61.25H65.2501C65.7006 61.25 66.145 61.2759 66.582 61.3263L62.826 53.6776C62.3217 52.6507 61.2772 52 60.1331 52H58.0001H57.0001H52.5001H51.5001H42.6131H41.2501H9.75012H8.56018H8.50012V59.75ZM6.50012 61.75H4.25012C3.69784 61.75 3.25012 62.1977 3.25012 62.75V71.5C3.25012 72.0523 3.69784 72.5 4.25012 72.5H6.50012V72V61.75ZM53.5001 45.6667C53.5001 42.5928 55.9476 40.0906 59.0001 40.0024V42.2C57.3433 42.2 56.0001 43.5431 56.0001 45.2V50H53.5001V45.6667ZM84.2501 67.125V74.875C84.2501 78.741 87.3841 81.875 91.2501 81.875H91.3845C92.0033 81.875 92.4735 81.3188 92.3706 80.7087L87.6547 52.75H84.2501V56.6017C84.2505 56.6173 84.2505 56.6327 84.2501 56.6482V67.125ZM82.2501 58.0452V66.125H74.6513C73.4846 64.4726 71.8934 63.1414 70.0363 62.2902L70.1554 62.2514C71.2526 61.8932 72.7053 61.3987 74.2866 60.8512C76.9154 59.9412 79.9123 58.8804 82.2501 58.0452ZM15.3751 72.125C14.8228 72.125 14.3751 72.5727 14.3751 73.125C14.3751 73.6773 14.8228 74.125 15.3751 74.125H65.6251C66.1774 74.125 66.6251 73.6773 66.6251 73.125C66.6251 72.5727 66.1774 72.125 65.6251 72.125H15.3751Z" fill="#00CC66"/>
<path d="M18.0001 31.5L18.0001 51" stroke="#00CC66" stroke-width="2" stroke-linecap="round"/>
</svg>
