<svg width="96" height="96" viewBox="0 0 96 96" fill="none" xmlns="http://www.w3.org/2000/svg">
<g clip-path="url(#clip0_239_13028)">
<path fill-rule="evenodd" clip-rule="evenodd" d="M57.5001 23.25C57.5001 19.7982 60.2983 17 63.7501 17C65.8629 17 67.7309 18.0484 68.8621 19.6533C68.93 19.6699 68.9972 19.6939 69.0626 19.7258L82.696 26.3582C83.7051 25.6594 84.9298 25.25 86.2501 25.25C89.7019 25.25 92.5001 28.0482 92.5001 31.5C92.5001 32.5657 92.2334 33.569 91.7631 34.447L94.239 36.7166C95.5673 37.9342 95.9175 39.8895 95.0944 41.4924L89.8515 51.7022C89.1665 53.0362 87.7928 53.875 86.2932 53.875H76.8949C75.0523 53.875 74.19 51.5945 75.5716 50.3753L77.9735 48.2561C79.1625 47.2069 80.085 45.8901 80.6648 44.4142L83.5275 37.1274C81.93 36.3531 80.7121 34.9186 80.2281 33.1786C77.914 32.5526 74.5001 31.616 71.6049 30.7932C70.1295 30.3739 68.7834 29.9826 67.7847 29.6764C67.2868 29.5237 66.8661 29.3894 66.5561 29.2819C66.4026 29.2286 66.2633 29.1775 66.1505 29.1307C66.1265 29.1207 66.101 29.1099 66.0749 29.0982L56.6171 49.4689C58.3916 51.1336 59.5001 53.4999 59.5001 56.125C59.5001 57.5747 58.3249 58.75 56.8751 58.75H55.0001V61.25H58.5001C64.8514 61.25 70.0001 66.3987 70.0001 72.75C70.0001 79.1013 64.8514 84.25 58.5001 84.25H11.2501C4.89885 84.25 -0.249878 79.1013 -0.249878 72.75C-0.249878 66.9937 3.9794 62.2252 9.50012 61.3823V58.75H8.75012C7.09327 58.75 5.75012 57.4069 5.75012 55.75V54C5.75012 50.9848 7.65654 48.4148 10.3298 47.4297L13.1195 30.2863C13.592 27.3828 16.0998 25.25 19.0416 25.25H32.6338C35.2979 25.25 37.643 27.0067 38.3919 29.5634L43.4992 47H46.2986L58.2883 26.2905C57.7862 25.3906 57.5001 24.3537 57.5001 23.25ZM85.4515 37.6995L82.5263 45.1455C81.8305 46.9166 80.7235 48.4968 79.2967 49.7557L76.8949 51.875H86.2932C87.043 51.875 87.7299 51.4556 88.0724 50.7886L93.3152 40.5788C93.7268 39.7774 93.5517 38.7997 92.8876 38.1909L90.5434 36.0421C89.4237 37.1008 87.9127 37.75 86.2501 37.75C85.9796 37.75 85.713 37.7328 85.4515 37.6995ZM70.0001 23.25C70.0001 22.9536 69.9795 22.662 69.9396 22.3765L81.1799 27.8448C80.5201 28.7584 80.1011 29.8575 80.0162 31.0489C77.7562 30.4351 74.7436 29.606 72.1516 28.8693C70.6801 28.4511 69.3497 28.0643 68.371 27.7642C68.293 27.7403 68.2174 27.717 68.1444 27.6944C69.2902 26.5614 70.0001 24.9886 70.0001 23.25ZM59.6357 27.9548L48.6096 47H50.3751C52.0547 47 53.6283 47.4538 54.9801 48.2455L63.6835 29.4997C62.1339 29.4835 60.7195 28.9034 59.6357 27.9548ZM46.856 49C46.8681 49.0002 46.8803 49.0002 46.8924 49H50.3751C54.3102 49 57.5001 52.19 57.5001 56.125C57.5001 56.4702 57.2203 56.75 56.8751 56.75H55.0001H54.0001H10.5001H9.50012H8.75012C8.19784 56.75 7.75012 56.3023 7.75012 55.75V54C7.75012 51.2386 9.9887 49 12.7501 49H19.5001H42.7501H44.085H46.856ZM63.7501 19C61.4029 19 59.5001 20.9028 59.5001 23.25C59.5001 25.5972 61.4029 27.5 63.7501 27.5C66.0973 27.5 68.0001 25.5972 68.0001 23.25C68.0001 20.9028 66.0973 19 63.7501 19ZM18.5001 27.2865C16.7797 27.5203 15.3791 28.8528 15.0935 30.6075L12.426 47H12.7501H18.5001L18.5001 27.2865ZM20.5001 27.25L20.5001 47H32.1665L34.3138 41.2739C34.5077 40.7568 35.0841 40.4948 35.6012 40.6887C36.1184 40.8826 36.3804 41.459 36.1865 41.9761L34.3025 47H41.4152L36.4725 30.1256C35.9733 28.4211 34.4099 27.25 32.6338 27.25H20.5001ZM53.0001 58.75H11.5001V61.25H53.0001V58.75ZM1.75012 72.75C1.75012 67.5033 6.00342 63.25 11.2501 63.25H54.0001H55.0001H58.5001C63.7468 63.25 68.0001 67.5033 68.0001 72.75C68.0001 77.9967 63.7468 82.25 58.5001 82.25H11.2501C6.00342 82.25 1.75012 77.9967 1.75012 72.75ZM8.62512 72.125C8.07284 72.125 7.62512 72.5727 7.62512 73.125C7.62512 73.6773 8.07284 74.125 8.62512 74.125H58.8751C59.4274 74.125 59.8751 73.6773 59.8751 73.125C59.8751 72.5727 59.4274 72.125 58.8751 72.125H8.62512ZM82.0001 31.5C82.0001 29.1528 83.9029 27.25 86.2501 27.25C88.5973 27.25 90.5001 29.1528 90.5001 31.5C90.5001 33.8472 88.5973 35.75 86.2501 35.75C83.9029 35.75 82.0001 33.8472 82.0001 31.5Z" fill="#00CC66"/>
</g>
<defs>
<clipPath id="clip0_239_13028">
<rect width="96" height="96" fill="white"/>
</clipPath>
</defs>
</svg>
