<svg width="153" height="70" viewBox="0 0 153 70" fill="none" xmlns="http://www.w3.org/2000/svg">
<rect opacity="0.5" x="64.5566" y="11.6461" width="22.5" height="23.5294" rx="11.25" fill="#00CC66"/>
<path d="M59.3007 37.8663C61.8416 34.664 68.5654 27.9028 75.1338 26.4763C74.263 29.0998 72.7251 35.4536 73.5397 39.8814C75.0642 36.3686 80.8516 28.277 91.805 24.0128C93.1096 23.1186 95.3103 19.47 93.6765 12.0296C93.4774 11.8332 92.0749 11.2091 88.0573 10.2844C87.5199 10.0916 86.1076 9.41479 84.758 8.25016C83.0711 6.79436 72.5581 9.99009 70.1413 11.8953C68.3942 11.5701 64.6206 11.4914 63.5023 13.7782C62.384 16.0649 63.5458 17.0428 64.2664 17.2459C62.345 18.5439 58.453 21.4819 58.2568 22.8498C60.4963 21.3089 65.7056 18.1775 68.6272 17.9791C67.753 16.5841 66.9265 13.7918 70.6145 13.7817C73.8958 11.9327 81.1019 8.45028 83.6761 9.31192C84.7995 9.96107 87.1561 11.2656 87.5959 11.2903C88.1456 11.3213 90.7525 11.6495 90.7797 11.9685C90.7915 12.107 90.6013 12.294 90.3919 12.4998C90.1188 12.7681 89.8131 13.0685 89.8801 13.3354C89.9285 13.5286 90.432 13.8292 91.0148 14.1772C91.8546 14.6786 92.859 15.2783 92.9031 15.7963C92.9189 15.9829 92.9644 16.1849 93.0118 16.3957C93.1875 17.1763 93.39 18.0765 92.2168 18.7515C92.047 18.8492 91.8679 18.9582 91.6828 19.0709C90.2434 19.9472 88.4335 21.049 87.6912 18.8369C87.2679 17.5754 87.2545 16.4412 87.2434 15.502C87.2326 14.5825 87.2239 13.85 86.8349 13.3681C86.0486 12.3939 84.0989 11.5244 82.5817 12.0627C81.3679 12.4933 79.8262 13.3553 79.207 13.7325C79.9907 14.0639 81.6188 14.7051 81.8615 14.619C81.9202 14.5982 82.0648 14.4885 82.2664 14.3356C83.1077 13.6976 84.9418 12.3065 85.6715 13.4727C86.5761 14.9185 86.7584 15.2236 86.1555 16.403C86.0471 16.615 85.904 16.8639 85.748 17.1351C85.0364 18.3727 84.0576 20.0748 84.8934 20.8567C85.9124 21.8099 88.7724 22.3565 90.5387 21.0725C91.9518 20.0452 92.8893 19.3072 93.1815 19.0666C93.0552 20.3372 92.3837 22.9159 90.7085 23.0666C88.6144 23.2549 81.736 25.0789 80.7956 25.9672C80.7859 24.6285 80.9691 21.5793 81.7803 20.0918C76.8864 20.7461 65.539 25.2171 59.3007 37.8663Z" fill="white"/>
<path d="M78.034 14.6417C76.9272 15.411 74.4672 17.7272 73.4816 20.8379C75.6629 19.8381 80.4551 17.9283 82.1739 18.2881C80.9911 17.8587 78.233 17.1636 76.6633 17.8191C76.6552 17.418 76.918 16.2209 78.034 14.6417Z" fill="white"/>
<path d="M72.3598 17.0751C72.7348 16.8251 72.8987 16.4001 72.7259 16.1259C72.553 15.8516 72.1088 15.832 71.7337 16.0821C71.3587 16.3321 71.1948 16.7571 71.3676 17.0314C71.5405 17.3056 71.9847 17.3252 72.3598 17.0751Z" fill="white"/>
<path d="M71.8884 20.4174C72.0492 20.6724 71.8754 21.0818 71.5004 21.3319C71.1253 21.5819 70.6909 21.5779 70.5302 21.3229C70.3695 21.068 70.5432 20.6586 70.9183 20.4085C71.2934 20.1585 71.7277 20.1625 71.8884 20.4174Z" fill="white"/>
<path d="M68.0002 21.7138C68.5021 21.3792 68.7346 20.8314 68.5195 20.4902C68.3044 20.149 67.7232 20.1436 67.2213 20.4782C66.7194 20.8128 66.4869 21.3607 66.702 21.7019C66.9171 22.0431 67.4983 22.0484 68.0002 21.7138Z" fill="white"/>
<path d="M63.6049 22.5162C63.8653 22.9292 63.6245 23.5653 63.0671 23.9369C62.5097 24.3085 61.8468 24.2749 61.5864 23.8619C61.326 23.4489 61.5668 22.8128 62.1242 22.4412C62.6816 22.0696 63.3445 22.1032 63.6049 22.5162Z" fill="white"/>
<path d="M66.4023 25.7591C66.8246 25.4776 66.9971 24.9799 66.7877 24.6476C66.5782 24.3153 66.066 24.2741 65.6437 24.5557C65.2214 24.8372 65.0489 25.3348 65.2584 25.6671C65.4679 25.9994 65.9801 26.0406 66.4023 25.7591Z" fill="white"/>
<path d="M62.7102 28.8052C62.9507 29.1866 62.7761 29.7421 62.3204 30.0459C61.8647 30.3497 61.3004 30.2868 61.0599 29.9054C60.8195 29.524 60.994 28.9686 61.4498 28.6648C61.9055 28.361 62.4698 28.4239 62.7102 28.8052Z" fill="white"/>
<path d="M66.0158 35.3857C66.5052 35.0594 66.727 34.5176 66.5113 34.1754C66.2956 33.8333 65.7241 33.8204 65.2347 34.1466C64.7454 34.4729 64.5235 35.0147 64.7392 35.3569C64.9549 35.699 65.5265 35.7119 66.0158 35.3857Z" fill="white"/>
<path d="M71.4805 33.4205C71.7285 33.814 71.4376 34.461 70.8307 34.8656C70.2237 35.2702 69.5307 35.2792 69.2826 34.8858C69.0346 34.4923 69.3255 33.8453 69.9324 33.4407C70.5393 33.0361 71.2324 33.0271 71.4805 33.4205Z" fill="white"/>
<path d="M72.5723 30.0673C73.1174 29.7039 73.3779 29.1216 73.1542 28.7668C72.9305 28.4119 72.3072 28.4188 71.7621 28.7822C71.2171 29.1456 70.9565 29.7278 71.1802 30.0827C71.404 30.4376 72.0272 30.4307 72.5723 30.0673Z" fill="white"/>
<path d="M10.1068 61.6384V49.0384H15.8668C17.0188 49.0384 18.0088 49.2244 18.8368 49.5964C19.6768 49.9684 20.3248 50.5084 20.7808 51.2164C21.2368 51.9124 21.4648 52.7404 21.4648 53.7004C21.4648 54.6484 21.2368 55.4704 20.7808 56.1664C20.3248 56.8624 19.6768 57.4024 18.8368 57.7864C18.0088 58.1584 17.0188 58.3444 15.8668 58.3444H12.0868L13.6708 56.7964V61.6384H10.1068ZM13.6708 57.1744L12.0868 55.5364H15.6508C16.3948 55.5364 16.9468 55.3744 17.3068 55.0504C17.6788 54.7264 17.8648 54.2764 17.8648 53.7004C17.8648 53.1124 17.6788 52.6564 17.3068 52.3324C16.9468 52.0084 16.3948 51.8464 15.6508 51.8464H12.0868L13.6708 50.2084V57.1744ZM25.5531 61.6384V51.0724L26.3451 51.8644H21.6831V49.0384H32.9151V51.8644H28.2711L29.0631 51.0724V61.6384H25.5531ZM42.4603 56.5984V53.9704H48.4003V56.5984H42.4603ZM44.1523 48.7864C45.1243 48.7864 46.0123 48.9484 46.8163 49.2724C47.6203 49.5844 48.3163 50.0344 48.9043 50.6224C49.5043 51.2104 49.9663 51.9064 50.2903 52.7104C50.6263 53.5024 50.7943 54.3784 50.7943 55.3384C50.7943 56.2984 50.6263 57.1804 50.2903 57.9844C49.9663 58.7764 49.5043 59.4664 48.9043 60.0544C48.3163 60.6424 47.6203 61.0984 46.8163 61.4224C46.0123 61.7344 45.1243 61.8904 44.1523 61.8904C42.9763 61.8904 41.9263 61.6864 41.0023 61.2784C40.0783 60.8584 39.3103 60.2704 38.6983 59.5144L40.9483 57.4624C41.3563 57.9424 41.8063 58.3084 42.2983 58.5604C42.8023 58.8124 43.3603 58.9384 43.9723 58.9384C44.4523 58.9384 44.8903 58.8544 45.2863 58.6864C45.6823 58.5184 46.0183 58.2784 46.2943 57.9664C46.5823 57.6424 46.7983 57.2584 46.9423 56.8144C47.0983 56.3704 47.1763 55.8784 47.1763 55.3384C47.1763 54.7984 47.0983 54.3064 46.9423 53.8624C46.7983 53.4184 46.5823 53.0404 46.2943 52.7284C46.0183 52.4044 45.6823 52.1584 45.2863 51.9904C44.8903 51.8224 44.4523 51.7384 43.9723 51.7384C43.3603 51.7384 42.8023 51.8644 42.2983 52.1164C41.8063 52.3684 41.3563 52.7344 40.9483 53.2144L38.6983 51.1624C39.3103 50.3944 40.0783 49.8064 41.0023 49.3984C41.9263 48.9904 42.9763 48.7864 44.1523 48.7864ZM60.6722 61.6384L57.1262 55.6444L59.9882 53.9524L64.6862 61.6384H60.6722ZM52.6442 61.6384V49.0384H56.1902V61.6384H52.6442ZM55.1642 56.8144V53.9344H59.7362V56.8144H55.1642ZM60.3302 55.7164L57.0362 55.3564L60.9062 49.0384H64.6502L60.3302 55.7164ZM71.8972 61.8904C70.9012 61.8904 69.9772 61.7344 69.1252 61.4224C68.2852 61.0984 67.5532 60.6424 66.9292 60.0544C66.3172 59.4664 65.8372 58.7764 65.4892 57.9844C65.1412 57.1804 64.9672 56.2984 64.9672 55.3384C64.9672 54.3784 65.1412 53.5024 65.4892 52.7104C65.8372 51.9064 66.3172 51.2104 66.9292 50.6224C67.5532 50.0344 68.2852 49.5844 69.1252 49.2724C69.9772 48.9484 70.9012 48.7864 71.8972 48.7864C73.0612 48.7864 74.0992 48.9904 75.0112 49.3984C75.9352 49.8064 76.7032 50.3944 77.3152 51.1624L75.0472 53.2144C74.6392 52.7344 74.1892 52.3684 73.6972 52.1164C73.2172 51.8644 72.6772 51.7384 72.0772 51.7384C71.5612 51.7384 71.0872 51.8224 70.6552 51.9904C70.2232 52.1584 69.8512 52.4044 69.5392 52.7284C69.2392 53.0404 68.9992 53.4184 68.8192 53.8624C68.6512 54.3064 68.5672 54.7984 68.5672 55.3384C68.5672 55.8784 68.6512 56.3704 68.8192 56.8144C68.9992 57.2584 69.2392 57.6424 69.5392 57.9664C69.8512 58.2784 70.2232 58.5184 70.6552 58.6864C71.0872 58.8544 71.5612 58.9384 72.0772 58.9384C72.6772 58.9384 73.2172 58.8124 73.6972 58.5604C74.1892 58.3084 74.6392 57.9424 75.0472 57.4624L77.3152 59.5144C76.7032 60.2704 75.9352 60.8584 75.0112 61.2784C74.0992 61.6864 73.0612 61.8904 71.8972 61.8904ZM78.9252 61.6384V49.0384H90.7512V61.6384H87.2232V51.0724L88.0152 51.8644H81.6612L82.4352 51.0724V61.6384H78.9252ZM93.4447 61.6384V49.0384H99.2047C100.357 49.0384 101.347 49.2244 102.175 49.5964C103.015 49.9684 103.663 50.5084 104.119 51.2164C104.575 51.9124 104.803 52.7404 104.803 53.7004C104.803 54.6484 104.575 55.4704 104.119 56.1664C103.663 56.8624 103.015 57.4024 102.175 57.7864C101.347 58.1584 100.357 58.3444 99.2047 58.3444H95.4247L97.0087 56.7964V61.6384H93.4447ZM97.0087 57.1744L95.4247 55.5364H98.9887C99.7327 55.5364 100.285 55.3744 100.645 55.0504C101.017 54.7264 101.203 54.2764 101.203 53.7004C101.203 53.1124 101.017 52.6564 100.645 52.3324C100.285 52.0084 99.7327 51.8464 98.9887 51.8464H95.4247L97.0087 50.2084V57.1744ZM109.693 53.9164H115.543V56.5804H109.693V53.9164ZM109.945 58.8844H116.533V61.6384H106.417V49.0384H116.299V51.7924H109.945V58.8844ZM124.702 61.8904C123.706 61.8904 122.782 61.7344 121.93 61.4224C121.09 61.0984 120.358 60.6424 119.734 60.0544C119.122 59.4664 118.642 58.7764 118.294 57.9844C117.946 57.1804 117.772 56.2984 117.772 55.3384C117.772 54.3784 117.946 53.5024 118.294 52.7104C118.642 51.9064 119.122 51.2104 119.734 50.6224C120.358 50.0344 121.09 49.5844 121.93 49.2724C122.782 48.9484 123.706 48.7864 124.702 48.7864C125.866 48.7864 126.904 48.9904 127.816 49.3984C128.74 49.8064 129.508 50.3944 130.12 51.1624L127.852 53.2144C127.444 52.7344 126.994 52.3684 126.502 52.1164C126.022 51.8644 125.482 51.7384 124.882 51.7384C124.366 51.7384 123.892 51.8224 123.46 51.9904C123.028 52.1584 122.656 52.4044 122.344 52.7284C122.044 53.0404 121.804 53.4184 121.624 53.8624C121.456 54.3064 121.372 54.7984 121.372 55.3384C121.372 55.8784 121.456 56.3704 121.624 56.8144C121.804 57.2584 122.044 57.6424 122.344 57.9664C122.656 58.2784 123.028 58.5184 123.46 58.6864C123.892 58.8544 124.366 58.9384 124.882 58.9384C125.482 58.9384 126.022 58.8124 126.502 58.5604C126.994 58.3084 127.444 57.9424 127.852 57.4624L130.12 59.5144C129.508 60.2704 128.74 60.8584 127.816 61.2784C126.904 61.6864 125.866 61.8904 124.702 61.8904ZM137.604 61.8904C136.608 61.8904 135.684 61.7344 134.832 61.4224C133.992 61.0984 133.26 60.6424 132.636 60.0544C132.024 59.4664 131.544 58.7764 131.196 57.9844C130.848 57.1804 130.674 56.2984 130.674 55.3384C130.674 54.3784 130.848 53.5024 131.196 52.7104C131.544 51.9064 132.024 51.2104 132.636 50.6224C133.26 50.0344 133.992 49.5844 134.832 49.2724C135.684 48.9484 136.608 48.7864 137.604 48.7864C138.768 48.7864 139.806 48.9904 140.718 49.3984C141.642 49.8064 142.41 50.3944 143.022 51.1624L140.754 53.2144C140.346 52.7344 139.896 52.3684 139.404 52.1164C138.924 51.8644 138.384 51.7384 137.784 51.7384C137.268 51.7384 136.794 51.8224 136.362 51.9904C135.93 52.1584 135.558 52.4044 135.246 52.7284C134.946 53.0404 134.706 53.4184 134.526 53.8624C134.358 54.3064 134.274 54.7984 134.274 55.3384C134.274 55.8784 134.358 56.3704 134.526 56.8144C134.706 57.2584 134.946 57.6424 135.246 57.9664C135.558 58.2784 135.93 58.5184 136.362 58.6864C136.794 58.8544 137.268 58.9384 137.784 58.9384C138.384 58.9384 138.924 58.8124 139.404 58.5604C139.896 58.3084 140.346 57.9424 140.754 57.4624L143.022 59.5144C142.41 60.2704 141.642 60.8584 140.718 61.2784C139.806 61.6864 138.768 61.8904 137.604 61.8904Z" fill="white"/>
</svg>
