<svg width="24" height="24" viewBox="0 0 24 24" fill="none" xmlns="http://www.w3.org/2000/svg">
<g id="Frame 36186">
<path id="&#226;&#128;&#156;" d="M10.5796 3L6.90612 15.5469L5.58367 10.3351C7.21633 10.3351 8.5551 10.8016 9.6 11.7346C10.6449 12.6676 11.1673 13.9544 11.1673 15.5952C11.1673 17.2359 10.6286 18.555 9.55102 19.5523C8.50612 20.5174 7.18367 21 5.58367 21C3.98367 21 2.6449 20.5174 1.56735 19.5523C0.522449 18.555 0 17.2359 0 15.5952C0 15.1448 0.0326531 14.6944 0.0979592 14.244C0.195918 13.7936 0.359184 13.2466 0.587755 12.6032C0.816327 11.9598 1.15918 11.1233 1.61633 10.0938L4.75102 3H10.5796ZM23.4122 3L19.7388 15.5469L18.4163 10.3351C20.049 10.3351 21.3878 10.8016 22.4327 11.7346C23.4776 12.6676 24 13.9544 24 15.5952C24 17.2359 23.4612 18.555 22.3837 19.5523C21.3388 20.5174 20.0163 21 18.4163 21C16.8163 21 15.4776 20.5174 14.4 19.5523C13.3551 18.555 12.8327 17.2359 12.8327 15.5952C12.8327 15.1448 12.8653 14.6944 12.9306 14.244C13.0286 13.7936 13.1918 13.2466 13.4204 12.6032C13.649 11.9598 13.9918 11.1233 14.449 10.0938L17.5837 3H23.4122Z" fill="white"/>
</g>
</svg>
