<svg width="53" height="64" viewBox="0 0 53 64" fill="none" xmlns="http://www.w3.org/2000/svg">
<g clip-path="url(#clip0_807_3685)">
<path fill-rule="evenodd" clip-rule="evenodd" d="M0.166016 0.157104H52.3581V53.0716C52.3581 56.7518 48.8372 59.7812 44.5339 59.7812H30.4503C28.1491 59.7812 26.3081 61.7784 26.2851 64C26.2851 62.0028 24.6512 59.7812 22.1198 59.7812H7.99022C3.68691 59.7812 0.166016 56.7518 0.166016 53.0716V0.157104Z" stroke="#2B2A29" stroke-width="0.61145"/>
<path fill-rule="evenodd" clip-rule="evenodd" d="M0.166016 0.157104H52.3581V53.0715C52.3581 56.7518 48.8372 59.7812 44.5339 59.7812H30.4503C28.1491 59.7812 26.3081 61.7784 26.2851 64C26.2851 62.0028 24.6512 59.7812 22.1198 59.7812H7.99022C3.68691 59.7812 0.166016 56.7518 0.166016 53.0715V0.157104Z" fill="#008DD2"/>
<path d="M52.3581 48.9874H0.166016" stroke="#FAD907" stroke-width="0.244644"/>
<path fill-rule="evenodd" clip-rule="evenodd" d="M52.3581 48.9874H0.166016V0.157104H52.3581V48.9874Z" fill="#01AAE0"/>
<path d="M52.3581 48.9874H0.166016" stroke="#01AAE0" stroke-width="0.244644"/>
<path fill-rule="evenodd" clip-rule="evenodd" d="M52.3581 48.9874H0.166016V53.0716C0.166016 56.7518 3.68691 59.7813 7.99022 59.7813H22.1198C24.6512 59.7813 26.2851 62.0029 26.2851 64C26.3081 61.7785 28.1491 59.7813 30.4503 59.7813H44.5339C48.8372 59.7813 52.3581 56.7518 52.3581 53.0716V48.9874Z" fill="#01AAE0"/>
<path d="M52.3581 52.4431C45.3623 50.3786 36.4795 49.1219 26.8143 49.1219C16.6429 49.1219 7.32286 50.5133 0.166016 52.7797" stroke="#2B2A29" stroke-width="0.244644"/>
<path fill-rule="evenodd" clip-rule="evenodd" d="M26.8143 49.1221C36.4795 49.1221 45.3623 50.3787 52.3581 52.4432V53.0716C52.3581 56.7518 48.8372 59.7813 44.5339 59.7813H30.4503C28.1491 59.7813 26.3081 61.7785 26.2851 64.0001C26.2851 62.0029 24.6512 59.7813 22.1198 59.7813H7.99022C3.68691 59.7813 0.166016 56.7518 0.166016 53.0716V52.7799C7.32287 50.5134 16.6429 49.1221 26.8143 49.1221Z" fill="#FCDD07"/>
<path d="M49.4371 58.2778C42.7405 56.5948 34.9623 55.6074 26.6779 55.6074C18.1403 55.6074 10.155 56.6397 3.32031 58.4349" stroke="#2B2A29" stroke-width="0.244644"/>
<path fill-rule="evenodd" clip-rule="evenodd" d="M26.6759 55.6073C34.9604 55.6073 42.7386 56.5947 49.4352 58.2777C48.1005 59.2202 46.3975 59.7812 44.5335 59.7812H30.45C28.1487 59.7812 26.3077 61.7784 26.2847 64C26.2847 62.0028 24.6508 59.7812 22.1195 59.7812H7.98987C6.24093 59.7812 4.63007 59.2875 3.31836 58.4348C10.153 56.6396 18.1383 55.6073 26.6759 55.6073Z" fill="#252725"/>
<path fill-rule="evenodd" clip-rule="evenodd" d="M23.5692 12.8809V11.916C23.0629 11.4223 22.7638 10.9286 22.6027 10.1656C22.4416 9.0885 22.5106 8.37041 23.0169 7.74208C23.7303 6.93423 24.7428 6.66494 25.7094 6.73226C25.8244 6.57518 25.8935 6.50786 26.1926 6.4181V5.67756H25.8244V5.22876H26.1696V4.82483H26.6989V5.22876H27.0901V5.67756H26.7219V6.4181C26.9981 6.48542 27.0441 6.59762 27.2282 6.84446C28.678 6.55274 29.8286 7.45036 30.1047 7.9216C30.611 8.66214 30.611 9.46999 30.4269 10.39C30.3118 10.9959 29.9667 11.4447 29.5985 11.9609V12.8809H23.5692Z" stroke="#2B2A29" stroke-width="0.0932"/>
<path fill-rule="evenodd" clip-rule="evenodd" d="M23.5692 12.8809V11.916C23.0629 11.4223 22.7638 10.9286 22.6027 10.1656C22.4416 9.0885 22.5106 8.37041 23.0169 7.74208C23.7303 6.93423 24.7428 6.66494 25.7094 6.73226C25.8244 6.57518 25.8935 6.50786 26.1926 6.4181V5.67756H25.8244V5.22876H26.1696V4.82483H26.6989V5.22876H27.0901V5.67756H26.7219V6.4181C26.9981 6.48542 27.0441 6.59762 27.2282 6.84446C28.678 6.55274 29.8286 7.45036 30.1047 7.9216C30.611 8.66214 30.611 9.46999 30.4269 10.39C30.3118 10.9959 29.9667 11.4447 29.5985 11.9609V12.8809H23.5692Z" fill="#2B2A29"/>
<path fill-rule="evenodd" clip-rule="evenodd" d="M26.1924 6.57506V5.67744H25.8242V5.22863H26.1694V4.82471H26.6987V5.22863H27.0899V5.67744H26.7217V6.57506H26.1924Z" stroke="#2B2A29" stroke-width="0.244644"/>
<path fill-rule="evenodd" clip-rule="evenodd" d="M26.1924 6.57506V5.67744H25.8242V5.22863H26.1694V4.82471H26.6987V5.22863H27.0899V5.67744H26.7217V6.57506H26.1924Z" fill="#FFED00"/>
<path fill-rule="evenodd" clip-rule="evenodd" d="M25.388 9.64947C25.5721 9.62703 25.7332 9.62703 25.8942 9.62703C25.7332 8.66209 25.5951 7.85424 25.3189 6.91174C25.0198 6.91174 24.7206 6.95662 24.3984 7.06883C24.8127 7.96644 25.1118 8.68453 25.388 9.64947Z" fill="#FFED00"/>
<path fill-rule="evenodd" clip-rule="evenodd" d="M27.5727 9.64937C27.4116 9.62693 27.2505 9.62693 27.0664 9.62693C27.2275 8.66199 27.3656 7.87658 27.6417 6.93408C27.9409 6.93408 28.2631 6.97896 28.5622 7.06872C28.148 7.96634 27.8488 8.68443 27.5727 9.64937Z" fill="#FFED00"/>
<path fill-rule="evenodd" clip-rule="evenodd" d="M26.4235 7.62977C26.8377 7.62977 27.1829 7.36049 27.1829 7.04632C27.1829 6.70971 26.8377 6.44043 26.4235 6.44043C26.0092 6.44043 25.6641 6.70971 25.6641 7.04632C25.6641 7.36049 26.0092 7.62977 26.4235 7.62977Z" fill="#FFED00"/>
<path fill-rule="evenodd" clip-rule="evenodd" d="M23.7305 12.0281C24.674 11.5569 25.4334 11.2651 26.515 11.2651C27.9187 11.2876 28.6321 11.6242 29.4375 11.9383V12.8135H29.1614C28.517 12.4545 27.6426 12.1852 26.584 12.1403C25.5945 12.1628 24.8121 12.4096 24.1217 12.8135H23.7305V12.0281Z" fill="#FFED00"/>
<path fill-rule="evenodd" clip-rule="evenodd" d="M24.5352 12.8135C25.1565 12.5442 25.5937 12.3647 26.4682 12.3423C27.5958 12.3423 28.1021 12.634 28.7464 12.8135C27.3427 12.8135 25.9389 12.8135 24.5352 12.8135Z" fill="#FFED00"/>
<path fill-rule="evenodd" clip-rule="evenodd" d="M24.2141 7.18091C24.6284 7.98876 24.9275 8.77418 25.2037 9.62691C25.3187 9.91864 25.0426 9.98596 25.1116 10.2777C25.1346 10.3899 25.3417 10.4123 25.2727 10.547C25.1576 10.6592 25.0656 10.7265 24.9045 10.7714C24.5363 10.7938 24.4443 10.5021 24.1911 10.5021C23.984 10.4796 23.8459 10.8163 23.6158 10.906C23.4777 10.9733 23.3166 11.0182 23.1325 10.9958C22.7874 10.5245 22.7183 9.94108 22.6953 9.44739C22.6953 8.97614 22.7643 8.46001 22.9254 8.14585C23.2706 7.58484 23.7769 7.27067 24.2141 7.18091Z" fill="#FFED00"/>
<path fill-rule="evenodd" clip-rule="evenodd" d="M28.7934 7.18091C28.3792 7.98876 28.08 8.77418 27.8038 9.62691C27.6888 9.91864 27.9649 9.98596 27.8959 10.2777C27.8729 10.3899 27.6658 10.4123 27.7578 10.547C27.8499 10.6592 27.9649 10.7265 28.103 10.7714C28.4712 10.7938 28.5633 10.5021 28.8164 10.5021C29.0235 10.4796 29.1616 10.8163 29.3917 10.906C29.5298 10.9733 29.6909 11.0182 29.875 10.9958C30.2201 10.5245 30.2892 9.94108 30.3122 9.44739C30.2432 8.63953 30.1511 8.46001 29.99 8.14584C29.6218 7.58484 29.2076 7.33799 28.7934 7.18091Z" fill="#FFED00"/>
<path d="M23.6152 7.65222C23.9604 8.48252 24.2366 9.35769 24.3977 10.3002" stroke="#2B2A29" stroke-width="0.0932"/>
<path d="M23.0625 8.59473C23.4997 9.22306 23.6608 9.53722 23.8679 10.4797" stroke="#2B2A29" stroke-width="0.0932"/>
<path d="M22.9707 8.9537C23.4079 8.32537 23.6381 8.16829 24.3745 7.85413" stroke="#2B2A29" stroke-width="0.0932"/>
<path d="M23.5234 10.4797C24.0067 9.91866 24.2138 9.8289 24.7661 9.60449" stroke="#2B2A29" stroke-width="0.0932"/>
<path d="M23.0859 9.89629C23.5232 9.26796 23.8684 8.99867 24.5587 8.61719" stroke="#2B2A29" stroke-width="0.0932"/>
<path d="M29.3675 7.65222C29.0223 8.48252 28.7001 9.35769 28.5391 10.3002" stroke="#2B2A29" stroke-width="0.0932"/>
<path d="M29.9433 8.59473C29.483 9.22306 29.2989 9.53722 29.0918 10.4797" stroke="#2B2A29" stroke-width="0.0932"/>
<path d="M30.0372 8.9537C29.577 8.32537 29.3469 8.16829 28.5645 7.85413" stroke="#2B2A29" stroke-width="0.0932"/>
<path d="M29.4601 10.4797C28.9769 9.91866 28.7237 9.8289 28.1484 9.60449" stroke="#2B2A29" stroke-width="0.0932"/>
<path d="M29.9207 9.89629C29.4605 9.26796 29.0923 8.99867 28.3789 8.61719" stroke="#2B2A29" stroke-width="0.0932"/>
<path fill-rule="evenodd" clip-rule="evenodd" d="M25.7793 7.74194C25.8713 8.10099 25.9864 8.46004 26.0785 8.81908C26.3546 8.662 26.6538 8.61712 26.9529 8.81908C26.999 8.4376 27.045 8.10099 27.114 7.74194C26.7458 7.98879 26.4236 8.19075 25.7793 7.74194Z" fill="#FFED00"/>
<path fill-rule="evenodd" clip-rule="evenodd" d="M26.4699 8.16821C26.631 8.16821 26.7461 8.23553 26.7461 8.3253C26.7461 8.41506 26.631 8.48238 26.4699 8.48238C26.3319 8.48238 26.2168 8.41506 26.2168 8.3253C26.2168 8.23553 26.3319 8.16821 26.4699 8.16821Z" stroke="#2B2A29" stroke-width="0.0932"/>
<path fill-rule="evenodd" clip-rule="evenodd" d="M26.4699 8.16821C26.631 8.16821 26.7461 8.23553 26.7461 8.3253C26.7461 8.41506 26.631 8.48238 26.4699 8.48238C26.3319 8.48238 26.2168 8.41506 26.2168 8.3253C26.2168 8.23553 26.3319 8.16821 26.4699 8.16821Z" fill="#FFED00"/>
<path fill-rule="evenodd" clip-rule="evenodd" d="M26.1699 9.76157C26.1699 9.49228 26.1699 9.223 26.1699 8.95371C26.308 8.63955 26.7912 8.72931 26.8373 8.95371C26.8373 9.223 26.8373 9.49228 26.8373 9.76157C26.9063 9.91865 27.4586 9.78401 27.5276 10.0084C27.5737 10.4348 27.4356 10.4797 27.2745 10.547C27.1364 10.5694 27.1134 10.6367 27.0904 10.7041C27.0904 10.7938 27.4816 10.7714 27.7117 10.7938C27.8728 10.8163 28.0569 10.906 28.241 10.906C28.5632 10.9509 28.7703 10.6592 28.8393 10.6816C29.0004 10.6592 29.1845 11.0631 29.4146 11.108C29.5757 11.1304 29.6678 11.0182 29.7368 11.0856C29.8289 11.1753 29.8289 11.2651 29.7828 11.3773C29.6908 11.5568 29.6218 11.669 29.4837 11.7812C26.5611 10.6143 25.8017 11.0182 23.6615 11.7812C23.4774 11.6466 23.2473 11.3773 23.2473 11.2875C23.2013 11.1753 23.2703 11.1304 23.3394 11.1304C23.4314 11.1304 23.5695 11.1753 23.6615 11.1304C23.8687 11.0407 24.0067 10.7041 24.1218 10.7041C24.3059 10.6816 24.3059 10.7938 24.49 10.8387C24.7201 10.906 24.7431 10.9509 24.9502 10.906C25.3184 10.6816 25.8247 10.7714 25.8707 10.7265C25.8937 10.6143 25.6866 10.5919 25.6406 10.5021C25.4335 10.2553 25.4335 10.0309 25.5025 9.98597C25.7096 9.85133 26.0778 9.89621 26.1699 9.76157Z" fill="#FFED00"/>
<path fill-rule="evenodd" clip-rule="evenodd" d="M26.5138 10.0981C26.6288 10.0981 26.7439 10.2328 26.7439 10.3899C26.7439 10.5694 26.6288 10.704 26.5138 10.704C26.3987 10.704 26.3066 10.5694 26.3066 10.3899C26.3066 10.2328 26.3987 10.0981 26.5138 10.0981Z" stroke="#2B2A29" stroke-width="0.0932"/>
<path fill-rule="evenodd" clip-rule="evenodd" d="M26.5138 10.0981C26.6288 10.0981 26.7439 10.2328 26.7439 10.3899C26.7439 10.5694 26.6288 10.704 26.5138 10.704C26.3987 10.704 26.3066 10.5694 26.3066 10.3899C26.3066 10.2328 26.3987 10.0981 26.5138 10.0981Z" fill="#FFED00"/>
<path fill-rule="evenodd" clip-rule="evenodd" d="M23.339 13.1051C23.339 12.948 23.0169 12.7909 22.8097 12.589C21.8892 12.2972 21.7282 11.1528 21.429 11.2426C21.0608 11.3772 20.9227 11.6016 20.9918 11.8709C21.0378 11.9831 21.7512 12.589 22.1884 13.1051C22.5336 13.1051 22.9938 13.1051 23.339 13.1051Z" stroke="#2B2A29" stroke-width="0.220148"/>
<path fill-rule="evenodd" clip-rule="evenodd" d="M23.339 13.1051C23.339 12.948 23.0169 12.7909 22.8097 12.589C21.8892 12.2972 21.7282 11.1528 21.429 11.2426C21.0608 11.3772 20.9227 11.6016 20.9918 11.8709C21.0378 11.9831 21.7512 12.589 22.1884 13.1051C22.5336 13.1051 22.9938 13.1051 23.339 13.1051Z" fill="#FEFEFE"/>
<path fill-rule="evenodd" clip-rule="evenodd" d="M21.4289 11.2426C21.0607 11.3773 20.9227 11.6017 20.9917 11.871C20.6465 12.4769 20.0482 12.23 19.9561 13.1052C19.9561 13.7335 20.0252 13.8682 20.3243 14.2048C20.6465 15.0351 20.5084 15.8654 20.3243 16.6732C20.1172 16.4937 19.9331 16.3142 19.749 16.1346C19.634 16.4264 19.5189 16.7181 19.4038 17.0098C19.1507 16.7181 19.0356 16.4264 19.0587 16.1346C19.1737 15.7756 19.5189 15.3043 19.4269 15.0799C19.3578 14.5414 18.8515 14.3618 18.6905 13.913C18.5754 13.5091 18.5524 13.2623 18.6674 12.993C18.8285 12.5891 19.2658 12.5891 19.3348 12.4095C19.2428 11.9607 19.2197 11.4895 19.4729 11.1304C19.749 10.8387 19.9101 10.5245 20.2783 10.6592C20.6695 10.8836 21.0377 11.0182 21.4289 11.2426Z" stroke="#2B2A29" stroke-width="0.220148"/>
<path fill-rule="evenodd" clip-rule="evenodd" d="M21.4289 11.2426C21.0607 11.3773 20.9227 11.6017 20.9917 11.871C20.6465 12.4769 20.0482 12.23 19.9561 13.1052C19.9561 13.7335 20.0252 13.8682 20.3243 14.2048C20.6465 15.0351 20.5084 15.8654 20.3243 16.6732C20.1172 16.4937 19.9331 16.3142 19.749 16.1346C19.634 16.4264 19.5189 16.7181 19.4038 17.0098C19.1507 16.7181 19.0356 16.4264 19.0587 16.1346C19.1737 15.7756 19.5189 15.3043 19.4269 15.0799C19.3578 14.5414 18.8515 14.3618 18.6905 13.913C18.5754 13.5091 18.5524 13.2623 18.6674 12.993C18.8285 12.5891 19.2658 12.5891 19.3348 12.4095C19.2428 11.9607 19.2197 11.4895 19.4729 11.1304C19.749 10.8387 19.9101 10.5245 20.2783 10.6592C20.6695 10.8836 21.0377 11.0182 21.4289 11.2426Z" fill="#FEFEFE"/>
<path fill-rule="evenodd" clip-rule="evenodd" d="M29.8047 13.1051C29.8047 12.948 30.1269 12.7909 30.334 12.589C31.2775 12.2972 31.4156 11.1528 31.7147 11.2426C32.1059 11.3772 32.244 11.6016 32.152 11.8709C32.1289 11.9831 31.3925 12.589 30.9553 13.1051C30.6101 13.1051 30.1499 13.1051 29.8047 13.1051Z" stroke="#2B2A29" stroke-width="0.220148"/>
<path fill-rule="evenodd" clip-rule="evenodd" d="M29.8047 13.1051C29.8047 12.948 30.1269 12.7909 30.334 12.589C31.2775 12.2972 31.4156 11.1528 31.7147 11.2426C32.1059 11.3772 32.244 11.6016 32.152 11.8709C32.1289 11.9831 31.3925 12.589 30.9553 13.1051C30.6101 13.1051 30.1499 13.1051 29.8047 13.1051Z" fill="#FEFEFE"/>
<path fill-rule="evenodd" clip-rule="evenodd" d="M31.7148 11.2426C32.1061 11.3773 32.2441 11.6017 32.1521 11.871C32.4973 12.4769 33.0956 12.23 33.1876 13.1052C33.1876 13.7335 33.1186 13.8682 32.8194 14.2048C32.5203 15.0351 32.6584 15.8654 32.8194 16.6732C33.0265 16.4937 33.2106 16.3142 33.3947 16.1346C33.5098 16.4264 33.6479 16.7181 33.7629 17.0098C33.9931 16.7181 34.1081 16.4264 34.1081 16.1346C33.9701 15.7756 33.6249 15.3043 33.7399 15.0799C33.786 14.5414 34.2922 14.3618 34.4533 13.913C34.5914 13.5091 34.5914 13.2623 34.4763 12.993C34.3152 12.5891 33.901 12.5891 33.809 12.4095C33.901 11.9607 33.924 11.4895 33.6709 11.1304C33.3947 10.8387 33.2567 10.5245 32.8655 10.6592C32.4973 10.8836 32.1061 11.0182 31.7148 11.2426Z" stroke="#2B2A29" stroke-width="0.220148"/>
<path fill-rule="evenodd" clip-rule="evenodd" d="M31.7148 11.2426C32.1061 11.3773 32.2441 11.6017 32.1521 11.871C32.4973 12.4769 33.0956 12.23 33.1876 13.1052C33.1876 13.7335 33.1186 13.8682 32.8194 14.2048C32.5203 15.0351 32.6584 15.8654 32.8194 16.6732C33.0265 16.4937 33.2106 16.3142 33.3947 16.1346C33.5098 16.4264 33.6479 16.7181 33.7629 17.0098C33.9931 16.7181 34.1081 16.4264 34.1081 16.1346C33.9701 15.7756 33.6249 15.3043 33.7399 15.0799C33.786 14.5414 34.2922 14.3618 34.4533 13.913C34.5914 13.5091 34.5914 13.2623 34.4763 12.993C34.3152 12.5891 33.901 12.5891 33.809 12.4095C33.901 11.9607 33.924 11.4895 33.6709 11.1304C33.3947 10.8387 33.2567 10.5245 32.8655 10.6592C32.4973 10.8836 32.1061 11.0182 31.7148 11.2426Z" fill="#FEFEFE"/>
<path fill-rule="evenodd" clip-rule="evenodd" d="M21.8672 13.1051H31.3023V14.1822H21.8672V13.1051Z" stroke="#2B2A29" stroke-width="0.244644"/>
<path fill-rule="evenodd" clip-rule="evenodd" d="M21.8672 13.1051H31.3023V14.1822H21.8672V13.1051Z" fill="#FEFEFE"/>
<path fill-rule="evenodd" clip-rule="evenodd" d="M22.7168 15.0801H30.495V14.4293H22.7168V15.0801Z" stroke="#2B2A29" stroke-width="0.244644"/>
<path fill-rule="evenodd" clip-rule="evenodd" d="M22.7168 15.0801H30.495V14.4293H22.7168V15.0801Z" fill="#FEFEFE"/>
<path fill-rule="evenodd" clip-rule="evenodd" d="M23.0625 15.9103H30.2194V15.3492H23.0625V15.9103Z" stroke="#2B2A29" stroke-width="0.244644"/>
<path fill-rule="evenodd" clip-rule="evenodd" d="M23.0625 15.9103H30.2194V15.3492H23.0625V15.9103Z" fill="#FEFEFE"/>
<path fill-rule="evenodd" clip-rule="evenodd" d="M22.0762 39.4727L23.0657 15.9103H30.2226L31.4652 39.4727H22.0762Z" stroke="#2B2A29" stroke-width="0.244644"/>
<path fill-rule="evenodd" clip-rule="evenodd" d="M22.0762 39.4727L23.0657 15.9103H30.2226L31.4652 39.4727H22.0762Z" fill="#FEFEFE"/>
<path fill-rule="evenodd" clip-rule="evenodd" d="M23.0625 38.1038C23.2466 31.1248 23.4307 24.1683 23.6148 17.2118C23.7068 16.9201 24.2591 17.0098 24.2822 17.2567C24.2361 24.1683 24.1901 31.1024 24.1441 38.014C24.029 38.5302 23.1315 38.6199 23.0625 38.1038Z" stroke="#C5C6C6" stroke-width="0.244644"/>
<path fill-rule="evenodd" clip-rule="evenodd" d="M25.0664 38.0141C25.1585 31.1025 25.2275 24.1684 25.2965 17.2568C25.3426 16.8529 26.217 16.9426 26.217 17.2568C26.217 24.1684 26.24 31.0801 26.24 37.9693C26.148 38.5976 25.1124 38.62 25.0664 38.0141Z" stroke="#C5C6C6" stroke-width="0.244644"/>
<path fill-rule="evenodd" clip-rule="evenodd" d="M27.2965 38.0589C27.2045 31.1473 27.1354 24.2132 27.0664 17.2791C27.0664 16.9201 27.8718 16.8976 27.8949 17.2791C28.102 24.1907 28.2861 31.1024 28.4932 38.014C28.5392 38.7321 27.3195 38.575 27.2965 38.0589Z" stroke="#C5C6C6" stroke-width="0.244644"/>
<path fill-rule="evenodd" clip-rule="evenodd" d="M29.484 38.1038C29.2999 31.1024 29.0928 24.101 28.9087 17.1221C28.8857 16.8303 29.6221 16.8303 29.6221 17.0996C29.9213 24.0562 30.2204 31.0127 30.4966 37.9692C30.4736 38.4853 29.6221 38.5526 29.484 38.1038Z" stroke="#C5C6C6" stroke-width="0.244644"/>
<path fill-rule="evenodd" clip-rule="evenodd" d="M21.9355 40.1234H31.6238V39.4727H21.9355V40.1234Z" stroke="#2B2A29" stroke-width="0.244644"/>
<path fill-rule="evenodd" clip-rule="evenodd" d="M21.9355 40.1234H31.6238V39.4727H21.9355V40.1234Z" fill="#FEFEFE"/>
<path fill-rule="evenodd" clip-rule="evenodd" d="M20.8984 41.6942C24.8566 41.6942 28.8147 41.6942 32.7728 41.6942C32.7728 41.1556 32.6348 40.2131 31.5071 40.1907C28.3544 40.1907 25.2018 40.1907 22.0491 40.1907C21.1286 40.2804 20.8984 41.021 20.8984 41.6942Z" stroke="#2B2A29" stroke-width="0.244644"/>
<path fill-rule="evenodd" clip-rule="evenodd" d="M20.8984 41.6942C24.8566 41.6942 28.8147 41.6942 32.7728 41.6942C32.7728 41.1556 32.6348 40.2131 31.5071 40.1907C28.3544 40.1907 25.2018 40.1907 22.0491 40.1907C21.1286 40.2804 20.8984 41.021 20.8984 41.6942Z" fill="#FEFEFE"/>
<path fill-rule="evenodd" clip-rule="evenodd" d="M20.8984 44.6563H32.7728V41.6942H20.8984V44.6563Z" stroke="#2B2A29" stroke-width="0.244644"/>
<path fill-rule="evenodd" clip-rule="evenodd" d="M20.8984 44.6563H32.7728V41.6942H20.8984V44.6563Z" fill="#FEFEFE"/>
<path fill-rule="evenodd" clip-rule="evenodd" d="M20.4164 42.3676C24.7197 42.3676 29.046 42.3676 33.3493 42.3676C33.9707 42.3676 34.0167 43.9159 33.3493 43.9159C29.046 43.9159 24.7197 43.9159 20.4164 43.9159C19.703 43.8935 19.749 42.4124 20.4164 42.3676Z" stroke="#2B2A29" stroke-width="0.244644"/>
<path fill-rule="evenodd" clip-rule="evenodd" d="M20.4164 42.3676C24.7197 42.3676 29.046 42.3676 33.3493 42.3676C33.9707 42.3676 34.0167 43.9159 33.3493 43.9159C29.046 43.9159 24.7197 43.9159 20.4164 43.9159C19.703 43.8935 19.749 42.4124 20.4164 42.3676Z" fill="#FEFEFE"/>
<path fill-rule="evenodd" clip-rule="evenodd" d="M21.0605 51.6803H32.5667V44.7462H21.0605V51.6803Z" stroke="#2B2A29" stroke-width="0.244644"/>
<path fill-rule="evenodd" clip-rule="evenodd" d="M21.0605 51.6803H32.5667V44.7462H21.0605V51.6803Z" fill="#FEFEFE"/>
<path fill-rule="evenodd" clip-rule="evenodd" d="M23.3393 45.5989C25.6866 45.5989 28.0108 45.5989 30.3581 45.5989C30.4731 46.4516 30.9564 46.9453 31.7848 47.0575C31.7848 47.8878 31.7848 48.6957 31.7848 49.5259C31.2095 49.5484 30.4731 49.7279 30.3811 50.7826C28.0108 50.7826 25.6405 50.7826 23.2703 50.7826C23.2012 49.9523 22.764 49.5259 21.9355 49.5035C21.9355 48.6732 21.9355 47.8429 21.9355 46.9902C22.8791 46.9004 23.3623 46.4516 23.3393 45.5989Z" stroke="#C5C6C6" stroke-width="0.244644"/>
<path fill-rule="evenodd" clip-rule="evenodd" d="M22.2562 45.6886C22.0951 45.6886 21.957 45.8008 21.957 45.9579C21.957 46.115 22.0951 46.2496 22.2562 46.2496C22.3943 46.2496 22.5323 46.115 22.5323 45.9579C22.5323 45.8008 22.3943 45.6886 22.2562 45.6886Z" fill="#C5C6C6"/>
<path fill-rule="evenodd" clip-rule="evenodd" d="M22.2562 50.2217C22.0951 50.2217 21.957 50.3339 21.957 50.491C21.957 50.648 22.0951 50.7827 22.2562 50.7827C22.3943 50.7827 22.5323 50.648 22.5323 50.491C22.5323 50.3339 22.3943 50.2217 22.2562 50.2217Z" fill="#C5C6C6"/>
<path fill-rule="evenodd" clip-rule="evenodd" d="M31.4168 45.6886C31.2557 45.6886 31.1406 45.8008 31.1406 45.9579C31.1406 46.115 31.2557 46.2496 31.4168 46.2496C31.5779 46.2496 31.6929 46.115 31.6929 45.9579C31.6929 45.8008 31.5779 45.6886 31.4168 45.6886Z" fill="#C5C6C6"/>
<path fill-rule="evenodd" clip-rule="evenodd" d="M31.4168 50.2217C31.2557 50.2217 31.1406 50.3339 31.1406 50.491C31.1406 50.648 31.2557 50.7827 31.4168 50.7827C31.5779 50.7827 31.6929 50.648 31.6929 50.491C31.6929 50.3339 31.5779 50.2217 31.4168 50.2217Z" fill="#C5C6C6"/>
<path fill-rule="evenodd" clip-rule="evenodd" d="M20.6016 52.3311H33.0052V51.8149H20.6016V52.3311Z" stroke="#2B2A29" stroke-width="0.244644"/>
<path fill-rule="evenodd" clip-rule="evenodd" d="M20.6016 52.3311H33.0052V51.8149H20.6016V52.3311Z" fill="#FEFEFE"/>
<path fill-rule="evenodd" clip-rule="evenodd" d="M19.3352 53.7671C24.3059 53.7671 29.2766 53.7671 34.2472 53.7671C34.2472 53.251 34.0401 52.5778 33.4188 52.488C29.0004 52.488 24.6051 52.488 20.1867 52.488C19.7494 52.5105 19.2892 53.1388 19.3352 53.7671Z" stroke="#2B2A29" stroke-width="0.244644"/>
<path fill-rule="evenodd" clip-rule="evenodd" d="M19.3352 53.7671C24.3059 53.7671 29.2766 53.7671 34.2472 53.7671C34.2472 53.251 34.0401 52.5778 33.4188 52.488C29.0004 52.488 24.6051 52.488 20.1867 52.488C19.7494 52.5105 19.2892 53.1388 19.3352 53.7671Z" fill="#FEFEFE"/>
<path fill-rule="evenodd" clip-rule="evenodd" d="M18.4863 54.4405H35.1703V53.902H18.4863V54.4405Z" stroke="#2B2A29" stroke-width="0.244644"/>
<path fill-rule="evenodd" clip-rule="evenodd" d="M18.4863 54.4405H35.1703V53.902H18.4863V54.4405Z" fill="#FEFEFE"/>
<path fill-rule="evenodd" clip-rule="evenodd" d="M17.6094 56.101H35.9963V54.7322H17.6094V56.101Z" stroke="#2B2A29" stroke-width="0.244644"/>
<path fill-rule="evenodd" clip-rule="evenodd" d="M17.6094 56.101H35.9963V54.7322H17.6094V56.101Z" fill="#2B2A29"/>
<path fill-rule="evenodd" clip-rule="evenodd" d="M17.8633 55.8542H35.7439V54.5751H17.8633V55.8542Z" stroke="#2B2A29" stroke-width="0.244644"/>
<path fill-rule="evenodd" clip-rule="evenodd" d="M17.8633 55.8542H35.7439V54.5751H17.8633V55.8542Z" fill="#FEFEFE"/>
</g>
<defs>
<clipPath id="clip0_807_3685">
<rect width="52.5187" height="64" fill="white"/>
</clipPath>
</defs>
</svg>
