<svg width="53" height="64" viewBox="0 0 53 64" fill="none" xmlns="http://www.w3.org/2000/svg">
<g clip-path="url(#clip0_807_3797)">
<path fill-rule="evenodd" clip-rule="evenodd" d="M50.9282 1.49273V51.6097C50.9282 54.8921 48.1188 57.5482 44.647 57.5482H35.2179C30.2685 57.5482 26.2638 60.4338 26.2638 63.9998C26.2638 60.4339 22.2591 57.5482 17.3098 57.5482H7.88096C4.4091 57.5482 1.59954 54.8922 1.59954 51.6097V1.49273H50.9282ZM52.5023 -0.00012207H50.9282H1.59954H0.0253906V1.49273V51.6097C0.0253906 53.5968 0.842836 55.464 2.32696 56.8671C3.80988 58.269 5.7823 59.0411 7.88096 59.0411H17.3098C19.3616 59.0411 21.2726 59.6037 22.6904 60.6255C23.9796 61.5544 24.6896 62.7528 24.6896 63.9999H27.8378C27.8378 62.7528 28.5478 61.5545 29.837 60.6255C31.255 59.6038 33.1659 59.0411 35.2178 59.0411H44.6467C46.7454 59.0411 48.7178 58.269 50.2006 56.8671C51.6848 55.464 52.502 53.5968 52.502 51.6097V1.49273V-0.00012207H52.5023Z" fill="black"/>
<path fill-rule="evenodd" clip-rule="evenodd" d="M25.5608 63.9999C25.5608 60.8084 21.8578 58.2118 17.3064 58.2118H7.87754C4.02817 58.2118 0.896484 55.2501 0.896484 51.6097V0.829224H51.6243V51.6097C51.6243 55.2501 48.4927 58.2118 44.6435 58.2118H35.2145C30.6629 58.2118 26.96 60.8084 26.96 63.9999H25.5608Z" fill="#0074C1"/>
<path fill-rule="evenodd" clip-rule="evenodd" d="M50.9271 1.49263V51.6096C50.9271 54.892 48.1176 57.5482 44.6458 57.5482H35.2168C30.2675 57.5482 26.2627 60.4338 26.2627 63.9998C26.2627 60.4339 22.2579 57.5482 17.3087 57.5482H7.87988C4.40796 57.5482 1.59847 54.8921 1.59847 51.6096V1.49263H50.9271ZM52.3263 0.165649H50.9271H0.199219V51.6096C0.199219 53.5524 0.998393 55.3778 2.44931 56.7496C3.89917 58.1203 5.82776 58.8752 7.87982 58.8752H17.3086C19.3984 58.8752 21.3468 59.4499 22.7952 60.4934C24.1289 61.4545 24.8634 62.6998 24.8634 63.9998H27.6619C27.6619 62.6997 28.3964 61.4545 29.7301 60.4934C31.1784 59.4499 33.1269 58.8752 35.2166 58.8752H44.6456C46.6976 58.8752 48.6262 58.1203 50.076 56.7496C51.527 55.3778 52.3261 53.5524 52.3261 51.6096L52.326 1.49263V0.165649H52.3263Z" fill="white"/>
<path d="M24.7656 63.9169H27.7553" stroke="black" stroke-width="0.166124"/>
<path fill-rule="evenodd" clip-rule="evenodd" d="M22.9789 37.3564C22.2137 36.527 22.061 35.736 21.58 35.1762C21.099 34.6164 20.0052 34.217 20.0052 33.8231C20.0052 33.4291 21.2849 33.3716 22.0412 33.5568C22.7676 33.7348 23.0843 33.9412 23.7368 34.4744C24.3697 34.9915 25.0386 35.9953 25.3729 36.3612C25.7108 36.731 26.7089 37.4466 27.1219 37.8333C27.5185 38.2048 28.105 38.9018 28.2916 38.839C28.6305 38.725 28.9402 37.2252 29.4212 36.5617C29.8425 35.9805 31.2868 35.2554 31.7678 34.82C32.2488 34.3846 33.1507 32.8416 33.4513 32.7587C33.7242 32.6834 34.3365 34.2047 33.8776 35.7185C33.6262 36.5479 31.3743 38.2488 31.1338 38.8083C30.8933 39.3678 30.961 39.7454 30.8058 40.1557C30.6254 40.6326 30.0132 40.9384 30.0843 41.1302C30.1182 41.2216 30.8933 41.2754 31.1338 41.2754C31.3743 41.2754 32.6807 41.0421 32.8351 41.1754C32.9537 41.2779 32.6098 41.991 32.1941 42.3017C31.5492 42.7836 31.8553 43.2864 31.7678 43.5144C31.6804 43.7425 30.6745 44.1402 29.822 44.1572C26.6956 44.2195 24.6275 42.013 22.9789 41.5654C21.3938 41.1351 21.4385 41.3584 20.7489 41.2803C20.0164 41.1973 20.093 41.0885 19.6339 40.9433C19.1748 40.7982 17.9941 41.0055 17.9941 40.7153C17.9941 40.425 18.5626 40.5908 19.131 40.3628C19.6995 40.1347 19.6642 39.941 20.0201 39.7338C20.3408 39.5473 20.9019 39.5956 21.208 39.72C21.5141 39.8444 22.9789 40.5442 23.5911 40.6687C24.2033 40.7931 25.6627 41.1881 25.7555 40.7775C25.843 40.3905 25.3474 39.6993 24.6405 38.8907C24.0274 38.1895 22.9789 37.3564 22.9789 37.3564Z" fill="white"/>
<path fill-rule="evenodd" clip-rule="evenodd" d="M10.977 27.4314C10.2118 26.602 10.059 25.8111 9.57804 25.2512C9.09706 24.6914 8.00323 24.292 8.00323 23.898C8.00323 23.504 9.28299 23.4465 10.0393 23.6318C10.7657 23.8098 11.0824 24.0161 11.7349 24.5493C12.3678 25.0665 13.0367 26.0703 13.3709 26.4362C13.7089 26.806 14.7069 27.5216 15.12 27.9083C15.5166 28.2798 16.103 28.9767 16.2897 28.914C16.6285 28.7999 16.9383 27.3001 17.4193 26.6367C17.8405 26.0554 19.2849 25.3304 19.7659 24.8949C20.2469 24.4595 21.1488 22.9166 21.4493 22.8336C21.7223 22.7583 22.3345 24.2797 21.8757 25.7935C21.6242 26.6228 19.3723 28.3238 19.1319 28.8833C18.8913 29.4427 18.959 29.8203 18.8039 30.2306C18.6235 30.7075 18.0113 31.0134 18.0824 31.2052C18.1163 31.2966 18.8913 31.3503 19.1319 31.3503C19.3723 31.3503 20.6787 31.117 20.8331 31.2504C20.9518 31.3528 20.6079 32.066 20.1922 32.3767C19.5473 32.8589 19.8533 33.3616 19.7659 33.5897C19.6785 33.8178 18.6726 34.2155 17.8201 34.2324C14.6936 34.2946 12.6256 32.0881 10.977 31.6406C9.39186 31.2103 9.43654 31.4336 8.7469 31.3555C8.01448 31.2725 8.09101 31.1636 7.63191 31.0185C7.17281 30.8733 5.99219 31.0807 5.99219 30.7904C5.99219 30.5001 6.56062 30.666 7.12908 30.4379C7.69752 30.2098 7.6622 30.0162 8.01819 29.809C8.33887 29.6224 8.89998 29.6707 9.20606 29.7951C9.51211 29.9196 10.977 30.6194 11.5891 30.7438C12.2013 30.8682 13.6608 31.2632 13.7536 30.8527C13.841 30.4656 13.3454 29.7745 12.6386 28.9658C12.0255 28.2645 10.977 27.4314 10.977 27.4314Z" fill="white"/>
<path fill-rule="evenodd" clip-rule="evenodd" d="M35.0336 27.4314C34.2684 26.6021 34.1156 25.8111 33.6347 25.2513C33.1537 24.6915 32.0598 24.2921 32.0598 23.8981C32.0598 23.5042 33.3397 23.4466 34.0958 23.6319C34.8223 23.8099 35.139 24.0163 35.7915 24.5494C36.4244 25.0666 37.0933 26.0705 37.4276 26.4363C37.7654 26.8061 38.7636 27.5217 39.1766 27.9085C39.5732 28.2799 40.1597 28.9769 40.3463 28.9141C40.6852 28.7999 40.9949 27.3001 41.4759 26.6367C41.8972 26.0554 43.3416 25.3304 43.8225 24.8949C44.3035 24.4595 45.2054 22.9166 45.506 22.8336C45.7789 22.7583 46.3912 24.2797 45.9323 25.7935C45.6809 26.6228 43.429 28.3238 43.1885 28.8833C42.948 29.4427 43.0157 29.8203 42.8605 30.2306C42.6801 30.7075 42.068 31.0134 42.1391 31.2052C42.1729 31.2966 42.948 31.3503 43.1885 31.3503C43.429 31.3503 44.7354 31.117 44.8898 31.2504C45.0085 31.3528 44.6645 32.066 44.2489 32.3766C43.6039 32.8588 43.91 33.3615 43.8225 33.5896C43.7351 33.8177 42.7292 34.2154 41.8767 34.2324C38.7503 34.2946 36.6822 32.0881 35.0336 31.6406C33.4485 31.2103 33.4932 31.4336 32.8035 31.3555C32.0711 31.2725 32.1477 31.1636 31.6886 31.0185C31.2294 30.8733 30.0488 31.0807 30.0488 30.7904C30.0488 30.5001 30.6173 30.666 31.1857 30.4379C31.7542 30.2098 31.7188 30.0162 32.0748 29.809C32.3955 29.6224 32.9566 29.6707 33.2627 29.7951C33.5687 29.9196 35.0336 30.6194 35.6458 30.7438C36.258 30.8682 37.7174 31.2632 37.8102 30.8527C37.8976 30.4656 37.4022 29.7745 36.6952 28.9658C36.0821 28.2645 35.0336 27.4314 35.0336 27.4314Z" fill="white"/>
<path fill-rule="evenodd" clip-rule="evenodd" d="M10.977 47.1705C10.2118 46.3411 10.059 45.5501 9.57804 44.9903C9.09706 44.4305 8.00323 44.0311 8.00323 43.6371C8.00323 43.2432 9.28299 43.1856 10.0393 43.3709C10.7657 43.5489 11.0824 43.7552 11.7349 44.2885C12.3678 44.8056 13.0367 45.8094 13.3709 46.1753C13.7089 46.5451 14.7069 47.2607 15.12 47.6474C15.5166 48.0189 16.103 48.7158 16.2897 48.6531C16.6285 48.539 16.9383 47.0393 17.4193 46.3758C17.8405 45.7946 19.2849 45.0695 19.7659 44.6341C20.2469 44.1986 21.1488 42.6557 21.4493 42.5728C21.7223 42.4974 22.3345 44.0188 21.8757 45.5326C21.6242 46.362 19.3723 48.0629 19.1319 48.6224C18.8913 49.1819 18.959 49.5595 18.8039 49.9698C18.6235 50.4467 18.0113 50.7525 18.0824 50.9443C18.1163 51.0357 18.8913 51.0894 19.1319 51.0894C19.3723 51.0894 20.6787 50.8561 20.8331 50.9895C20.9518 51.092 20.6079 51.8051 20.1922 52.1158C19.5473 52.5979 19.8533 53.1007 19.7659 53.3287C19.6785 53.5568 18.6726 53.9545 17.8201 53.9715C14.6936 54.0338 12.6256 51.8272 10.977 51.3797C9.39186 50.9494 9.43654 51.1727 8.7469 51.0946C8.01448 51.0116 8.09101 50.9027 7.63191 50.7576C7.17281 50.6125 5.99219 50.8198 5.99219 50.5295C5.99219 50.2393 6.56062 50.4051 7.12908 50.1771C7.69752 49.949 7.6622 49.7553 8.01819 49.5481C8.33887 49.3615 8.89998 49.4099 9.20606 49.5343C9.51211 49.6587 10.977 50.3585 11.5891 50.4829C12.2013 50.6073 13.6608 51.0024 13.7536 50.5918C13.841 50.2047 13.3454 49.5136 12.6386 48.705C12.0255 48.0036 10.977 47.1705 10.977 47.1705Z" fill="white"/>
<path fill-rule="evenodd" clip-rule="evenodd" d="M35.0336 47.1704C34.2684 46.3411 34.1157 45.5501 33.6348 44.9903C33.1538 44.4304 32.0598 44.0311 32.0598 43.6371C32.0598 43.2432 33.3396 43.1856 34.0959 43.3709C34.8222 43.5489 35.139 43.7552 35.7915 44.2885C36.4243 44.8056 37.0933 45.8094 37.4276 46.1753C37.7655 46.5451 38.7635 47.2607 39.1766 47.6474C39.5732 48.0189 40.1597 48.7158 40.3463 48.6531C40.6852 48.5389 40.9949 47.0392 41.4759 46.3756C41.8972 45.7944 43.3416 45.0694 43.8225 44.634C44.3035 44.1985 45.2054 42.6556 45.506 42.5726C45.7789 42.4973 46.3912 44.0187 45.9323 45.5325C45.6809 46.3619 43.429 48.0627 43.1885 48.6223C42.948 49.1818 43.0157 49.5594 42.8605 49.9696C42.6801 50.4465 42.068 50.7524 42.1391 50.9442C42.1729 51.0356 42.948 51.0893 43.1885 51.0893C43.429 51.0893 44.7354 50.856 44.8898 50.9894C45.0085 51.0918 44.6645 51.805 44.2489 52.1157C43.6039 52.5978 43.91 53.1005 43.8225 53.3286C43.7351 53.5567 42.7292 53.9544 41.8767 53.9714C38.7503 54.0337 36.6822 51.8271 35.0336 51.3796C33.4485 50.9493 33.4932 51.1726 32.8035 51.0945C32.0711 51.0115 32.1477 50.9026 31.6886 50.7575C31.2294 50.6124 30.0488 50.8197 30.0488 50.5294C30.0488 50.2391 30.6173 50.405 31.1857 50.1769C31.7542 49.9488 31.7189 49.7552 32.0748 49.548C32.3955 49.3614 32.9566 49.4098 33.2627 49.5342C33.5687 49.6586 35.0336 50.3584 35.6458 50.4828C36.258 50.6072 37.7174 51.0022 37.8102 50.5917C37.8976 50.2046 37.4021 49.5135 36.6952 48.7049C36.0821 48.0036 35.0336 47.1704 35.0336 47.1704Z" fill="white"/>
<path fill-rule="evenodd" clip-rule="evenodd" d="M1.47266 1.49268V18.9056H2.90812L4.62434 20.3736L6.52645 18.9056L8.50532 20.1744L10.473 18.7991L12.8342 20.1744L14.6092 18.9056L16.4344 20.3736L18.3199 18.9056L20.2932 20.3736L22.0785 18.9056L23.7948 20.1744L26.1668 18.4881L28.5756 20.1744L30.303 18.9056L32.128 20.3736L34.0137 18.9056L35.9868 20.3736L37.7723 18.9056L39.5509 20.1744L41.8499 18.7991L43.909 20.1744L45.7964 18.9056L47.6984 20.3736L49.4147 18.9056H50.9252V1.49268H1.47266Z" fill="white"/>
<path fill-rule="evenodd" clip-rule="evenodd" d="M13.7538 9.73121H12.0047L13.9578 8.1554L15.9401 9.73121L13.7538 11.5005L15.3862 12.7826L10.5471 16.5873L5.70813 12.7826L7.34061 11.5005L5.1543 9.73121L7.13651 8.1554L9.08969 9.73121H7.34061L8.94389 10.9753L10.5471 9.73121L12.1505 10.9753L13.7538 9.73121Z" fill="#FF3300"/>
<path fill-rule="evenodd" clip-rule="evenodd" d="M29.4451 9.73121H27.696L29.6492 8.1554L31.6314 9.73121L29.4451 11.5005L31.0776 12.7826L26.2385 16.5873L21.3995 12.7826L23.032 11.5005L20.8457 9.73121L22.8279 8.1554L24.781 9.73121H23.032L24.6353 10.9753L26.2385 9.73121L27.8419 10.9753L29.4451 9.73121Z" fill="#0074C1"/>
<path fill-rule="evenodd" clip-rule="evenodd" d="M45.1286 9.73121H43.3796L45.3328 8.1554L47.315 9.73121L45.1286 11.5005L46.7612 12.7826L41.9221 16.5873L37.083 12.7826L38.7156 11.5005L36.5293 9.73121L38.5115 8.1554L40.4647 9.73121H38.7156L40.3188 10.9753L41.9221 9.73121L43.5255 10.9753L45.1286 9.73121Z" fill="#FF3300"/>
<path fill-rule="evenodd" clip-rule="evenodd" d="M50.9263 17.6419H49.4887L47.7724 19.11L45.8703 17.6419L44.4602 18.8197L42.9585 17.6419L49.0657 12.7825L47.4333 11.5005L49.6778 9.7312L45.1888 6.10957L42.536 8.15538V7.18777L44.7223 5.44605H43.1481L41.9238 6.44132L40.6995 5.44605H39.1253L41.3116 7.18777V8.15538L38.6588 6.10957L34.1697 9.7312L36.4143 11.5005L34.7819 12.7825L40.8892 17.6419L39.4824 18.8197L37.8462 17.6419L36.0608 19.11L34.0877 17.6419L32.202 19.11L30.377 17.6419L28.9668 18.8197L27.2754 17.6419L33.3826 12.7825L31.7502 11.5005L33.9948 9.7312L29.5057 6.10957L26.8529 8.15538V7.18777L29.0391 5.44605H27.465L26.2407 6.44132L25.0164 5.44605H23.4422L25.6286 7.18777V8.15538L22.9759 6.10957L18.4866 9.7312L20.7312 11.5005L19.0988 12.7825L25.2061 17.6419L23.7886 18.8197L22.1525 17.6419L20.3671 19.11L18.3939 17.6419L16.5083 19.11L14.6831 17.6419L13.273 18.8197L11.5816 17.6419L17.6888 12.7825L16.0564 11.5005L18.301 9.7312L13.8118 6.10957L11.159 8.15538V7.18777L13.3454 5.44605H11.7712L10.5469 6.44132L9.32248 5.44605H7.74839L9.93467 7.18777V8.15538L7.28201 6.10957L2.79284 9.7312L5.03734 11.5005L3.40497 12.7825L9.51221 17.6419L8.01058 18.8197L6.60044 17.6419L4.69833 19.11L2.98208 17.6419H1.59766V1.49268H50.9262L50.9263 17.6419Z" fill="#FF3300"/>
<path fill-rule="evenodd" clip-rule="evenodd" d="M23.47 11.4797H23.153L23 11.6249V13.8884H23.47V11.4797Z" fill="white" stroke="white" stroke-width="0.0830618"/>
<path fill-rule="evenodd" clip-rule="evenodd" d="M25.3367 11.4797V15.072H25.0633L24.8091 14.8309V13.2422H23.6914V12.6841L24.9048 11.4797H25.3367Z" fill="white" stroke="white" stroke-width="0.0830618"/>
<path d="M26.6822 14.0741C27.2618 14.0741 27.7317 13.7017 27.7317 13.2422C27.7317 12.7827 27.2618 12.4103 26.6822 12.4103C26.1027 12.4103 25.6328 12.7827 25.6328 13.2422C25.6328 13.7017 26.1027 14.0741 26.6822 14.0741Z" fill="white" stroke="white" stroke-width="0.0830618"/>
<path fill-rule="evenodd" clip-rule="evenodd" d="M25.6309 13.2423C25.6309 11.9734 26.1006 11.5074 27.3799 11.5074V11.8599C26.7068 11.8599 26.3316 12.0739 26.3316 12.4577L25.6309 13.2423Z" fill="white"/>
<path d="M25.6309 13.2423C25.6309 11.9734 26.1006 11.5074 27.3799 11.5074V11.8599C26.7068 11.8599 26.3316 12.0739 26.3316 12.4577" stroke="white" stroke-width="0.0830618"/>
<path d="M28.6041 13.1436C29.1837 13.1436 29.6535 12.7711 29.6535 12.3117C29.6535 11.8522 29.1837 11.4797 28.6041 11.4797C28.0245 11.4797 27.5547 11.8522 27.5547 12.3117C27.5547 12.7711 28.0245 13.1436 28.6041 13.1436Z" fill="white" stroke="white" stroke-width="0.0830618"/>
<path fill-rule="evenodd" clip-rule="evenodd" d="M29.6533 12.3116C29.6533 13.5805 29.1835 14.0465 27.9043 14.0465V13.694C28.5774 13.694 28.9526 13.48 28.9526 13.0962L29.6533 12.3116Z" fill="white"/>
<path d="M29.6533 12.3116C29.6533 13.5805 29.1835 14.0465 27.9043 14.0465V13.694C28.5774 13.694 28.9526 13.48 28.9526 13.0962" stroke="white" stroke-width="0.0830618"/>
<path fill-rule="evenodd" clip-rule="evenodd" d="M24.248 12.8828H24.8068V12.1364L24.248 12.6841V12.8828Z" fill="#0074C1"/>
<path d="M26.6817 13.6361C26.9514 13.6361 27.17 13.4598 27.17 13.2422C27.17 13.0246 26.9514 12.8483 26.6817 12.8483C26.412 12.8483 26.1934 13.0246 26.1934 13.2422C26.1934 13.4598 26.412 13.6361 26.6817 13.6361Z" fill="#0074C1"/>
<path d="M28.6055 12.7056C28.8752 12.7056 29.0938 12.5292 29.0938 12.3117C29.0938 12.0941 28.8752 11.9177 28.6055 11.9177C28.3358 11.9177 28.1172 12.0941 28.1172 12.3117C28.1172 12.5292 28.3358 12.7056 28.6055 12.7056Z" fill="#0074C1"/>
</g>
<defs>
<clipPath id="clip0_807_3797">
<rect width="52.5187" height="64" fill="white"/>
</clipPath>
</defs>
</svg>
