<svg width="53" height="64" viewBox="0 0 53 64" fill="none" xmlns="http://www.w3.org/2000/svg">
<g clip-path="url(#clip0_807_2662)">
<path fill-rule="evenodd" clip-rule="evenodd" d="M52.5211 0.265503H26.2617V63.9999C27.3929 61.5704 28.4718 59.1092 32.0388 58.1576H46.744C49.2285 57.7655 51.8618 55.3098 52.5211 52.3153V0.265503Z" fill="#3598D4"/>
<path fill-rule="evenodd" clip-rule="evenodd" d="M0.00195312 0.265503H26.2613V63.9999C25.1301 61.5704 24.0512 59.1092 20.4842 58.1576H5.77901C3.29451 57.7655 0.661259 55.3098 0.00195312 52.3153V0.265503Z" fill="white"/>
<path fill-rule="evenodd" clip-rule="evenodd" d="M16.1229 43.2862C16.1229 43.7831 15.7246 44.1859 15.2333 44.1859C14.742 44.1859 14.3438 43.7831 14.3438 43.2862C14.3438 42.7894 14.742 42.3866 15.2333 42.3866C15.7246 42.3866 16.1229 42.7894 16.1229 43.2862Z" fill="#EA1D28"/>
<path fill-rule="evenodd" clip-rule="evenodd" d="M23.0409 44.3502C23.0409 44.8471 22.6426 45.2498 22.1513 45.2498C21.66 45.2498 21.2617 44.8471 21.2617 44.3502C21.2617 43.8533 21.66 43.4506 22.1513 43.4506C22.6426 43.4506 23.0409 43.8533 23.0409 44.3502Z" fill="#EA1D28"/>
<path fill-rule="evenodd" clip-rule="evenodd" d="M18.2987 44.6854C18.2987 45.1823 17.9004 45.585 17.4091 45.585C16.9178 45.585 16.5195 45.1823 16.5195 44.6854C16.5195 44.1885 16.9178 43.7858 17.4091 43.7858C17.9004 43.7858 18.2987 44.1885 18.2987 44.6854Z" fill="#EA1D28"/>
<path fill-rule="evenodd" clip-rule="evenodd" d="M20.5878 43.0759C20.5878 43.5728 20.1895 43.9755 19.6982 43.9755C19.2069 43.9755 18.8086 43.5728 18.8086 43.0759C18.8086 42.5791 19.2069 42.1763 19.6982 42.1763C20.1895 42.1763 20.5878 42.5791 20.5878 43.0759Z" fill="#EA1D28"/>
<path fill-rule="evenodd" clip-rule="evenodd" d="M18.2225 41.8353C18.2225 42.3322 17.8243 42.7349 17.3329 42.7349C16.8416 42.7349 16.4434 42.3322 16.4434 41.8353C16.4434 41.3384 16.8416 40.9357 17.3329 40.9357C17.8243 40.9357 18.2225 41.3384 18.2225 41.8353Z" fill="#EA1D28"/>
<path fill-rule="evenodd" clip-rule="evenodd" d="M20.6542 48.7093C20.6542 49.2062 20.2559 49.609 19.7646 49.609C19.2733 49.609 18.875 49.2062 18.875 48.7093C18.875 48.2125 19.2733 47.8097 19.7646 47.8097C20.2559 47.8097 20.6542 48.2125 20.6542 48.7093Z" fill="#EA1D28"/>
<path fill-rule="evenodd" clip-rule="evenodd" d="M23.0057 49.9501C23.0057 50.4469 22.6075 50.8497 22.1162 50.8497C21.6248 50.8497 21.2266 50.4469 21.2266 49.9501C21.2266 49.4532 21.6248 49.0504 22.1162 49.0504C22.6075 49.0504 23.0057 49.4532 23.0057 49.9501Z" fill="#EA1D28"/>
<path fill-rule="evenodd" clip-rule="evenodd" d="M23.0057 47.1333C23.0057 47.6301 22.6075 48.0329 22.1162 48.0329C21.6248 48.0329 21.2266 47.6301 21.2266 47.1333C21.2266 46.6364 21.6248 46.2336 22.1162 46.2336C22.6075 46.2336 23.0057 46.6364 23.0057 47.1333Z" fill="#EA1D28"/>
<path fill-rule="evenodd" clip-rule="evenodd" d="M20.5878 45.9598C20.5878 46.4567 20.1895 46.8595 19.6982 46.8595C19.2069 46.8595 18.8086 46.4567 18.8086 45.9598C18.8086 45.463 19.2069 45.0602 19.6982 45.0602C20.1895 45.0602 20.5878 45.463 20.5878 45.9598Z" fill="#EA1D28"/>
<path fill-rule="evenodd" clip-rule="evenodd" d="M18.2987 47.5022C18.2987 47.999 17.9004 48.4018 17.4091 48.4018C16.9178 48.4018 16.5195 47.999 16.5195 47.5022C16.5195 47.0053 16.9178 46.6025 17.4091 46.6025C17.9004 46.6025 18.2987 47.0053 18.2987 47.5022Z" fill="#EA1D28"/>
<path fill-rule="evenodd" clip-rule="evenodd" d="M35.756 43.2667C35.756 43.7636 36.1543 44.1663 36.6456 44.1663C37.1369 44.1663 37.5352 43.7636 37.5352 43.2667C37.5352 42.7698 37.1369 42.3671 36.6456 42.3671C36.1543 42.3671 35.756 42.7698 35.756 43.2667Z" fill="#EA1D28"/>
<path fill-rule="evenodd" clip-rule="evenodd" d="M28.8361 44.3305C28.8361 44.8274 29.2343 45.2302 29.7256 45.2302C30.217 45.2302 30.6152 44.8274 30.6152 44.3305C30.6152 43.8337 30.217 43.4309 29.7256 43.4309C29.2343 43.4309 28.8361 43.8337 28.8361 44.3305Z" fill="#EA1D28"/>
<path fill-rule="evenodd" clip-rule="evenodd" d="M33.5763 44.6659C33.5763 45.1627 33.9746 45.5655 34.4659 45.5655C34.9572 45.5655 35.3555 45.1627 35.3555 44.6659C35.3555 44.169 34.9572 43.7662 34.4659 43.7662C33.9746 43.7662 33.5763 44.169 33.5763 44.6659Z" fill="#EA1D28"/>
<path fill-rule="evenodd" clip-rule="evenodd" d="M31.2911 43.0564C31.2911 43.5532 31.6894 43.956 32.1807 43.956C32.672 43.956 33.0703 43.5532 33.0703 43.0564C33.0703 42.5595 32.672 42.1567 32.1807 42.1567C31.6894 42.1567 31.2911 42.5595 31.2911 43.0564Z" fill="#EA1D28"/>
<path fill-rule="evenodd" clip-rule="evenodd" d="M33.5763 41.8158C33.5763 42.3126 33.9746 42.7154 34.4659 42.7154C34.9572 42.7154 35.3555 42.3126 35.3555 41.8158C35.3555 41.3189 34.9572 40.9161 34.4659 40.9161C33.9746 40.9161 33.5763 41.3189 33.5763 41.8158Z" fill="#EA1D28"/>
<path fill-rule="evenodd" clip-rule="evenodd" d="M31.2228 48.6898C31.2228 49.1867 31.6211 49.5894 32.1124 49.5894C32.6037 49.5894 33.002 49.1867 33.002 48.6898C33.002 48.1929 32.6037 47.7902 32.1124 47.7902C31.6211 47.7902 31.2228 48.1929 31.2228 48.6898Z" fill="#EA1D28"/>
<path fill-rule="evenodd" clip-rule="evenodd" d="M28.8712 49.9305C28.8712 50.4274 29.2695 50.8302 29.7608 50.8302C30.2521 50.8302 30.6504 50.4274 30.6504 49.9305C30.6504 49.4337 30.2521 49.0309 29.7608 49.0309C29.2695 49.0309 28.8712 49.4337 28.8712 49.9305Z" fill="#EA1D28"/>
<path fill-rule="evenodd" clip-rule="evenodd" d="M28.8712 47.1138C28.8712 47.6106 29.2695 48.0134 29.7608 48.0134C30.2521 48.0134 30.6504 47.6106 30.6504 47.1138C30.6504 46.6169 30.2521 46.2141 29.7608 46.2141C29.2695 46.2141 28.8712 46.6169 28.8712 47.1138Z" fill="#EA1D28"/>
<path fill-rule="evenodd" clip-rule="evenodd" d="M31.2911 45.9402C31.2911 46.437 31.6894 46.8398 32.1807 46.8398C32.672 46.8398 33.0703 46.437 33.0703 45.9402C33.0703 45.4433 32.672 45.0405 32.1807 45.0405C31.6894 45.0405 31.2911 45.4433 31.2911 45.9402Z" fill="#EA1D28"/>
<path fill-rule="evenodd" clip-rule="evenodd" d="M33.5763 47.4826C33.5763 47.9795 33.9746 48.3823 34.4659 48.3823C34.9572 48.3823 35.3555 47.9795 35.3555 47.4826C35.3555 46.9858 34.9572 46.583 34.4659 46.583C33.9746 46.583 33.5763 46.9858 33.5763 47.4826Z" fill="#EA1D28"/>
<path fill-rule="evenodd" clip-rule="evenodd" d="M31.169 38.3814L31.2021 39.7227C29.0281 37.2967 27.0794 34.7742 23.3438 33.0163C23.4666 33.0163 22.3559 35.1966 21.5865 36.0342C20.6203 37.0859 17.8154 37.521 17.8065 37.4761C17.8065 37.4761 18.9606 35.4501 19.6634 34.76C20.463 33.9746 22.7801 32.7145 22.7801 32.7145C22.2222 32.2655 21.5356 31.8598 20.7907 31.4738C20.7907 31.4738 18.7697 33.4515 17.6739 33.8881C16.2419 34.4588 12.5677 34.3911 12.5677 34.3911C12.5677 34.3911 14.6715 31.9885 15.8834 31.4738C17.0087 30.996 19.9869 31.1246 19.9869 31.1246L16.6621 27.9032C16.6621 27.9032 15.3692 30.0481 14.6566 30.5349C13.6608 31.2153 10.8766 31.8762 10.8766 31.8762C10.8766 31.8762 12.1625 29.3327 12.8661 28.6571C13.6631 27.8918 15.8502 27.3829 15.8502 27.3829L14.1592 26.0081C14.3172 25.9442 13.3752 27.6624 12.2692 28.2883C11.3449 28.8113 8.68824 29.3949 8.68824 29.3949C8.68824 29.3949 9.97281 27.2843 10.7108 26.7123C11.5399 26.0698 13.7282 25.6393 13.7282 25.6393L12.2029 24.365C12.2029 24.365 11.1158 25.851 10.5119 26.3434C9.46937 27.1936 6.45883 27.2681 6.43354 27.1147C6.43354 27.1147 7.77994 25.1022 8.58877 24.5998C9.49638 24.036 11.8714 23.8956 11.8714 23.8956L11.6393 23.4597C11.7419 23.5462 8.81939 23.3937 7.22932 22.3531C6.42542 21.8271 4.97461 20.0059 4.97461 20.0059C4.98074 19.9935 8.121 19.8329 9.21876 20.5089C10.1155 21.0611 11.8382 22.8561 11.8382 22.8561C11.8382 22.8561 11.3202 20.6659 11.4072 19.8718C11.5086 18.9449 12.5677 17.3904 12.5677 17.3904C12.5677 17.3904 13.8727 19.5235 13.8276 20.5424C13.7877 21.4458 12.4682 23.225 12.4682 23.225L12.5677 23.795L13.8276 24.9686C13.8276 24.9686 13.7008 23.1272 13.8276 22.3531C13.9839 21.399 14.8555 19.3017 14.8555 19.3017C14.8555 19.3017 16.019 21.502 15.9497 22.5208C15.8847 23.4768 14.5239 25.371 14.5239 25.371L16.215 26.8799C16.215 26.8799 16.048 24.9475 16.1818 24.1639C16.3628 23.1041 17.2429 20.7436 17.2429 20.7436C17.2429 20.7436 18.1533 22.743 18.1381 23.6273C18.1181 24.7929 16.8118 27.1482 16.8118 27.1482L20.227 30.3002C20.227 30.3002 19.4955 27.8502 19.2655 26.7794C19.011 25.5947 18.6686 22.5208 18.6686 22.5208C18.6686 22.5208 20.648 24.0318 21.1886 25.3039C21.4059 25.8153 21.8291 27.767 21.7854 28.3218C21.7257 29.0808 21.1223 30.8032 21.1223 30.8032L22.8796 31.9098C22.8796 31.9098 22.8581 30.5949 22.8133 30.099C22.643 28.2151 23.9859 26.0326 24.1064 26.2764C24.1779 26.2764 25.0194 28.1466 24.9354 29.026C24.8135 30.3016 23.7724 32.5083 23.7086 32.3792C27.2449 34.2101 29.1453 36.3058 31.169 38.3814Z" fill="#24B34B"/>
<path fill-rule="evenodd" clip-rule="evenodd" d="M21.207 38.2808L21.1738 39.6221C23.3478 37.1961 25.2965 34.6736 29.0321 32.9157C28.9094 32.9157 30.02 35.096 30.7895 35.9336C31.7556 36.9853 34.5605 37.4205 34.5694 37.3755C34.5694 37.3755 33.4153 35.3495 32.7126 34.6594C31.913 33.8741 29.5958 32.6139 29.5958 32.6139C30.1538 32.1649 30.8404 31.7593 31.5853 31.3733C31.5853 31.3733 33.6063 33.3509 34.7021 33.7876C36.134 34.3582 39.8083 34.2905 39.8083 34.2905C39.8083 34.2905 37.7044 31.8879 36.4926 31.3733C35.3673 30.8954 32.3891 31.024 32.3891 31.024L35.7138 27.8026C35.7138 27.8026 37.0068 29.9475 37.7194 30.4344C38.7152 31.1147 41.4993 31.7756 41.4993 31.7756C41.4993 31.7756 40.2134 29.2321 39.5099 28.5566C38.7128 27.7912 36.5257 27.2823 36.5257 27.2823L38.2167 25.9075C38.0588 25.8436 39.0007 27.5619 40.1067 28.1877C41.031 28.7108 43.6877 29.2943 43.6877 29.2943C43.6877 29.2943 42.4032 27.1837 41.6651 26.6117C40.8361 25.9692 38.6478 25.5387 38.6478 25.5387L40.173 24.2645C40.173 24.2645 41.2602 25.7504 41.8641 26.2429C42.9066 27.093 45.9171 27.1675 45.9424 27.0141C45.9424 27.0141 44.596 25.0016 43.7872 24.4992C42.8796 23.9354 40.5046 23.795 40.5046 23.795L40.7367 23.3591C40.6341 23.4456 43.5566 23.2931 45.1467 22.2525C45.9506 21.7265 47.4014 19.9053 47.4014 19.9053C47.3952 19.8929 44.255 19.7323 43.1572 20.4083C42.2604 20.9605 40.5378 22.7555 40.5378 22.7555C40.5378 22.7555 41.0558 20.5653 40.9688 19.7712C40.8673 18.8443 39.8083 17.2898 39.8083 17.2898C39.8083 17.2898 38.5032 19.4229 38.5483 20.4418C38.5883 21.3452 39.9078 23.1244 39.9078 23.1244L39.8083 23.6944L38.5483 24.868C38.5483 24.868 38.6751 23.0266 38.5483 22.2525C38.392 21.2985 37.5204 19.2011 37.5204 19.2011C37.5204 19.2011 36.357 21.4014 36.4262 22.4202C36.4912 23.3762 37.852 25.2704 37.852 25.2704L36.161 26.7794C36.161 26.7794 36.3279 24.847 36.1941 24.0633C36.0132 23.0036 35.1331 20.643 35.1331 20.643C35.1331 20.643 34.2227 22.6425 34.2379 23.5268C34.2579 24.6923 35.5642 27.0476 35.5642 27.0476L32.1489 30.1996C32.1489 30.1996 32.8805 27.7496 33.1105 26.6788C33.365 25.4941 33.7073 22.4202 33.7073 22.4202C33.7073 22.4202 31.728 23.9312 31.1874 25.2034C30.9701 25.7147 30.5469 27.6664 30.5905 28.2212C30.6502 28.9803 31.2537 30.7026 31.2537 30.7026L29.4963 31.8092C29.4963 31.8092 29.5178 30.4943 29.5627 29.9984C29.733 28.1145 28.39 25.932 28.2695 26.1758C28.1981 26.1758 27.3565 28.046 27.4406 28.9254C27.5625 30.2011 28.6036 32.4077 28.6674 32.2786C25.1311 34.1095 23.2307 36.2052 21.207 38.2808Z" fill="#24B34B"/>
<path fill-rule="evenodd" clip-rule="evenodd" d="M6.58432 49.4603L20.3246 21.5868C20.9823 20.6403 21.7245 19.7504 23.126 19.3032C19.736 18.0145 18.649 16.6077 18.5985 15.1587C18.4962 12.2257 21.0512 10.7204 21.9921 8.08666L22.3256 6.40754H23.3261L23.3928 8.62398C22.8972 10.2162 21.3105 11.3773 21.3918 13.7957C21.4588 15.7883 23.8976 17.6142 25.5272 17.7584L25.3938 13.4599L22.9926 13.8628C24.4178 10.7871 25.5885 7.41236 26.2609 3.45227L26.2609 55.1693L25.3938 55.2365V54.0947L24.0598 54.7663L24.1265 43.8184L25.5939 42.5423L25.5272 21.5196C24.6618 21.6094 23.8137 21.6421 22.459 23.3331L7.38473 50.2663C6.86913 50.4987 6.47654 50.4834 6.58432 49.4603Z" fill="#3598D4"/>
<path fill-rule="evenodd" clip-rule="evenodd" d="M45.9383 49.4603L32.198 21.5868C31.5404 20.6403 30.7982 19.7504 29.3966 19.3032C32.7866 18.0145 33.8736 16.6077 33.9242 15.1587C34.0264 12.2257 31.4715 10.7204 30.5305 8.08666L30.197 6.40754H29.1965L29.1298 8.62397C29.6254 10.2162 31.2121 11.3773 31.1308 13.7957C31.0639 15.7883 28.625 17.6142 26.9954 17.7584L27.1288 13.4599L29.53 13.8628C28.1048 10.7871 26.9341 7.41236 26.2617 3.45227V55.1693L27.1288 55.2365V54.0947L28.4628 54.7663L28.3961 43.8184L26.9287 42.5423L26.9954 21.5196C27.8609 21.6094 28.7089 21.6421 30.0636 23.3331L45.1379 50.2663C45.6535 50.4987 46.0461 50.4834 45.9383 49.4603Z" fill="white"/>
</g>
<defs>
<clipPath id="clip0_807_2662">
<rect width="52.5187" height="64" fill="white"/>
</clipPath>
</defs>
</svg>
