<svg width="54" height="66" viewBox="0 0 54 66" fill="none" xmlns="http://www.w3.org/2000/svg">
<path d="M27.3261 56.7284C27.3261 52.1797 31.5737 51.6003 31.5737 51.6003H41.5966C41.5966 51.6003 44.9298 50.8615 44.9298 45.9652V1H27.3261H9.69922V45.9507C9.69922 50.847 13.0325 51.5858 13.0325 51.5858H23.0554C23.067 51.6003 27.3261 52.1797 27.3261 56.7284Z" fill="white" stroke="black" stroke-width="0.289724" stroke-miterlimit="10"/>
<path d="M4.22527 10.2712C4.22527 10.2712 4.80396 10.3436 8.88951 7.60571C8.88951 7.60571 7.02613 9.31509 8.38026 16.0657C8.38026 16.0657 10.0469 24.8733 8.10249 25.5541C8.10249 25.5541 4.89655 27.5387 4.71137 27.6546C4.71137 27.6546 4.76924 19.2816 4.27157 18.0647C4.22527 18.0647 2.77855 13.1684 4.22527 10.2712Z" fill="#CD201A" stroke="black" stroke-width="0.0507017" stroke-miterlimit="10"/>
<path d="M4.3185 10.2857C4.3185 10.2857 3.51991 11.4301 3.6588 14.4142C3.6588 14.4142 3.68195 16.0656 4.39952 18.5283C4.39952 18.5283 4.631 20.5853 4.60785 21.5994L4.95506 21.3241C4.95506 21.3241 5.16339 20.9475 4.72359 18.3255C4.72359 18.3255 4.37637 16.9348 4.11018 14.3708C4.11018 14.3708 3.89027 11.8067 4.76988 10.1118L4.3185 10.2857Z" fill="#FCF43A"/>
<path d="M8.75039 7.72168C8.75039 7.72168 7.18793 9.35862 8.20642 15.3124C8.20642 15.3124 8.97029 18.8471 9.00501 22.4976C9.00501 22.4976 9.13232 25.4528 7.83606 25.6121L6.91016 25.6411C6.91016 25.6411 10.0698 26.1771 7.60458 15.3559C7.60458 15.3559 6.58609 10.4161 8.02124 8.19972L8.75039 7.72168Z" fill="#FCF43A"/>
<path d="M1.91091 29.4509L8.04502 25.5396C8.04502 25.5396 6.54043 26.3074 6.89922 23.4101C6.89922 23.4101 7.31587 20.9765 5.68397 20.8895C5.52193 20.8751 5.3136 20.933 5.18629 21.0199C3.98262 21.947 1.41323 24.0475 1.35537 24.1634C1.34379 24.1779 0.522054 25.8004 1.91091 29.4509Z" fill="#B71515"/>
<path d="M4.95363 21.3965C4.95363 21.3965 5.90268 20.7881 6.40035 21.7442C6.40035 21.7442 6.65498 22.483 6.49295 23.4101C6.49295 23.4101 6.12258 25.4092 7.32626 25.9741L7.85865 25.6265C7.85865 25.6265 6.53924 26.0466 6.87488 23.3666C6.87488 23.3666 7.16423 21.5848 6.26147 21.0633C6.26147 21.0633 5.46288 20.5273 4.83789 21.2951L4.95363 21.3965Z" fill="#FCF43A"/>
<path d="M5.19772 21.0344C4.85051 23.3522 5.05884 25.6265 6.12363 26.8579C7.18842 28.0892 8.64672 32.8117 8.11432 37.9398C7.58193 43.0824 8.05645 48.1091 8.68144 49.239C9.30642 50.369 11.0541 51.8321 12.1304 51.8321H17.8132C17.8132 51.8321 19.1904 52.2667 18.658 53.4545L18.1257 58.6116H13.6466C13.6466 58.6116 5.24402 58.4668 3.751 49.862C3.751 49.862 3.05657 46.2404 3.80887 34.8398C3.80887 34.8398 3.94776 34.0575 1.73716 29.2046C1.73716 29.2046 0.15155 25.4527 1.65614 23.7723L5.19772 21.0344Z" fill="#CD201A" stroke="black" stroke-width="0.0507017" stroke-miterlimit="10"/>
<path d="M18.7739 53.0054C18.7739 53.0054 18.6234 54.9176 16.1119 53.6283C16.1119 53.6283 14.7693 52.6867 14.0633 54.1208C14.0633 54.1208 13.2763 60.5382 13.3689 61.0452C13.3689 61.0452 16.5401 62.7256 18.01 61.5377C17.9984 61.5233 19.0053 53.9904 18.7739 53.0054Z" fill="#B71515"/>
<path d="M14.041 54.3962C14.041 54.3962 14.7239 53.4256 16.0317 54.2803C16.0317 54.2803 19.1219 55.5116 18.7631 53.1504C18.7631 53.1504 18.4969 54.9032 16.0896 53.6719C16.0896 53.6719 14.7817 52.7303 14.0642 54.1644L14.041 54.3962Z" fill="#FCF43A"/>
<path d="M1.64476 23.7868C1.64476 23.7868 0.209609 24.9892 1.62161 28.886C1.62161 28.886 1.78364 29.2626 2.23502 30.2911C2.86001 31.7108 3.51971 33.2318 3.80906 34.7239C3.80906 34.7239 3.31139 41.6628 3.48499 46.3418C3.48499 46.3418 3.50814 49.5143 4.04053 51.1657C4.04053 51.1657 5.54513 57.7859 13.3806 58.5537L13.4732 57.5542C13.4732 57.5542 3.97109 57.4383 4.23729 46.2694C4.23729 46.2694 4.00581 41.6049 4.48034 35.651C4.48034 35.651 4.97801 34.0286 2.21188 28.35C2.21188 28.35 0.996626 25.8873 2.06141 23.4247L1.64476 23.7868Z" fill="#FCF43A"/>
<path d="M5.16416 21.0923C5.16416 21.0923 4.43501 25.0325 6.18265 26.9737C6.18265 26.9737 8.04603 29.4653 8.19649 35.4336C8.19649 35.4336 8.24278 36.7519 7.98816 38.9827C7.98816 38.9827 7.65252 42.7347 8.02288 46.2114C8.02288 46.2114 8.0576 47.7469 8.59 49.1231C8.59 49.1231 9.63164 51.1222 11.7496 51.803L12.0043 51.8465H17.8143C17.8143 51.8465 19.099 52.2521 18.6708 53.3096C18.6708 53.3096 18.5319 53.7297 18.1847 53.918L17.9879 54.0049C17.9879 54.0049 19.1453 53.0344 17.768 52.6432L11.9811 52.7157C11.9811 52.7157 9.65479 52.5273 7.91872 49.5432C7.91872 49.5432 6.87708 48.196 7.30531 38.9972C7.30531 38.9972 8.23121 32.3336 5.69655 27.6545C5.69655 27.6545 3.71743 25.047 4.51602 21.5993L5.16416 21.0923Z" fill="#FCF43A"/>
<path d="M4.46736 10.2422C3.58775 12.2123 3.85395 15.1385 4.03913 15.9932" stroke="#CD201A" stroke-width="0.144862" stroke-miterlimit="10"/>
<path d="M4.04102 15.9932C4.08731 16.196 4.2262 17.4273 4.50397 18.3544" stroke="#CD201A" stroke-width="0.144862" stroke-miterlimit="10"/>
<path d="M4.75853 21.2952C4.78168 20.426 4.74696 19.383 4.50391 18.3545" stroke="#CD201A" stroke-width="0.144862" stroke-miterlimit="10"/>
<path d="M1.73746 28.1182C1.4134 27.1766 0.799984 25.6845 1.76061 23.7289" stroke="#CD201A" stroke-width="0.144862" stroke-miterlimit="10"/>
<path d="M4.09753 34.6949C3.80818 32.1887 2.67395 30.4069 1.74805 28.1036" stroke="#CD201A" stroke-width="0.144862" stroke-miterlimit="10"/>
<path d="M4.08594 34.6804C4.14381 35.1005 4.09751 35.3033 4.08594 35.4916" stroke="#CD201A" stroke-width="0.144862" stroke-miterlimit="10"/>
<path d="M4.09826 35.4917C3.76262 40.1852 3.69317 46.2694 3.92465 48.4858" stroke="#CD201A" stroke-width="0.144862" stroke-miterlimit="10"/>
<path d="M3.92383 48.4858C4.31734 51.6583 4.86131 52.8752 6.70154 54.9757" stroke="#CD201A" stroke-width="0.144862" stroke-miterlimit="10"/>
<path d="M6.66797 54.9467C8.12627 56.3518 10.0359 57.9163 13.4271 58.0757" stroke="#CD201A" stroke-width="0.144862" stroke-miterlimit="10"/>
<path d="M14.0977 54.2367C14.6416 53.4834 15.4055 53.5559 16.0421 53.9325" stroke="#CD201A" stroke-width="0.144862" stroke-miterlimit="10"/>
<path d="M16.0195 53.918C17.3042 54.425 18.4037 54.7292 18.7509 53.4399" stroke="#CD201A" stroke-width="0.144862" stroke-miterlimit="10"/>
<path d="M18.2314 53.8746C18.8795 53.0778 18.7406 52.4839 17.8379 52.1797" stroke="#CD201A" stroke-width="0.144862" stroke-miterlimit="10"/>
<path d="M17.8368 52.1653C17.8368 52.1653 15.2211 52.1653 11.9805 52.1653" stroke="#CD201A" stroke-width="0.144862" stroke-miterlimit="10"/>
<path d="M8.23047 49.2535C8.86703 50.6587 10.5452 52.0783 11.9804 52.1508" stroke="#CD201A" stroke-width="0.144862" stroke-miterlimit="10"/>
<path d="M7.59455 39.2437C7.27049 45.0381 7.69871 47.9933 8.24268 49.2681" stroke="#CD201A" stroke-width="0.144862" stroke-miterlimit="10"/>
<path d="M7.59315 39.2436C8.11397 35.5061 7.88249 31.7977 6.60938 28.7845" stroke="#CD201A" stroke-width="0.144862" stroke-miterlimit="10"/>
<path d="M6.63358 28.828C6.4484 28.4224 6.2285 27.6981 5.60352 26.8579" stroke="#CD201A" stroke-width="0.144862" stroke-miterlimit="10"/>
<path d="M4.80427 21.4111C4.31817 23.8593 5.01259 26.0612 5.61443 26.8724" stroke="#CD201A" stroke-width="0.144862" stroke-miterlimit="10"/>
<path d="M5.2207 21.1503C5.81097 20.8751 6.58641 21.1938 6.69057 22.2223" stroke="#CD201A" stroke-width="0.144862" stroke-miterlimit="10"/>
<path d="M6.70117 22.1934C6.73589 22.5555 6.77062 22.9177 6.71275 23.2219" stroke="#CD201A" stroke-width="0.144862" stroke-miterlimit="10"/>
<path d="M6.71352 23.1783C6.4126 24.7573 6.91028 25.6989 7.50054 25.8003" stroke="#CD201A" stroke-width="0.144862" stroke-miterlimit="10"/>
<path d="M8.26553 8.06934C7.23546 9.92357 7.43222 13.0091 7.82573 15.0372" stroke="#CD201A" stroke-width="0.144862" stroke-miterlimit="10"/>
<path d="M7.8125 14.9937C8.59952 18.789 8.64581 19.6003 8.7847 21.7008" stroke="#CD201A" stroke-width="0.144862" stroke-miterlimit="10"/>
<path d="M8.78687 21.6863C8.78687 23.8302 8.70585 24.9891 7.67578 25.5396" stroke="#CD201A" stroke-width="0.144862" stroke-miterlimit="10"/>
<path d="M50.2669 18.0792C49.7692 19.296 49.8271 27.669 49.8271 27.669C49.6419 27.5531 46.436 25.5685 46.436 25.5685C44.48 24.8877 46.1582 16.0801 46.1582 16.0801C47.5008 9.32949 45.6489 7.62012 45.6489 7.62012C49.7229 10.358 50.3132 10.2856 50.3132 10.2856C51.7252 13.1683 50.29 18.0647 50.2669 18.0792Z" fill="#CD201A" stroke="black" stroke-width="0.0507017" stroke-miterlimit="10"/>
<path d="M49.7325 10.1118C50.6121 11.8067 50.3922 14.3708 50.3922 14.3708C50.1376 16.9348 49.7788 18.3255 49.7788 18.3255C49.339 20.9475 49.5474 21.3241 49.5474 21.3241L49.8946 21.5994C49.8714 20.5853 50.1029 18.5283 50.1029 18.5283C50.8205 16.0656 50.8436 14.4142 50.8436 14.4142C50.9825 11.4301 50.1839 10.2857 50.1839 10.2857L49.7325 10.1118Z" fill="#FCF43A"/>
<path d="M46.4813 8.19972C47.9165 10.4161 46.898 15.3559 46.898 15.3559C44.4328 26.1771 47.5924 25.6411 47.5924 25.6411L46.6665 25.6121C45.3703 25.4383 45.4976 22.4976 45.4976 22.4976C45.5439 18.8616 46.2962 15.3124 46.2962 15.3124C47.3147 9.35862 45.7522 7.72168 45.7522 7.72168L46.4813 8.19972Z" fill="#FCF43A"/>
<path d="M53.1486 24.1634C53.0908 24.0475 50.533 21.947 49.3177 21.0199C49.1904 20.933 48.9821 20.8751 48.82 20.8895C47.1881 20.9765 47.6048 23.4101 47.6048 23.4101C47.9636 26.3074 46.459 25.5396 46.459 25.5396L52.5931 29.4509C53.982 25.8004 53.1486 24.1779 53.1486 24.1634Z" fill="#B71515"/>
<path d="M49.6633 21.2951C49.0384 20.5273 48.2398 21.0633 48.2398 21.0633C47.3254 21.5848 47.6264 23.3666 47.6264 23.3666C47.962 26.0321 46.6426 25.6265 46.6426 25.6265L47.175 25.9741C48.3787 25.4092 48.0083 23.4101 48.0083 23.4101C47.8463 22.483 48.1009 21.7442 48.1009 21.7442C48.5986 20.7881 49.5476 21.3965 49.5476 21.3965L49.6633 21.2951Z" fill="#FCF43A"/>
<path d="M52.8702 23.7723C54.3748 25.4382 52.7892 29.2046 52.7892 29.2046C50.5786 34.0575 50.7175 34.8398 50.7175 34.8398C51.4698 46.2259 50.7754 49.862 50.7754 49.862C49.2823 58.4668 40.8798 58.6116 40.8798 58.6116H36.3891L35.8567 53.4545C35.3243 52.2667 36.7016 51.8321 36.7016 51.8321H42.3844C43.4607 51.8321 45.2084 50.369 45.8333 49.239C46.4699 48.1091 46.9444 43.0679 46.4005 37.9398C45.8681 32.8117 47.3264 28.0892 48.3912 26.8579C49.4559 25.6265 49.6643 23.3667 49.3171 21.0344L52.8702 23.7723Z" fill="#CD201A" stroke="black" stroke-width="0.0507017" stroke-miterlimit="10"/>
<path d="M36.5045 61.5377C37.9628 62.7256 41.1456 61.0452 41.1456 61.0452C41.2382 60.5527 40.4511 54.1208 40.4511 54.1208C39.7451 52.6867 38.4026 53.6283 38.4026 53.6283C35.8911 54.9176 35.7406 53.0054 35.7406 53.0054C35.4976 53.9904 36.5161 61.5233 36.5045 61.5377Z" fill="#B71515"/>
<path d="M27.2576 65.0001C32.7783 65.0001 35.3593 64.2758 35.3593 64.2758C39.1323 63.7687 41.1577 61.0743 41.1577 61.0743C41.2388 57.2355 40.4633 54.1499 40.4633 54.1499C40.4633 54.1499 41.2735 56.3808 34.7922 57.7715C34.7922 57.7715 30.7645 58.206 27.2576 58.206C23.7508 58.206 19.7231 57.7715 19.7231 57.7715C13.2418 56.3663 14.0519 54.1499 14.0519 54.1499C14.0519 54.1499 13.2765 57.221 13.3575 61.0743C13.3575 61.0743 15.3829 63.7687 19.156 64.2758C19.1675 64.2758 21.7369 65.0001 27.2576 65.0001Z" fill="#CD201A" stroke="black" stroke-width="0.0507017" stroke-miterlimit="10"/>
<path d="M40.4408 54.1498C39.7233 52.7301 38.4154 53.6572 38.4154 53.6572C36.0081 54.8886 35.7419 53.1357 35.7419 53.1357C35.3831 55.497 38.4733 54.2657 38.4733 54.2657C39.7811 53.4255 40.464 54.3816 40.464 54.3816L40.4408 54.1498Z" fill="#FCF43A"/>
<path d="M27.2451 58.2494C23.5762 58.2494 19.6989 57.8149 19.6989 57.8149C19.6989 57.8149 14.1667 56.7863 13.9931 54.483L13.8079 55.4681C13.8079 55.4681 13.1482 57.3513 19.6411 58.6985C19.6411 58.6985 23.1132 59.191 27.2566 59.1766C31.4 59.191 34.8722 58.6985 34.8722 58.6985C41.3651 57.3513 40.7054 55.4681 40.7054 55.4681L40.5202 54.483C40.335 56.7863 34.8143 57.8149 34.8143 57.8149C34.8143 57.8149 30.9139 58.2494 27.2451 58.2494Z" fill="#FCF43A"/>
<path d="M27.246 64.2612C25.209 64.3481 22.4544 64.0295 22.4544 64.0295C21.4244 63.957 19.0864 63.3921 19.0864 63.3921C19.0864 63.3921 15.2555 62.7402 13.369 59.6401L13.3574 61.0453C13.3574 61.0453 15.4291 63.7542 19.1443 64.2323C19.1443 64.2323 19.6073 64.3626 20.4406 64.493C20.4406 64.493 23.253 64.9566 27.246 64.9566C31.2389 64.9566 34.0514 64.493 34.0514 64.493C34.8847 64.3482 35.3476 64.2323 35.3476 64.2323C39.0628 63.7542 41.1345 61.0453 41.1345 61.0453L41.123 59.6401C39.248 62.7402 35.4055 63.4065 35.4055 63.4065C35.4055 63.4065 33.0676 63.9715 32.0375 64.0439C32.0375 64.0295 29.283 64.3481 27.246 64.2612Z" fill="#FCF43A"/>
<path d="M52.443 23.4102C53.5078 25.8728 52.2926 28.3355 52.2926 28.3355C49.5264 34.0141 50.0241 35.6365 50.0241 35.6365C50.4986 41.6048 50.2671 46.2549 50.2671 46.2549C50.5333 57.4237 41.0312 57.5396 41.0312 57.5396L41.1238 58.5392C48.9593 57.7714 50.4639 51.1512 50.4639 51.1512C51.0079 49.5143 51.0194 46.3273 51.0194 46.3273C51.193 41.6338 50.6954 34.7094 50.6954 34.7094C50.9847 33.2173 51.6444 31.7108 52.2694 30.2766C52.7208 29.2481 52.8828 28.8715 52.8828 28.8715C54.2948 24.9747 52.8597 23.7723 52.8597 23.7723L52.443 23.4102Z" fill="#FCF43A"/>
<path d="M50.0117 21.5849C50.8103 25.0181 48.8311 27.6401 48.8311 27.6401C46.2849 32.3192 47.2224 38.9828 47.2224 38.9828C47.6506 48.1816 46.609 49.5288 46.609 49.5288C44.8845 52.5129 42.5466 52.7013 42.5466 52.7013L36.7597 52.6288C35.3824 53.0055 36.5398 53.9905 36.5398 53.9905L36.343 53.9036C35.9958 53.7153 35.8569 53.2952 35.8569 53.2952C35.4287 52.2377 36.7134 51.8321 36.7134 51.8321H42.5119L42.7665 51.7886C44.8845 51.1078 45.9261 49.1087 45.9261 49.1087C46.4585 47.7325 46.4932 46.1969 46.4932 46.1969C46.8752 42.7492 46.528 38.9683 46.528 38.9683C46.2733 36.723 46.3196 35.4192 46.3196 35.4192C46.4701 29.4654 48.3335 26.9593 48.3335 26.9593C50.0695 25.0326 49.352 21.0779 49.352 21.0779L50.0117 21.5849Z" fill="#FCF43A"/>
<path d="M50.0469 10.2422C50.9265 12.2123 50.6603 15.1385 50.4751 15.9932" stroke="#CD201A" stroke-width="0.144862" stroke-miterlimit="10"/>
<path d="M50.4747 15.9932C50.4284 16.196 50.2895 17.4273 50.0117 18.3544" stroke="#CD201A" stroke-width="0.144862" stroke-miterlimit="10"/>
<path d="M49.758 21.2952C49.7349 20.426 49.7696 19.383 50.0126 18.3545" stroke="#CD201A" stroke-width="0.144862" stroke-miterlimit="10"/>
<path d="M52.7653 28.1182C53.0894 27.1766 53.7028 25.6845 52.7422 23.7289" stroke="#CD201A" stroke-width="0.144862" stroke-miterlimit="10"/>
<path d="M50.416 34.6949C50.7054 32.1887 51.8396 30.4069 52.7655 28.1036" stroke="#CD201A" stroke-width="0.144862" stroke-miterlimit="10"/>
<path d="M50.4289 34.6804C50.371 35.1005 50.4173 35.3033 50.4289 35.4916" stroke="#CD201A" stroke-width="0.144862" stroke-miterlimit="10"/>
<path d="M50.416 35.4917C50.7517 40.1852 50.8211 46.2694 50.5896 48.4858" stroke="#CD201A" stroke-width="0.144862" stroke-miterlimit="10"/>
<path d="M50.5902 48.4858C50.1967 51.6583 49.6527 52.8752 47.8125 54.9757" stroke="#CD201A" stroke-width="0.144862" stroke-miterlimit="10"/>
<path d="M47.8353 54.9467C46.377 56.3518 44.4673 57.9163 41.0762 58.0757" stroke="#CD201A" stroke-width="0.144862" stroke-miterlimit="10"/>
<path d="M41.0999 60.4369C40.2781 61.422 38.8198 62.9285 36.2852 63.6673" stroke="#CD201A" stroke-width="0.144862" stroke-miterlimit="10"/>
<path d="M36.2973 63.6673C35.6491 63.8411 32.0381 64.7972 27.2466 64.6234C22.4434 64.7972 18.8556 63.8411 18.1958 63.6673H18.219C15.6843 62.9285 14.226 61.422 13.4043 60.4369" stroke="#CD201A" stroke-width="0.144862" stroke-miterlimit="10"/>
<path d="M40.5895 55.106C40.2423 56.656 38.2053 57.67 34.791 58.235" stroke="#CD201A" stroke-width="0.144862" stroke-miterlimit="10"/>
<path d="M40.4171 54.2367C39.8731 53.4834 39.1092 53.5559 38.4727 53.9325" stroke="#CD201A" stroke-width="0.144862" stroke-miterlimit="10"/>
<path d="M38.4834 53.918C37.1987 54.425 36.0992 54.7292 35.752 53.4399" stroke="#CD201A" stroke-width="0.144862" stroke-miterlimit="10"/>
<path d="M34.8162 58.235C34.2722 58.3364 31.4598 58.6985 27.2469 58.6985C23.0341 58.6985 20.2216 58.3509 19.6777 58.235H19.7008C16.2981 57.6555 14.2496 56.656 13.9023 55.106" stroke="#CD201A" stroke-width="0.144862" stroke-miterlimit="10"/>
<path d="M36.2848 53.8746C35.6366 53.0778 35.7755 52.4839 36.6783 52.1797" stroke="#CD201A" stroke-width="0.144862" stroke-miterlimit="10"/>
<path d="M36.6777 52.1653C36.6777 52.1653 39.2934 52.1653 42.5341 52.1653" stroke="#CD201A" stroke-width="0.144862" stroke-miterlimit="10"/>
<path d="M46.2733 49.2535C45.6368 50.6587 43.9586 52.0783 42.5234 52.1508" stroke="#CD201A" stroke-width="0.144862" stroke-miterlimit="10"/>
<path d="M46.9099 39.2437C47.2339 45.0381 46.8057 47.9933 46.2617 49.2681" stroke="#CD201A" stroke-width="0.144862" stroke-miterlimit="10"/>
<path d="M46.9099 39.2436C46.3891 35.5061 46.6205 31.7977 47.8937 28.7845" stroke="#CD201A" stroke-width="0.144862" stroke-miterlimit="10"/>
<path d="M47.8711 28.828C48.0563 28.4224 48.2762 27.6981 48.9012 26.8579" stroke="#CD201A" stroke-width="0.144862" stroke-miterlimit="10"/>
<path d="M49.7106 21.4111C50.1967 23.8593 49.5022 26.0612 48.9004 26.8724" stroke="#CD201A" stroke-width="0.144862" stroke-miterlimit="10"/>
<path d="M49.2824 21.1503C48.6921 20.8751 47.9167 21.1938 47.8125 22.2223" stroke="#CD201A" stroke-width="0.144862" stroke-miterlimit="10"/>
<path d="M47.8023 22.1934C47.7676 22.5555 47.7328 22.9177 47.7907 23.2219" stroke="#CD201A" stroke-width="0.144862" stroke-miterlimit="10"/>
<path d="M47.789 23.1783C48.0899 24.7573 47.5922 25.6989 47.002 25.8003" stroke="#CD201A" stroke-width="0.144862" stroke-miterlimit="10"/>
<path d="M46.2383 8.06934C47.2683 9.92357 47.0716 13.0091 46.6781 15.0372" stroke="#CD201A" stroke-width="0.144862" stroke-miterlimit="10"/>
<path d="M46.6909 14.9937C45.9039 18.789 45.8576 19.6003 45.7188 21.7008" stroke="#CD201A" stroke-width="0.144862" stroke-miterlimit="10"/>
<path d="M45.7188 21.6863C45.7188 23.8302 45.7998 24.9891 46.8298 25.5396" stroke="#CD201A" stroke-width="0.144862" stroke-miterlimit="10"/>
<path d="M23.4627 12.5455C23.4627 12.5455 21.7497 12.3717 21.1016 10.7347C21.1016 10.7347 22.2821 11.8936 23.1849 11.6908C23.1849 11.6908 21.3331 8.69217 20.0137 7.44636C20.0137 7.44636 21.6803 8.90946 21.9581 9.14124L21.5067 6.07017C21.5067 6.07017 20.766 4.76641 21.1132 3.28882C21.1132 3.28882 21.2058 5.36035 21.6109 5.37483C21.6109 5.37483 21.8886 5.201 22.1664 3.5206C22.1664 3.5206 22.1317 5.44726 21.8076 6.01222C21.8076 6.01222 22.1201 6.40335 22.9881 5.14305C22.9881 5.14305 22.4789 6.33092 21.9928 6.76551L22.0159 7.35944C22.0159 7.35944 22.5136 10.3436 23.9488 11.8212C23.9488 11.8212 24.5737 12.4151 25.7658 11.8212C25.7658 11.8212 25.4881 11.4156 25.3608 10.2567C25.3608 10.2567 25.9279 11.3576 26.3677 11.6908C26.4024 11.7198 26.4603 11.7632 26.495 11.7777C26.9232 11.9516 27.6177 12.0675 28.2311 10.7202C28.2311 10.7202 27.4672 9.31508 27.5366 7.70711C27.5366 7.70711 28.1385 10.1408 28.7172 10.3146C28.7172 10.3146 29.0297 10.7058 30.7426 7.76505C30.7426 7.76505 30.8583 5.91082 30.1176 4.94025C30.1176 4.94025 30.7773 5.89634 31.1014 6.60616C31.1014 6.60616 31.7032 6.43233 31.437 3.60752C31.437 3.60752 31.6453 5.09959 31.7842 5.92531C31.7842 5.92531 32.2703 4.9837 32.5597 3.79584C32.5597 3.79584 32.2935 8.56179 26.5529 13.038C26.5992 13.0091 23.9488 12.6469 23.4627 12.5455Z" fill="black"/>
<path d="M20.487 15.6021C20.487 15.6021 20.2092 14.8199 20.4639 14.7619C20.8227 14.6895 22.2578 14.1825 22.6976 13.5161C22.6976 13.5161 23.693 12.2413 24.399 12.3282C24.399 12.3282 25.8573 12.5021 26.2971 12.9946C26.2971 12.9946 28.2415 12.9511 28.635 12.6469C28.635 12.6469 28.9938 12.9946 28.635 13.5016C28.635 13.5016 28.1604 14.3853 26.4822 14.5591C26.4822 14.5591 26.3897 17.9778 25.9498 19.4699C25.6489 20.4984 25.3249 23.584 27.2345 24.1055C27.2345 24.1055 29.966 24.6415 31.077 24.1055C32.1765 23.5695 37.2574 22.5989 38.5074 26.7565C38.5074 26.7565 38.9356 28.0747 37.732 27.3504C37.732 27.3504 37.0375 29.9579 37.5584 31.9425C37.5584 31.9425 37.4195 34.4052 40.3708 35.651C40.3708 35.651 40.2666 40.5473 41.6208 42.3002V42.9231C41.6208 42.9231 40.6023 44.7483 40.8106 45.2988H39.6995C39.6995 45.2988 40.6949 43.1983 40.9032 42.7782C40.9032 42.7782 40.1278 39.4898 40.0236 38.244C40.0236 38.244 39.3639 36.6795 38.6695 36.4188C38.6695 36.4188 36.0075 36.0132 34.7112 34.3183C34.7112 34.3183 34.6418 36.6505 33.4265 38.4324C33.4265 38.4324 33.1025 38.7076 32.952 39.2581L32.8478 43.8502C32.8478 43.8502 31.7946 44.7773 31.7946 45.3278H30.4405C30.4405 45.3278 31.7946 43.1983 31.9335 43.1404C31.9335 43.1404 32.7437 39.0263 32.7089 38.1426C32.7089 38.1426 32.8825 37.0417 32.4312 36.3174C32.4312 36.3174 30.128 33.7968 30.0933 32.1598C30.0933 32.1598 28.0447 33.3477 25.9961 32.7538C25.9961 32.7538 26.216 33.8547 25.6721 34.6659C25.6721 34.6659 25.4522 36.8534 25.5679 37.2735C25.5679 37.2735 26.2623 38.4034 25.5563 39.345L25.4869 43.2273L25.8341 43.4011C25.8341 43.4011 25.0934 44.7483 25.0587 45.3423H23.9592C23.9592 45.3423 24.561 43.9806 24.9198 43.7343L24.8272 39.4029C24.8272 39.4029 24.1675 38.9828 24.6536 37.5052C24.6536 37.5052 24.6767 36.0132 24.3179 35.5641C24.3179 35.5641 22.5703 33.3767 22.5703 32.0005C22.5703 32.0005 19.7579 32.2033 18.3806 30.7981C18.3806 30.7981 18.4037 30.6678 16.8991 30.7692C16.8991 30.7692 16.2394 32.015 15.4756 32.7103C15.4756 32.7103 14.596 35.2019 14.7348 36.2884L14.1562 37.2155L13.0566 37.4907C13.0566 37.4907 13.8668 35.5786 14.1562 34.7384C14.1562 34.7384 15.3367 30.7112 15.7533 29.9724C15.7533 29.9724 15.9732 28.9584 17.0033 28.8715C17.0033 28.8715 19.6306 28.5238 20.0704 27.9443C20.0704 27.9443 20.3713 27.5677 20.3829 27.0462C20.3829 27.0462 19.4454 25.5252 20.7764 22.3672C20.7764 22.3672 22.3735 20.1508 23.149 17.6302C23.149 17.6302 22.7208 16.3988 22.1421 16.254C22.1421 16.254 21.4939 16.3264 20.6606 15.8194L20.487 15.6021Z" fill="#CD201A" stroke="#9B1515" stroke-width="0.144862" stroke-miterlimit="10"/>
<path d="M14.0982 37.1431L12.9987 37.4039L12.8945 38.9829L14.376 37.7805L14.2718 36.8534L14.0982 37.1431Z" fill="black"/>
<path d="M23.9135 45.2843H25.013C25.013 45.2843 25.1981 45.9941 25.1981 46.2114H23.6473C23.6241 46.2114 23.7514 45.5161 23.9135 45.2843Z" fill="black"/>
<path d="M30.395 45.2843C30.395 45.2843 29.9668 45.7913 29.9668 46.2114H31.6334C31.6334 46.2114 31.6334 45.6754 31.7492 45.2843H30.395Z" fill="black"/>
<path d="M40.7996 45.2843H39.6769C39.6769 45.2843 39.1793 45.7044 39.1445 46.2114H40.8227C40.7996 46.2114 40.8343 45.574 40.7996 45.2843Z" fill="black"/>
<path d="M24.0408 13.5305C24.0408 13.5305 23.7283 13.8202 23.2538 14.1245C23.2538 14.1245 23.1612 14.2114 23.277 14.3707C23.277 14.3707 23.7052 14.5301 24.2839 14.3707C24.2955 14.3707 24.5501 13.5885 24.0408 13.5305Z" fill="black"/>
<path d="M30.0684 32.1018C30.7744 31.392 32.5683 30.7546 33.6215 30.914" stroke="#9B1515" stroke-width="0.144862" stroke-miterlimit="10"/>
<path d="M33.623 30.5229C33.3452 31.6818 33.8545 33.145 34.711 34.2894" stroke="#9B1515" stroke-width="0.144862" stroke-miterlimit="10"/>
<path d="M22.5234 31.9426C22.5234 31.5225 22.5582 31.1748 22.6276 30.7837" stroke="#9B1515" stroke-width="0.144862" stroke-miterlimit="10"/>
<path d="M25.9745 32.7103C25.8587 32.1019 25.8356 31.9425 25.6504 31.2472" stroke="#9B1515" stroke-width="0.144862" stroke-miterlimit="10"/>
<path d="M20.6035 29.1466C20.8003 30.6821 21.5294 31.5803 22.5479 31.9424" stroke="#9B1515" stroke-width="0.144862" stroke-miterlimit="10"/>
<path d="M22.1191 16.2539C23.4848 16.703 24.0172 16.2539 24.2371 15.9932" stroke="#9B1515" stroke-width="0.144862" stroke-miterlimit="10"/>
<path d="M20.5452 29.1611C20.5452 29.1611 19.7234 30.5228 19.6309 31.4644C19.6309 31.4644 20.5915 31.8845 22.2118 31.8845C22.2002 31.8845 20.7767 31.3051 20.5452 29.1611Z" fill="#B71515"/>
<path d="M30.3013 32.9421C30.3013 32.9421 33.1137 31.9715 33.8776 32.9711C33.8776 32.9711 33.4147 31.9425 33.4957 30.9864C33.4957 30.9864 31.7365 30.8126 30.1393 32.1453C30.1277 32.1453 30.1509 32.551 30.3013 32.9421Z" fill="#B71515"/>
<path d="M22.5234 16.4424C22.5234 16.4424 23.6461 16.7176 24.2711 16.0513C24.2711 16.0513 23.9123 16.9784 23.1716 17.6303C23.1831 17.6303 22.9517 16.8915 22.5234 16.4424Z" fill="#B71515"/>
</svg>
