<svg width="53" height="64" viewBox="0 0 53 64" fill="none" xmlns="http://www.w3.org/2000/svg">
<g clip-path="url(#clip0_807_3419)">
<path fill-rule="evenodd" clip-rule="evenodd" d="M52.4747 0.0945244V53.2576C52.4747 56.0952 50.1253 58.4024 47.2361 58.4024H32.3924C29.1644 58.4024 26.5207 60.86 26.2959 63.9739H26.265C26.0401 60.86 23.3965 58.4024 20.1685 58.4024H5.32481C2.43554 58.4024 0.0859375 56.0952 0.0859375 53.2576V0.0945244H52.4747Z" fill="#F4F4F4"/>
<path fill-rule="evenodd" clip-rule="evenodd" d="M26.2802 39.9668C34.0664 39.9668 43.6704 42.9681 52.4746 42.9681V53.2576C52.4746 56.0952 50.1251 58.4024 47.2359 58.4024H32.3922C29.1643 58.4024 26.5205 60.86 26.2958 63.9739H26.2648C26.0399 60.86 23.3963 58.4024 20.168 58.4024H5.32463C2.43536 58.4024 0.0859375 56.0952 0.0859375 53.2576V42.9681C8.67834 42.9681 18.4939 39.9668 26.2802 39.9668Z" fill="#006436"/>
<path d="M5.16938 47.4686C5.19356 47.4201 5.20729 47.3656 5.20729 47.308C5.20729 47.1043 5.03798 46.9394 4.82917 46.9394C4.62046 46.9394 4.45117 47.1043 4.45117 47.308" stroke="#897B2B" stroke-width="0.225365" stroke-miterlimit="22.9256" stroke-linecap="round" stroke-linejoin="round"/>
<path d="M4.45117 47.308V48.6427" stroke="#897B2B" stroke-width="0.225365" stroke-miterlimit="22.9256" stroke-linecap="round" stroke-linejoin="round"/>
<path d="M4.45118 47.308C4.45118 47.1043 4.28206 46.9394 4.07325 46.9394C3.86454 46.9394 3.69531 47.1043 3.69531 47.308C3.69531 47.3656 3.7089 47.4201 3.73297 47.4686" stroke="#897B2B" stroke-width="0.225365" stroke-miterlimit="22.9256" stroke-linecap="round" stroke-linejoin="round"/>
<path d="M10.0211 47.4686C10.0451 47.4201 10.0588 47.3656 10.0588 47.308C10.0588 47.1043 9.88954 46.9394 9.68085 46.9394C9.47203 46.9394 9.30273 47.1043 9.30273 47.308" stroke="#897B2B" stroke-width="0.225365" stroke-miterlimit="22.9256" stroke-linecap="round" stroke-linejoin="round"/>
<path d="M9.30273 47.308V48.6427" stroke="#897B2B" stroke-width="0.225365" stroke-miterlimit="22.9256" stroke-linecap="round" stroke-linejoin="round"/>
<path d="M9.30281 47.308C9.30281 47.1043 9.13368 46.9394 8.92481 46.9394C8.71617 46.9394 8.54688 47.1043 8.54688 47.308C8.54688 47.3656 8.56052 47.4201 8.58465 47.4686" stroke="#897B2B" stroke-width="0.225365" stroke-miterlimit="22.9256" stroke-linecap="round" stroke-linejoin="round"/>
<path d="M14.8724 47.4686C14.8965 47.4201 14.9102 47.3656 14.9102 47.308C14.9102 47.1043 14.7409 46.9394 14.5322 46.9394C14.3234 46.9394 14.1543 47.1043 14.1543 47.308" stroke="#897B2B" stroke-width="0.225365" stroke-miterlimit="22.9256" stroke-linecap="round" stroke-linejoin="round"/>
<path d="M14.1543 47.308V48.6427" stroke="#897B2B" stroke-width="0.225365" stroke-miterlimit="22.9256" stroke-linecap="round" stroke-linejoin="round"/>
<path d="M14.1526 47.308C14.1526 47.1043 13.9833 46.9394 13.7745 46.9394C13.5658 46.9394 13.3965 47.1043 13.3965 47.308C13.3965 47.3656 13.41 47.4201 13.4343 47.4686" stroke="#897B2B" stroke-width="0.225365" stroke-miterlimit="22.9256" stroke-linecap="round" stroke-linejoin="round"/>
<path d="M19.7239 47.4686C19.7479 47.4201 19.7616 47.3656 19.7616 47.308C19.7616 47.1043 19.5925 46.9394 19.3837 46.9394C19.1748 46.9394 19.0059 47.1043 19.0059 47.308" stroke="#897B2B" stroke-width="0.225365" stroke-miterlimit="22.9256" stroke-linecap="round" stroke-linejoin="round"/>
<path d="M19.0059 47.308V48.6427" stroke="#897B2B" stroke-width="0.225365" stroke-miterlimit="22.9256" stroke-linecap="round" stroke-linejoin="round"/>
<path d="M19.0043 47.308C19.0043 47.1043 18.8348 46.9394 18.6262 46.9394C18.4173 46.9394 18.248 47.1043 18.248 47.308C18.248 47.3656 18.2616 47.4201 18.2861 47.4686" stroke="#897B2B" stroke-width="0.225365" stroke-miterlimit="22.9256" stroke-linecap="round" stroke-linejoin="round"/>
<path d="M24.5736 47.4686C24.5977 47.4201 24.6114 47.3656 24.6114 47.308C24.6114 47.1043 24.4423 46.9394 24.2334 46.9394C24.0246 46.9394 23.8555 47.1043 23.8555 47.308" stroke="#897B2B" stroke-width="0.225365" stroke-miterlimit="22.9256" stroke-linecap="round" stroke-linejoin="round"/>
<path d="M23.8555 47.308V48.6427" stroke="#897B2B" stroke-width="0.225365" stroke-miterlimit="22.9256" stroke-linecap="round" stroke-linejoin="round"/>
<path d="M23.8555 47.308C23.8555 47.1043 23.6862 46.9394 23.4777 46.9394C23.2687 46.9394 23.0996 47.1043 23.0996 47.308C23.0996 47.3656 23.113 47.4201 23.1373 47.4686" stroke="#897B2B" stroke-width="0.225365" stroke-miterlimit="22.9256" stroke-linecap="round" stroke-linejoin="round"/>
<path d="M29.4252 47.4686C29.4492 47.4201 29.4629 47.3656 29.4629 47.308C29.4629 47.1043 29.2937 46.9394 29.085 46.9394C28.8761 46.9394 28.707 47.1043 28.707 47.308" stroke="#897B2B" stroke-width="0.225365" stroke-miterlimit="22.9256" stroke-linecap="round" stroke-linejoin="round"/>
<path d="M28.707 47.308V48.6427" stroke="#897B2B" stroke-width="0.225365" stroke-miterlimit="22.9256" stroke-linecap="round" stroke-linejoin="round"/>
<path d="M28.7051 47.308C28.7051 47.1043 28.5359 46.9394 28.3272 46.9394C28.1183 46.9394 27.9492 47.1043 27.9492 47.308C27.9492 47.3656 27.9626 47.4201 27.987 47.4686" stroke="#897B2B" stroke-width="0.225365" stroke-miterlimit="22.9256" stroke-linecap="round" stroke-linejoin="round"/>
<path d="M34.2768 47.4686C34.3008 47.4201 34.3145 47.3656 34.3145 47.308C34.3145 47.1043 34.1455 46.9394 33.9365 46.9394C33.7279 46.9394 33.5586 47.1043 33.5586 47.308" stroke="#897B2B" stroke-width="0.225365" stroke-miterlimit="22.9256" stroke-linecap="round" stroke-linejoin="round"/>
<path d="M33.5586 47.308V48.6427" stroke="#897B2B" stroke-width="0.225365" stroke-miterlimit="22.9256" stroke-linecap="round" stroke-linejoin="round"/>
<path d="M33.5567 47.308C33.5567 47.1043 33.3874 46.9394 33.1787 46.9394C32.97 46.9394 32.8008 47.1043 32.8008 47.308C32.8008 47.3656 32.8143 47.4201 32.8385 47.4686" stroke="#897B2B" stroke-width="0.225365" stroke-miterlimit="22.9256" stroke-linecap="round" stroke-linejoin="round"/>
<path d="M39.1244 47.4686C39.1486 47.4201 39.1622 47.3656 39.1622 47.308C39.1622 47.1043 38.993 46.9394 38.7842 46.9394C38.5755 46.9394 38.4062 47.1043 38.4062 47.308" stroke="#897B2B" stroke-width="0.225365" stroke-miterlimit="22.9256" stroke-linecap="round" stroke-linejoin="round"/>
<path d="M38.4062 47.308V48.6427" stroke="#897B2B" stroke-width="0.225365" stroke-miterlimit="22.9256" stroke-linecap="round" stroke-linejoin="round"/>
<path d="M38.4082 47.308C38.4082 47.1043 38.239 46.9394 38.0303 46.9394C37.8216 46.9394 37.6523 47.1043 37.6523 47.308C37.6523 47.3656 37.6659 47.4201 37.6901 47.4686" stroke="#897B2B" stroke-width="0.225365" stroke-miterlimit="22.9256" stroke-linecap="round" stroke-linejoin="round"/>
<path d="M43.976 47.4686C44 47.4201 44.0137 47.3656 44.0137 47.308C44.0137 47.1043 43.8446 46.9394 43.6358 46.9394C43.4271 46.9394 43.2578 47.1043 43.2578 47.308" stroke="#897B2B" stroke-width="0.225365" stroke-miterlimit="22.9256" stroke-linecap="round" stroke-linejoin="round"/>
<path d="M43.2578 47.308V48.6427" stroke="#897B2B" stroke-width="0.225365" stroke-miterlimit="22.9256" stroke-linecap="round" stroke-linejoin="round"/>
<path d="M43.2579 47.308C43.2579 47.1043 43.0889 46.9394 42.8799 46.9394C42.6711 46.9394 42.502 47.1043 42.502 47.308C42.502 47.3656 42.5155 47.4201 42.5397 47.4686" stroke="#897B2B" stroke-width="0.225365" stroke-miterlimit="22.9256" stroke-linecap="round" stroke-linejoin="round"/>
<path d="M48.8275 47.4686C48.8516 47.4201 48.8653 47.3656 48.8653 47.308C48.8653 47.1043 48.6962 46.9394 48.4873 46.9394C48.2786 46.9394 48.1094 47.1043 48.1094 47.308" stroke="#897B2B" stroke-width="0.225365" stroke-miterlimit="22.9256" stroke-linecap="round" stroke-linejoin="round"/>
<path d="M48.1094 47.308V48.6427" stroke="#897B2B" stroke-width="0.225365" stroke-miterlimit="22.9256" stroke-linecap="round" stroke-linejoin="round"/>
<path d="M48.1094 47.308C48.1094 47.1043 47.9401 46.9394 47.7315 46.9394C47.5228 46.9394 47.3535 47.1043 47.3535 47.308C47.3535 47.3656 47.3671 47.4201 47.3912 47.4686" stroke="#897B2B" stroke-width="0.225365" stroke-miterlimit="22.9256" stroke-linecap="round" stroke-linejoin="round"/>
<path d="M5.16938 55.1342C5.19356 55.0856 5.20729 55.0311 5.20729 54.9735C5.20729 54.7698 5.03798 54.6049 4.82917 54.6049C4.62046 54.6049 4.45117 54.7698 4.45117 54.9735" stroke="#897B2B" stroke-width="0.225365" stroke-miterlimit="22.9256" stroke-linecap="round" stroke-linejoin="round"/>
<path d="M4.45117 54.9735V56.3082" stroke="#897B2B" stroke-width="0.225365" stroke-miterlimit="22.9256" stroke-linecap="round" stroke-linejoin="round"/>
<path d="M4.45118 54.9736C4.45118 54.7698 4.28206 54.6049 4.07325 54.6049C3.86454 54.6049 3.69531 54.7698 3.69531 54.9736C3.69531 55.0312 3.7089 55.0857 3.73297 55.1343" stroke="#897B2B" stroke-width="0.225365" stroke-miterlimit="22.9256" stroke-linecap="round" stroke-linejoin="round"/>
<path d="M10.0211 55.1343C10.0451 55.0857 10.0588 55.0312 10.0588 54.9736C10.0588 54.7698 9.88954 54.6049 9.68085 54.6049C9.47203 54.6049 9.30273 54.7698 9.30273 54.9736" stroke="#897B2B" stroke-width="0.225365" stroke-miterlimit="22.9256" stroke-linecap="round" stroke-linejoin="round"/>
<path d="M9.30273 54.9734V56.3081" stroke="#897B2B" stroke-width="0.225365" stroke-miterlimit="22.9256" stroke-linecap="round" stroke-linejoin="round"/>
<path d="M9.30281 54.9736C9.30281 54.7698 9.13368 54.6049 8.92481 54.6049C8.71617 54.6049 8.54688 54.7698 8.54688 54.9736C8.54688 55.0312 8.56052 55.0857 8.58465 55.1343" stroke="#897B2B" stroke-width="0.225365" stroke-miterlimit="22.9256" stroke-linecap="round" stroke-linejoin="round"/>
<path d="M14.8724 55.1343C14.8965 55.0857 14.9102 55.0312 14.9102 54.9736C14.9102 54.7698 14.7409 54.6049 14.5322 54.6049C14.3234 54.6049 14.1543 54.7698 14.1543 54.9736" stroke="#897B2B" stroke-width="0.225365" stroke-miterlimit="22.9256" stroke-linecap="round" stroke-linejoin="round"/>
<path d="M14.1543 54.9734V56.3081" stroke="#897B2B" stroke-width="0.225365" stroke-miterlimit="22.9256" stroke-linecap="round" stroke-linejoin="round"/>
<path d="M14.1526 54.9735C14.1526 54.7698 13.9833 54.6049 13.7745 54.6049C13.5658 54.6049 13.3965 54.7698 13.3965 54.9735C13.3965 55.0311 13.41 55.0856 13.4343 55.1342" stroke="#897B2B" stroke-width="0.225365" stroke-miterlimit="22.9256" stroke-linecap="round" stroke-linejoin="round"/>
<path d="M19.7239 55.1343C19.7479 55.0857 19.7616 55.0312 19.7616 54.9736C19.7616 54.7698 19.5925 54.6049 19.3837 54.6049C19.1748 54.6049 19.0059 54.7698 19.0059 54.9736" stroke="#897B2B" stroke-width="0.225365" stroke-miterlimit="22.9256" stroke-linecap="round" stroke-linejoin="round"/>
<path d="M19.0059 54.9734V56.3081" stroke="#897B2B" stroke-width="0.225365" stroke-miterlimit="22.9256" stroke-linecap="round" stroke-linejoin="round"/>
<path d="M19.0043 54.9736C19.0043 54.7698 18.8348 54.6049 18.6262 54.6049C18.4173 54.6049 18.248 54.7698 18.248 54.9736C18.248 55.0312 18.2616 55.0857 18.2861 55.1343" stroke="#897B2B" stroke-width="0.225365" stroke-miterlimit="22.9256" stroke-linecap="round" stroke-linejoin="round"/>
<path d="M24.5736 55.1343C24.5977 55.0857 24.6114 55.0312 24.6114 54.9736C24.6114 54.7698 24.4423 54.6049 24.2334 54.6049C24.0246 54.6049 23.8555 54.7698 23.8555 54.9736" stroke="#897B2B" stroke-width="0.225365" stroke-miterlimit="22.9256" stroke-linecap="round" stroke-linejoin="round"/>
<path d="M23.8555 54.9734V56.3081" stroke="#897B2B" stroke-width="0.225365" stroke-miterlimit="22.9256" stroke-linecap="round" stroke-linejoin="round"/>
<path d="M23.8555 54.9736C23.8555 54.7698 23.6862 54.6049 23.4777 54.6049C23.2687 54.6049 23.0996 54.7698 23.0996 54.9736C23.0996 55.0312 23.113 55.0857 23.1373 55.1343" stroke="#897B2B" stroke-width="0.225365" stroke-miterlimit="22.9256" stroke-linecap="round" stroke-linejoin="round"/>
<path d="M29.4252 55.1343C29.4492 55.0857 29.4629 55.0312 29.4629 54.9736C29.4629 54.7698 29.2937 54.6049 29.085 54.6049C28.8761 54.6049 28.707 54.7698 28.707 54.9736" stroke="#897B2B" stroke-width="0.225365" stroke-miterlimit="22.9256" stroke-linecap="round" stroke-linejoin="round"/>
<path d="M28.707 54.9734V56.3081" stroke="#897B2B" stroke-width="0.225365" stroke-miterlimit="22.9256" stroke-linecap="round" stroke-linejoin="round"/>
<path d="M28.7051 54.9735C28.7051 54.7698 28.5359 54.6049 28.3272 54.6049C28.1183 54.6049 27.9492 54.7698 27.9492 54.9735C27.9492 55.0311 27.9626 55.0856 27.987 55.1342" stroke="#897B2B" stroke-width="0.225365" stroke-miterlimit="22.9256" stroke-linecap="round" stroke-linejoin="round"/>
<path d="M34.2768 55.1343C34.3008 55.0857 34.3145 55.0312 34.3145 54.9736C34.3145 54.7698 34.1455 54.6049 33.9365 54.6049C33.7279 54.6049 33.5586 54.7698 33.5586 54.9736" stroke="#897B2B" stroke-width="0.225365" stroke-miterlimit="22.9256" stroke-linecap="round" stroke-linejoin="round"/>
<path d="M33.5586 54.9734V56.3081" stroke="#897B2B" stroke-width="0.225365" stroke-miterlimit="22.9256" stroke-linecap="round" stroke-linejoin="round"/>
<path d="M33.5567 54.9736C33.5567 54.7698 33.3874 54.6049 33.1787 54.6049C32.97 54.6049 32.8008 54.7698 32.8008 54.9736C32.8008 55.0312 32.8143 55.0857 32.8385 55.1343" stroke="#897B2B" stroke-width="0.225365" stroke-miterlimit="22.9256" stroke-linecap="round" stroke-linejoin="round"/>
<path d="M39.1244 55.1343C39.1486 55.0857 39.1622 55.0312 39.1622 54.9736C39.1622 54.7698 38.993 54.6049 38.7842 54.6049C38.5755 54.6049 38.4062 54.7698 38.4062 54.9736" stroke="#897B2B" stroke-width="0.225365" stroke-miterlimit="22.9256" stroke-linecap="round" stroke-linejoin="round"/>
<path d="M38.4062 54.9734V56.3081" stroke="#897B2B" stroke-width="0.225365" stroke-miterlimit="22.9256" stroke-linecap="round" stroke-linejoin="round"/>
<path d="M38.4082 54.9736C38.4082 54.7698 38.239 54.6049 38.0303 54.6049C37.8216 54.6049 37.6523 54.7698 37.6523 54.9736C37.6523 55.0312 37.6659 55.0857 37.6901 55.1343" stroke="#897B2B" stroke-width="0.225365" stroke-miterlimit="22.9256" stroke-linecap="round" stroke-linejoin="round"/>
<path d="M43.976 55.1343C44 55.0857 44.0137 55.0312 44.0137 54.9736C44.0137 54.7698 43.8446 54.6049 43.6358 54.6049C43.4271 54.6049 43.2578 54.7698 43.2578 54.9736" stroke="#897B2B" stroke-width="0.225365" stroke-miterlimit="22.9256" stroke-linecap="round" stroke-linejoin="round"/>
<path d="M43.2578 54.9734V56.3081" stroke="#897B2B" stroke-width="0.225365" stroke-miterlimit="22.9256" stroke-linecap="round" stroke-linejoin="round"/>
<path d="M43.2579 54.9735C43.2579 54.7698 43.0889 54.6049 42.8799 54.6049C42.6711 54.6049 42.502 54.7698 42.502 54.9735C42.502 55.0311 42.5155 55.0856 42.5397 55.1342" stroke="#897B2B" stroke-width="0.225365" stroke-miterlimit="22.9256" stroke-linecap="round" stroke-linejoin="round"/>
<path d="M48.8275 55.1343C48.8516 55.0857 48.8653 55.0312 48.8653 54.9736C48.8653 54.7698 48.6962 54.6049 48.4873 54.6049C48.2786 54.6049 48.1094 54.7698 48.1094 54.9736" stroke="#897B2B" stroke-width="0.225365" stroke-miterlimit="22.9256" stroke-linecap="round" stroke-linejoin="round"/>
<path d="M48.1094 54.9734V56.3081" stroke="#897B2B" stroke-width="0.225365" stroke-miterlimit="22.9256" stroke-linecap="round" stroke-linejoin="round"/>
<path d="M48.1094 54.9736C48.1094 54.7698 47.9401 54.6049 47.7315 54.6049C47.5228 54.6049 47.3535 54.7698 47.3535 54.9736C47.3535 55.0312 47.3671 55.0857 47.3912 55.1343" stroke="#897B2B" stroke-width="0.225365" stroke-miterlimit="22.9256" stroke-linecap="round" stroke-linejoin="round"/>
<path d="M2.98579 43.636C3.00974 43.5873 3.02351 43.5328 3.02351 43.4752C3.02351 43.2717 2.85422 43.1066 2.64557 43.1066C2.43675 43.1066 2.26758 43.2717 2.26758 43.4752" stroke="#897B2B" stroke-width="0.225365" stroke-miterlimit="22.9256" stroke-linecap="round" stroke-linejoin="round"/>
<path d="M2.26758 43.4752V44.8099" stroke="#897B2B" stroke-width="0.225365" stroke-miterlimit="22.9256" stroke-linecap="round" stroke-linejoin="round"/>
<path d="M2.26972 43.4752C2.26972 43.2717 2.10043 43.1066 1.8916 43.1066C1.68296 43.1066 1.51367 43.2717 1.51367 43.4752C1.51367 43.5328 1.52727 43.5873 1.55139 43.636" stroke="#897B2B" stroke-width="0.225365" stroke-miterlimit="22.9256" stroke-linecap="round" stroke-linejoin="round"/>
<path d="M7.79035 43.636C7.81441 43.5873 7.82813 43.5328 7.82813 43.4752C7.82813 43.2717 7.65883 43.1066 7.4502 43.1066C7.24131 43.1066 7.07227 43.2717 7.07227 43.4752" stroke="#897B2B" stroke-width="0.225365" stroke-miterlimit="22.9256" stroke-linecap="round" stroke-linejoin="round"/>
<path d="M7.07227 43.4752V44.8099" stroke="#897B2B" stroke-width="0.225365" stroke-miterlimit="22.9256" stroke-linecap="round" stroke-linejoin="round"/>
<path d="M7.07057 43.4752C7.07057 43.2717 6.90126 43.1066 6.69257 43.1066C6.48375 43.1066 6.31445 43.2717 6.31445 43.4752C6.31445 43.5328 6.32799 43.5873 6.35236 43.636" stroke="#897B2B" stroke-width="0.225365" stroke-miterlimit="22.9256" stroke-linecap="round" stroke-linejoin="round"/>
<path d="M12.5913 43.636C12.6153 43.5873 12.629 43.5328 12.629 43.4752C12.629 43.2717 12.4597 43.1066 12.251 43.1066C12.0422 43.1066 11.873 43.2717 11.873 43.4752" stroke="#897B2B" stroke-width="0.225365" stroke-miterlimit="22.9256" stroke-linecap="round" stroke-linejoin="round"/>
<path d="M11.873 43.4752V44.8099" stroke="#897B2B" stroke-width="0.225365" stroke-miterlimit="22.9256" stroke-linecap="round" stroke-linejoin="round"/>
<path d="M11.8749 43.4752C11.8749 43.2717 11.7058 43.1066 11.4971 43.1066C11.2882 43.1066 11.1191 43.2717 11.1191 43.4752C11.1191 43.5328 11.1327 43.5873 11.1569 43.636" stroke="#897B2B" stroke-width="0.225365" stroke-miterlimit="22.9256" stroke-linecap="round" stroke-linejoin="round"/>
<path d="M17.3939 43.636C17.418 43.5873 17.4317 43.5328 17.4317 43.4752C17.4317 43.2717 17.2626 43.1066 17.0537 43.1066C16.8449 43.1066 16.6758 43.2717 16.6758 43.4752" stroke="#897B2B" stroke-width="0.225365" stroke-miterlimit="22.9256" stroke-linecap="round" stroke-linejoin="round"/>
<path d="M16.6758 43.4752V44.8099" stroke="#897B2B" stroke-width="0.225365" stroke-miterlimit="22.9256" stroke-linecap="round" stroke-linejoin="round"/>
<path d="M16.676 43.4752C16.676 43.2717 16.5067 43.1066 16.2979 43.1066C16.0892 43.1066 15.9199 43.2717 15.9199 43.4752C15.9199 43.5328 15.9335 43.5873 15.9577 43.636" stroke="#897B2B" stroke-width="0.225365" stroke-miterlimit="22.9256" stroke-linecap="round" stroke-linejoin="round"/>
<path d="M22.1968 43.636C22.2207 43.5873 22.2344 43.5328 22.2344 43.4752C22.2344 43.2717 22.0652 43.1066 21.8565 43.1066C21.6476 43.1066 21.4785 43.2717 21.4785 43.4752" stroke="#897B2B" stroke-width="0.225365" stroke-miterlimit="22.9256" stroke-linecap="round" stroke-linejoin="round"/>
<path d="M21.4785 43.4752V44.8099" stroke="#897B2B" stroke-width="0.225365" stroke-miterlimit="22.9256" stroke-linecap="round" stroke-linejoin="round"/>
<path d="M21.4768 43.4752C21.4768 43.2717 21.3075 43.1066 21.0988 43.1066C20.8901 43.1066 20.7207 43.2717 20.7207 43.4752C20.7207 43.5328 20.7343 43.5873 20.7586 43.636" stroke="#897B2B" stroke-width="0.225365" stroke-miterlimit="22.9256" stroke-linecap="round" stroke-linejoin="round"/>
<path d="M26.9975 43.636C27.0215 43.5873 27.0352 43.5328 27.0352 43.4752C27.0352 43.2717 26.8661 43.1066 26.6572 43.1066C26.4486 43.1066 26.2793 43.2717 26.2793 43.4752" stroke="#897B2B" stroke-width="0.225365" stroke-miterlimit="22.9256" stroke-linecap="round" stroke-linejoin="round"/>
<path d="M26.2793 43.4752V44.8099" stroke="#897B2B" stroke-width="0.225365" stroke-miterlimit="22.9256" stroke-linecap="round" stroke-linejoin="round"/>
<path d="M26.2813 43.4752C26.2813 43.2717 26.112 43.1066 25.9033 43.1066C25.6947 43.1066 25.5254 43.2717 25.5254 43.4752C25.5254 43.5328 25.5391 43.5873 25.5631 43.636" stroke="#897B2B" stroke-width="0.225365" stroke-miterlimit="22.9256" stroke-linecap="round" stroke-linejoin="round"/>
<path d="M31.8002 43.636C31.8242 43.5873 31.8379 43.5328 31.8379 43.4752C31.8379 43.2717 31.6687 43.1066 31.46 43.1066C31.2511 43.1066 31.082 43.2717 31.082 43.4752" stroke="#897B2B" stroke-width="0.225365" stroke-miterlimit="22.9256" stroke-linecap="round" stroke-linejoin="round"/>
<path d="M31.082 43.4752V44.8099" stroke="#897B2B" stroke-width="0.225365" stroke-miterlimit="22.9256" stroke-linecap="round" stroke-linejoin="round"/>
<path d="M31.0822 43.4752C31.0822 43.2717 30.913 43.1066 30.7041 43.1066C30.4954 43.1066 30.3262 43.2717 30.3262 43.4752C30.3262 43.5328 30.3397 43.5873 30.3639 43.636" stroke="#897B2B" stroke-width="0.225365" stroke-miterlimit="22.9256" stroke-linecap="round" stroke-linejoin="round"/>
<path d="M36.6029 43.636C36.6271 43.5873 36.6407 43.5328 36.6407 43.4752C36.6407 43.2717 36.4716 43.1066 36.2627 43.1066C36.054 43.1066 35.8848 43.2717 35.8848 43.4752" stroke="#897B2B" stroke-width="0.225365" stroke-miterlimit="22.9256" stroke-linecap="round" stroke-linejoin="round"/>
<path d="M35.8848 43.4752V44.8099" stroke="#897B2B" stroke-width="0.225365" stroke-miterlimit="22.9256" stroke-linecap="round" stroke-linejoin="round"/>
<path d="M35.8848 43.4752C35.8848 43.2717 35.7157 43.1066 35.5069 43.1066C35.2982 43.1066 35.1289 43.2717 35.1289 43.4752C35.1289 43.5328 35.1425 43.5873 35.1666 43.636" stroke="#897B2B" stroke-width="0.225365" stroke-miterlimit="22.9256" stroke-linecap="round" stroke-linejoin="round"/>
<path d="M41.4057 43.636C41.4297 43.5873 41.4434 43.5328 41.4434 43.4752C41.4434 43.2717 41.2741 43.1066 41.0655 43.1066C40.8566 43.1066 40.6875 43.2717 40.6875 43.4752" stroke="#897B2B" stroke-width="0.225365" stroke-miterlimit="22.9256" stroke-linecap="round" stroke-linejoin="round"/>
<path d="M40.6875 43.4752V44.8099" stroke="#897B2B" stroke-width="0.225365" stroke-miterlimit="22.9256" stroke-linecap="round" stroke-linejoin="round"/>
<path d="M40.6875 43.4752C40.6875 43.2717 40.5183 43.1066 40.3096 43.1066C40.1007 43.1066 39.9316 43.2717 39.9316 43.4752C39.9316 43.5328 39.9452 43.5873 39.9694 43.636" stroke="#897B2B" stroke-width="0.225365" stroke-miterlimit="22.9256" stroke-linecap="round" stroke-linejoin="round"/>
<path d="M46.2066 43.636C46.2305 43.5873 46.2442 43.5328 46.2442 43.4752C46.2442 43.2717 46.0749 43.1066 45.8664 43.1066C45.6574 43.1066 45.4883 43.2717 45.4883 43.4752" stroke="#897B2B" stroke-width="0.225365" stroke-miterlimit="22.9256" stroke-linecap="round" stroke-linejoin="round"/>
<path d="M45.4883 43.4752V44.8099" stroke="#897B2B" stroke-width="0.225365" stroke-miterlimit="22.9256" stroke-linecap="round" stroke-linejoin="round"/>
<path d="M45.4885 43.4752C45.4885 43.2717 45.3192 43.1066 45.1104 43.1066C44.9017 43.1066 44.7324 43.2717 44.7324 43.4752C44.7324 43.5328 44.746 43.5873 44.7702 43.636" stroke="#897B2B" stroke-width="0.225365" stroke-miterlimit="22.9256" stroke-linecap="round" stroke-linejoin="round"/>
<path d="M51.0092 43.636C51.0334 43.5873 51.0469 43.5328 51.0469 43.4752C51.0469 43.2717 50.8778 43.1066 50.669 43.1066C50.4603 43.1066 50.291 43.2717 50.291 43.4752" stroke="#897B2B" stroke-width="0.225365" stroke-miterlimit="22.9256" stroke-linecap="round" stroke-linejoin="round"/>
<path d="M50.291 43.4752V44.8099" stroke="#897B2B" stroke-width="0.225365" stroke-miterlimit="22.9256" stroke-linecap="round" stroke-linejoin="round"/>
<path d="M50.293 43.4752C50.293 43.2717 50.1239 43.1066 49.9151 43.1066C49.7064 43.1066 49.5371 43.2717 49.5371 43.4752C49.5371 43.5328 49.5507 43.5873 49.5748 43.636" stroke="#897B2B" stroke-width="0.225365" stroke-miterlimit="22.9256" stroke-linecap="round" stroke-linejoin="round"/>
<path d="M2.98579 51.3014C3.00974 51.2528 3.02351 51.1983 3.02351 51.1407C3.02351 50.9371 2.85422 50.772 2.64557 50.772C2.43675 50.772 2.26758 50.9371 2.26758 51.1407" stroke="#897B2B" stroke-width="0.225365" stroke-miterlimit="22.9256" stroke-linecap="round" stroke-linejoin="round"/>
<path d="M2.26758 51.1408V52.4755" stroke="#897B2B" stroke-width="0.225365" stroke-miterlimit="22.9256" stroke-linecap="round" stroke-linejoin="round"/>
<path d="M2.26972 51.1407C2.26972 50.9371 2.10043 50.772 1.8916 50.772C1.68296 50.772 1.51367 50.9371 1.51367 51.1407C1.51367 51.1983 1.52727 51.2528 1.55139 51.3014" stroke="#897B2B" stroke-width="0.225365" stroke-miterlimit="22.9256" stroke-linecap="round" stroke-linejoin="round"/>
<path d="M7.79035 51.3014C7.81441 51.2528 7.82813 51.1983 7.82813 51.1407C7.82813 50.9371 7.65883 50.772 7.4502 50.772C7.24131 50.772 7.07227 50.9371 7.07227 51.1407" stroke="#897B2B" stroke-width="0.225365" stroke-miterlimit="22.9256" stroke-linecap="round" stroke-linejoin="round"/>
<path d="M7.07227 51.1408V52.4755" stroke="#897B2B" stroke-width="0.225365" stroke-miterlimit="22.9256" stroke-linecap="round" stroke-linejoin="round"/>
<path d="M7.07057 51.1407C7.07057 50.9371 6.90126 50.772 6.69257 50.772C6.48375 50.772 6.31445 50.9371 6.31445 51.1407C6.31445 51.1983 6.32799 51.2528 6.35236 51.3014" stroke="#897B2B" stroke-width="0.225365" stroke-miterlimit="22.9256" stroke-linecap="round" stroke-linejoin="round"/>
<path d="M12.5913 51.3014C12.6153 51.2528 12.629 51.1983 12.629 51.1407C12.629 50.9371 12.4597 50.772 12.251 50.772C12.0422 50.772 11.873 50.9371 11.873 51.1407" stroke="#897B2B" stroke-width="0.225365" stroke-miterlimit="22.9256" stroke-linecap="round" stroke-linejoin="round"/>
<path d="M11.873 51.1408V52.4755" stroke="#897B2B" stroke-width="0.225365" stroke-miterlimit="22.9256" stroke-linecap="round" stroke-linejoin="round"/>
<path d="M11.8749 51.1407C11.8749 50.9371 11.7058 50.772 11.4971 50.772C11.2882 50.772 11.1191 50.9371 11.1191 51.1407C11.1191 51.1983 11.1327 51.2528 11.1569 51.3014" stroke="#897B2B" stroke-width="0.225365" stroke-miterlimit="22.9256" stroke-linecap="round" stroke-linejoin="round"/>
<path d="M17.3939 51.3014C17.418 51.2528 17.4317 51.1983 17.4317 51.1407C17.4317 50.9371 17.2626 50.772 17.0537 50.772C16.8449 50.772 16.6758 50.9371 16.6758 51.1407" stroke="#897B2B" stroke-width="0.225365" stroke-miterlimit="22.9256" stroke-linecap="round" stroke-linejoin="round"/>
<path d="M16.6758 51.1408V52.4755" stroke="#897B2B" stroke-width="0.225365" stroke-miterlimit="22.9256" stroke-linecap="round" stroke-linejoin="round"/>
<path d="M16.676 51.1407C16.676 50.9371 16.5067 50.772 16.2979 50.772C16.0892 50.772 15.9199 50.9371 15.9199 51.1407C15.9199 51.1983 15.9335 51.2528 15.9577 51.3014" stroke="#897B2B" stroke-width="0.225365" stroke-miterlimit="22.9256" stroke-linecap="round" stroke-linejoin="round"/>
<path d="M22.1968 51.3014C22.2207 51.2528 22.2344 51.1983 22.2344 51.1407C22.2344 50.9371 22.0652 50.772 21.8565 50.772C21.6476 50.772 21.4785 50.9371 21.4785 51.1407" stroke="#897B2B" stroke-width="0.225365" stroke-miterlimit="22.9256" stroke-linecap="round" stroke-linejoin="round"/>
<path d="M21.4785 51.1408V52.4755" stroke="#897B2B" stroke-width="0.225365" stroke-miterlimit="22.9256" stroke-linecap="round" stroke-linejoin="round"/>
<path d="M21.4768 51.1407C21.4768 50.9371 21.3075 50.772 21.0988 50.772C20.8901 50.772 20.7207 50.9371 20.7207 51.1407C20.7207 51.1983 20.7343 51.2528 20.7586 51.3014" stroke="#897B2B" stroke-width="0.225365" stroke-miterlimit="22.9256" stroke-linecap="round" stroke-linejoin="round"/>
<path d="M26.9975 51.3014C27.0215 51.2528 27.0352 51.1983 27.0352 51.1407C27.0352 50.9371 26.8661 50.772 26.6572 50.772C26.4486 50.772 26.2793 50.9371 26.2793 51.1407" stroke="#897B2B" stroke-width="0.225365" stroke-miterlimit="22.9256" stroke-linecap="round" stroke-linejoin="round"/>
<path d="M26.2793 51.1408V52.4755" stroke="#897B2B" stroke-width="0.225365" stroke-miterlimit="22.9256" stroke-linecap="round" stroke-linejoin="round"/>
<path d="M26.2813 51.1407C26.2813 50.9371 26.112 50.772 25.9033 50.772C25.6947 50.772 25.5254 50.9371 25.5254 51.1407C25.5254 51.1983 25.5391 51.2528 25.5631 51.3014" stroke="#897B2B" stroke-width="0.225365" stroke-miterlimit="22.9256" stroke-linecap="round" stroke-linejoin="round"/>
<path d="M31.8002 51.3014C31.8242 51.2528 31.8379 51.1983 31.8379 51.1407C31.8379 50.9371 31.6687 50.772 31.46 50.772C31.2511 50.772 31.082 50.9371 31.082 51.1407" stroke="#897B2B" stroke-width="0.225365" stroke-miterlimit="22.9256" stroke-linecap="round" stroke-linejoin="round"/>
<path d="M31.082 51.1408V52.4755" stroke="#897B2B" stroke-width="0.225365" stroke-miterlimit="22.9256" stroke-linecap="round" stroke-linejoin="round"/>
<path d="M31.0822 51.1407C31.0822 50.9371 30.913 50.772 30.7041 50.772C30.4954 50.772 30.3262 50.9371 30.3262 51.1407C30.3262 51.1983 30.3397 51.2528 30.3639 51.3014" stroke="#897B2B" stroke-width="0.225365" stroke-miterlimit="22.9256" stroke-linecap="round" stroke-linejoin="round"/>
<path d="M36.6029 51.3014C36.6271 51.2528 36.6407 51.1983 36.6407 51.1407C36.6407 50.9371 36.4716 50.772 36.2627 50.772C36.054 50.772 35.8848 50.9371 35.8848 51.1407" stroke="#897B2B" stroke-width="0.225365" stroke-miterlimit="22.9256" stroke-linecap="round" stroke-linejoin="round"/>
<path d="M35.8848 51.1408V52.4755" stroke="#897B2B" stroke-width="0.225365" stroke-miterlimit="22.9256" stroke-linecap="round" stroke-linejoin="round"/>
<path d="M35.8848 51.1407C35.8848 50.9371 35.7157 50.772 35.5069 50.772C35.2982 50.772 35.1289 50.9371 35.1289 51.1407C35.1289 51.1983 35.1425 51.2528 35.1666 51.3014" stroke="#897B2B" stroke-width="0.225365" stroke-miterlimit="22.9256" stroke-linecap="round" stroke-linejoin="round"/>
<path d="M41.4057 51.3014C41.4297 51.2528 41.4434 51.1983 41.4434 51.1407C41.4434 50.9371 41.2741 50.772 41.0655 50.772C40.8566 50.772 40.6875 50.9371 40.6875 51.1407" stroke="#897B2B" stroke-width="0.225365" stroke-miterlimit="22.9256" stroke-linecap="round" stroke-linejoin="round"/>
<path d="M40.6875 51.1408V52.4755" stroke="#897B2B" stroke-width="0.225365" stroke-miterlimit="22.9256" stroke-linecap="round" stroke-linejoin="round"/>
<path d="M40.6875 51.1407C40.6875 50.9371 40.5183 50.772 40.3096 50.772C40.1007 50.772 39.9316 50.9371 39.9316 51.1407C39.9316 51.1983 39.9452 51.2528 39.9694 51.3014" stroke="#897B2B" stroke-width="0.225365" stroke-miterlimit="22.9256" stroke-linecap="round" stroke-linejoin="round"/>
<path d="M46.2066 51.3014C46.2305 51.2528 46.2442 51.1983 46.2442 51.1407C46.2442 50.9371 46.0749 50.772 45.8664 50.772C45.6574 50.772 45.4883 50.9371 45.4883 51.1407" stroke="#897B2B" stroke-width="0.225365" stroke-miterlimit="22.9256" stroke-linecap="round" stroke-linejoin="round"/>
<path d="M45.4883 51.1408V52.4755" stroke="#897B2B" stroke-width="0.225365" stroke-miterlimit="22.9256" stroke-linecap="round" stroke-linejoin="round"/>
<path d="M45.4885 51.1407C45.4885 50.9371 45.3192 50.772 45.1104 50.772C44.9017 50.772 44.7324 50.9371 44.7324 51.1407C44.7324 51.1983 44.746 51.2528 44.7702 51.3014" stroke="#897B2B" stroke-width="0.225365" stroke-miterlimit="22.9256" stroke-linecap="round" stroke-linejoin="round"/>
<path d="M51.0092 51.3014C51.0334 51.2528 51.0469 51.1983 51.0469 51.1407C51.0469 50.9371 50.8778 50.772 50.669 50.772C50.4603 50.772 50.291 50.9371 50.291 51.1407" stroke="#897B2B" stroke-width="0.225365" stroke-miterlimit="22.9256" stroke-linecap="round" stroke-linejoin="round"/>
<path d="M50.291 51.1408V52.4755" stroke="#897B2B" stroke-width="0.225365" stroke-miterlimit="22.9256" stroke-linecap="round" stroke-linejoin="round"/>
<path d="M50.293 51.1407C50.293 50.9371 50.1239 50.772 49.9151 50.772C49.7064 50.772 49.5371 50.9371 49.5371 51.1407C49.5371 51.1983 49.5507 51.2528 49.5748 51.3014" stroke="#897B2B" stroke-width="0.225365" stroke-miterlimit="22.9256" stroke-linecap="round" stroke-linejoin="round"/>
<path fill-rule="evenodd" clip-rule="evenodd" d="M11.0773 21.3993C11.0239 21.354 10.6482 20.7129 10.7736 20.4324C10.8988 20.1521 11.3515 19.9671 11.6689 19.6372C11.9865 19.3072 12.5644 18.251 12.868 17.9995C13.0381 17.8523 13.3638 17.7189 13.3638 17.7189C13.3638 17.7189 13.11 16.8911 13.8752 16.5649C14.7441 16.1755 14.7051 17.4071 15.2981 17.4071C15.5747 17.4071 15.8263 16.7305 15.9697 16.6427C16.1131 16.5552 16.4433 16.4647 16.8491 16.6427C17.7088 17.0804 17.6164 18.3895 17.6164 18.3895C17.6164 18.3895 18.6967 19.2402 19.3749 20.8068C20.0534 22.3733 19.5256 24.2619 20.2864 25.579C21.0469 26.8964 22.9832 28.776 27.0653 28.776C30.295 28.776 33.989 26.359 36.6102 26.359C37.683 26.359 38.6247 26.7644 38.6247 26.7644C38.6247 26.7644 41.3262 25.6289 41.3108 22.0079C41.1733 18.8198 38.7223 17.965 36.6103 17.4853C34.4985 17.0057 28.2568 16.7571 25.7385 15.8633C25.123 15.6635 22.7488 14.6953 22.7488 11.8866C22.7488 9.07812 24.6193 7.64474 24.6193 7.64474C24.6193 7.64474 25.7925 9.45957 28.808 9.82809C31.8236 10.1965 37.2684 11.0989 37.9852 11.2317C38.7021 11.3644 42.7627 11.9991 43.9808 13.4462C45.1987 14.8931 46.1398 17.3165 45.7073 19.4349C45.2751 21.5533 44.8978 23.0414 43.3413 25.0805C41.7847 27.1201 40.3356 27.498 40.3356 27.498C40.3356 27.498 41.8939 28.5383 42.8459 29.4943C43.7974 30.4501 45.4398 33.6287 45.7714 34.3445C46.1031 35.0602 47.9263 37.1967 48.4414 38.3837C49.1732 40.2167 48.8911 41.3864 48.8091 41.69C48.7272 41.9935 48.3577 43.1404 47.5459 43.1404C46.9309 43.1491 46.7624 42.9534 46.7624 42.9534C46.7624 42.9534 46.7862 42.7475 46.8586 42.501C46.9309 42.2545 47.5781 41.7859 47.5781 41.1444C47.5781 40.0926 46.8743 38.879 45.1638 37.4169C43.4535 35.9548 40.3036 34.5473 40.3036 34.5473C40.3036 34.5473 41.1234 36.0184 41.2948 36.2784C41.4664 36.5386 43.8867 39.8316 44.0607 41.3159C44.2052 42.3414 44.3324 43.8201 43.6769 44.4039C43.2244 44.7521 42.7136 44.5654 42.6059 44.4351C42.4981 44.3049 42.5864 44.1268 42.6376 43.9984C42.6892 43.8698 43.132 43.4362 43.1653 43.094C43.1989 42.7516 42.9126 41.6283 42.0302 40.817C41.1479 40.0056 38.8985 39.263 37.9533 38.7273C37.008 38.1912 34.927 36.7457 34.3879 36.2942C33.8489 35.8429 33.1356 34.9609 32.1037 34.9609C30.5379 34.9609 29.9511 35.1595 26.9535 36.2006C26.1297 36.4892 24.2087 37.3236 21.9972 37.3236C19.7859 37.3236 17.7764 35.7329 17.7764 35.7329C17.7764 35.7329 16.1832 37.4172 13.4116 37.4172C10.436 37.4172 9.36607 35.6393 7.68798 35.6393C6.7038 35.6393 5.95226 36.3878 5.28963 36.3878C5.09904 36.3897 4.81021 36.3026 4.81021 35.8734C4.81021 35.6441 5.60188 34.5066 6.87249 34.4541C8.14323 34.4015 9.20725 34.8625 11.6369 34.688C14.0666 34.5135 14.7546 33.1908 14.7546 33.1908C14.7546 33.1908 13.9109 33.5653 12.804 33.5653C10.2451 33.5653 7.71017 31.99 6.36081 31.99C5.51932 31.99 4.70396 32.7736 4.20269 32.7387C3.87601 32.7117 3.72688 32.6262 3.68169 32.519C3.63675 32.4118 3.61071 32.2454 3.78493 31.9245C4.12496 31.2974 5.13056 30.3754 8.10346 30.3993C9.83744 30.3879 11.7826 31.0101 12.9 29.9471C14.0175 28.8842 14.1667 27.8516 14.2748 27.3115C14.3832 26.7714 14.6677 24.3056 14.6744 24.1301C14.6815 23.9548 14.6905 23.3785 14.1471 22.8356C13.6034 22.2929 12.8663 22.141 12.5324 22.0715C12.1982 22.0018 11.6731 22.0043 11.5411 21.9468C11.4089 21.8892 11.162 21.6283 11.1893 21.5569C11.2165 21.4854 11.9111 21.5317 11.9247 21.4946C11.9384 21.4573 11.1308 21.4448 11.0773 21.3993Z" fill="#8C161A"/>
<path d="M13.6074 19.5166C13.6074 19.5166 13.7882 19.0082 14.3763 19.0082C14.9644 19.0082 15.2071 19.3958 15.2071 19.3958C15.2071 19.3958 15.0367 19.7783 14.4279 19.7783C13.819 19.7783 13.6074 19.5166 13.6074 19.5166Z" stroke="#897B2B" stroke-width="0.150244" stroke-miterlimit="22.9256"/>
<path d="M13.6074 19.5166C13.6074 19.5166 13.7882 19.0082 14.3763 19.0082C14.9644 19.0082 15.2071 19.3958 15.2071 19.3958C15.2071 19.3958 15.0367 19.7783 14.4279 19.7783C13.819 19.7783 13.6074 19.5166 13.6074 19.5166Z" stroke="#897B2B" stroke-width="0.129206" stroke-miterlimit="22.9256" stroke-linecap="round"/>
<path fill-rule="evenodd" clip-rule="evenodd" d="M14.0566 19.3907C14.0566 19.2102 14.207 19.0633 14.3923 19.0633C14.5772 19.0633 14.7275 19.2102 14.7275 19.3907C14.7275 19.5715 14.5772 19.718 14.3923 19.718C14.207 19.718 14.0566 19.5715 14.0566 19.3907Z" fill="#897B2B"/>
<path d="M10.8379 20.6164C10.8379 20.6164 11.3312 20.6247 11.4545 20.3341" stroke="#897B2B" stroke-width="0.162423" stroke-miterlimit="22.9256" stroke-linecap="round"/>
<path d="M43.0125 43.9621C42.7743 44.0992 42.6055 44.6059 42.6055 44.6059" stroke="#897B2B" stroke-width="0.150244" stroke-miterlimit="22.9256" stroke-linecap="round"/>
<path d="M43.308 44.1264C43.1114 44.2634 42.957 44.688 42.957 44.688" stroke="#897B2B" stroke-width="0.150244" stroke-miterlimit="22.9256" stroke-linecap="round"/>
<path d="M47.3064 42.4829C46.9704 42.6199 46.8301 43.1128 46.8301 43.1128" stroke="#897B2B" stroke-width="0.150244" stroke-miterlimit="22.9256" stroke-linecap="round"/>
<path d="M47.7448 42.6061C47.464 42.8115 47.3086 43.2499 47.3086 43.2499" stroke="#897B2B" stroke-width="0.150244" stroke-miterlimit="22.9256" stroke-linecap="round"/>
<path d="M15.9238 17.6497C15.9238 17.6497 15.7583 16.8775 16.3072 16.9024C16.8564 16.9272 16.9201 17.3632 16.9457 17.4754C16.9711 17.8367 16.7925 18.0981 16.7925 18.0981C16.7925 18.0981 16.7797 17.0893 16.256 17.0893C16.1028 17.0893 15.9238 17.6497 15.9238 17.6497Z" stroke="#897B2B" stroke-width="0.156548" stroke-miterlimit="22.9256" stroke-linecap="round"/>
<path d="M5.23495 35.6031C4.96218 35.7 4.9043 36.1112 4.9043 36.1112" stroke="#897B2B" stroke-width="0.150244" stroke-miterlimit="22.9256" stroke-linecap="round"/>
<path d="M5.44192 35.7565C5.16921 35.8532 5.11133 36.2644 5.11133 36.2644" stroke="#897B2B" stroke-width="0.150244" stroke-miterlimit="22.9256" stroke-linecap="round"/>
<path d="M17.9395 25.4735C18.0309 25.2603 18.0576 24.8158 18.327 24.8892" stroke="#897B2B" stroke-width="0.143175" stroke-miterlimit="22.9256" stroke-linecap="round"/>
<path d="M15.6504 22.4824C16.5631 21.8378 16.9709 20.7319 17.0955 19.6807" stroke="#897B2B" stroke-width="0.162423" stroke-miterlimit="22.9256" stroke-linecap="round"/>
<path d="M16.0547 22.8091C16.7464 22.2481 17.1352 21.3689 17.2352 20.5058" stroke="#897B2B" stroke-width="0.162423" stroke-miterlimit="22.9256" stroke-linecap="round"/>
<path d="M16.5117 23.2389C17.1025 22.7666 17.4567 22.0722 17.6277 21.3652" stroke="#897B2B" stroke-width="0.162423" stroke-miterlimit="22.9256" stroke-linecap="round"/>
<path d="M16.7949 23.7716C17.3184 23.4088 17.6417 22.8335 17.7464 22.2246" stroke="#897B2B" stroke-width="0.162423" stroke-miterlimit="22.9256" stroke-linecap="round"/>
<path d="M17.2168 24.3561C17.6049 24.0531 17.871 23.6007 17.9393 23.1186" stroke="#897B2B" stroke-width="0.162423" stroke-miterlimit="22.9256" stroke-linecap="round"/>
<path d="M17.5254 24.8651C17.6879 24.6465 17.8508 24.4275 17.9643 24.1845" stroke="#897B2B" stroke-width="0.162423" stroke-miterlimit="22.9256" stroke-linecap="round"/>
<path d="M13.3679 32.8891C13.0101 32.3765 12.947 31.7134 13.0462 31.106" stroke="#897B2B" stroke-width="0.162423" stroke-miterlimit="22.9256" stroke-linecap="round"/>
<path d="M12.8129 32.6759C12.6118 32.2004 12.5098 31.6533 12.5662 31.1288" stroke="#897B2B" stroke-width="0.162423" stroke-miterlimit="22.9256" stroke-linecap="round"/>
<path d="M12.2132 32.5386C12.027 32.1726 12.0018 31.7404 12.0369 31.3352" stroke="#897B2B" stroke-width="0.162423" stroke-miterlimit="22.9256" stroke-linecap="round"/>
<path d="M11.6834 32.6073C11.4392 32.2777 11.3743 31.8325 11.4543 31.4383" stroke="#897B2B" stroke-width="0.162423" stroke-miterlimit="22.9256" stroke-linecap="round"/>
<path d="M11.0614 32.4927C10.8678 32.2209 10.7958 31.8603 10.8618 31.5414" stroke="#897B2B" stroke-width="0.162423" stroke-miterlimit="22.9256" stroke-linecap="round"/>
<path d="M10.4143 32.2291C10.2917 32.0365 10.2161 31.8023 10.2734 31.5758" stroke="#897B2B" stroke-width="0.162423" stroke-miterlimit="22.9256" stroke-linecap="round"/>
<path d="M9.98093 32.1718C9.83065 32.0504 9.70406 31.8738 9.69336 31.679" stroke="#897B2B" stroke-width="0.162423" stroke-miterlimit="22.9256" stroke-linecap="round"/>
<path d="M13.5808 35.1015C13.8787 35.1614 13.7852 35.7137 13.4629 35.7198" stroke="#897B2B" stroke-width="0.143175" stroke-miterlimit="22.9256" stroke-linecap="round"/>
<path d="M19.5605 33.282C20.2684 31.7083 20.2026 29.9097 19.7033 28.1207" stroke="#897B2B" stroke-width="0.162423" stroke-miterlimit="22.9256" stroke-linecap="round"/>
<path d="M21.1113 32.1602C21.5326 30.9762 21.5418 29.6607 21.1611 28.4662" stroke="#897B2B" stroke-width="0.162423" stroke-miterlimit="22.9256" stroke-linecap="round"/>
<path d="M20.4707 32.5269C20.9032 31.2856 20.7887 29.5417 20.5131 28.2716" stroke="#897B2B" stroke-width="0.162423" stroke-miterlimit="22.9256" stroke-linecap="round"/>
<path d="M18.9824 33.5549C19.5726 32.2114 19.4924 30.2367 18.8848 28.9056" stroke="#897B2B" stroke-width="0.162423" stroke-miterlimit="22.9256" stroke-linecap="round"/>
<path d="M21.9219 31.9023C22.3257 30.9637 22.3286 29.8901 21.9924 28.9284" stroke="#897B2B" stroke-width="0.162423" stroke-miterlimit="22.9256" stroke-linecap="round"/>
<path d="M22.6094 31.8853C22.6733 31.0603 22.7796 30.2211 22.6798 29.3926" stroke="#897B2B" stroke-width="0.162423" stroke-miterlimit="22.9256" stroke-linecap="round"/>
<path d="M18.3262 33.8621C18.8725 32.5068 18.777 31.0046 18.4408 29.6163" stroke="#897B2B" stroke-width="0.162423" stroke-miterlimit="22.9256" stroke-linecap="round"/>
<path d="M23.0801 31.6102C23.2379 31.0025 23.4257 30.3391 23.1597 29.7332" stroke="#897B2B" stroke-width="0.162423" stroke-miterlimit="22.9256" stroke-linecap="round"/>
<path d="M23.5957 31.3352C23.7294 30.8366 23.7437 30.3105 23.728 29.7879" stroke="#897B2B" stroke-width="0.162423" stroke-miterlimit="22.9256" stroke-linecap="round"/>
<path d="M17.5703 34.0512C17.9723 32.9797 18.1134 31.7767 17.7288 30.6819" stroke="#897B2B" stroke-width="0.162423" stroke-miterlimit="22.9256" stroke-linecap="round"/>
<path d="M16.8164 34.5209C17.0748 33.8426 17.1685 33.088 17.022 32.3664" stroke="#897B2B" stroke-width="0.162423" stroke-miterlimit="22.9256" stroke-linecap="round"/>
<path d="M16.1602 34.6699C16.414 34.1724 16.4542 33.5577 16.4422 32.9853" stroke="#897B2B" stroke-width="0.162423" stroke-miterlimit="22.9256" stroke-linecap="round"/>
<path d="M15.3145 35.2543C15.5263 34.7843 15.7325 34.259 15.6784 33.7187" stroke="#897B2B" stroke-width="0.162423" stroke-miterlimit="22.9256" stroke-linecap="round"/>
<path d="M15.0106 34.2574C15.0826 34.6892 14.8759 35.136 14.6992 35.4948" stroke="#897B2B" stroke-width="0.162423" stroke-miterlimit="22.9256" stroke-linecap="round"/>
<path d="M14.1016 35.6532C14.2306 35.3993 14.382 35.1235 14.3888 34.8418" stroke="#897B2B" stroke-width="0.162423" stroke-miterlimit="22.9256" stroke-linecap="round"/>
<path d="M37.3849 36.4232C37.2802 36.0416 37.1742 35.6591 37 35.3001" stroke="#897B2B" stroke-width="0.162423" stroke-miterlimit="22.9256" stroke-linecap="round"/>
<path d="M37.9399 36.7325C37.8777 36.2652 37.6569 35.8392 37.4785 35.4105" stroke="#897B2B" stroke-width="0.162423" stroke-miterlimit="22.9256" stroke-linecap="round"/>
<path d="M36.6189 35.9677C36.5726 35.7712 36.5086 35.5639 36.3828 35.3986" stroke="#897B2B" stroke-width="0.162423" stroke-miterlimit="22.9256" stroke-linecap="round"/>
<path d="M38.3976 36.9388C38.2978 36.4694 38.2834 35.959 37.998 35.5522" stroke="#897B2B" stroke-width="0.162423" stroke-miterlimit="22.9256" stroke-linecap="round"/>
<path d="M38.839 37.2827C38.8053 36.7121 38.744 36.1276 38.4512 35.6153" stroke="#897B2B" stroke-width="0.162423" stroke-miterlimit="22.9256" stroke-linecap="round"/>
<path d="M39.3075 37.3858C39.4181 36.8 39.0782 36.244 38.8984 35.6963" stroke="#897B2B" stroke-width="0.162423" stroke-miterlimit="22.9256" stroke-linecap="round"/>
<path d="M39.931 37.6695C39.8457 37.0181 39.5994 36.3978 39.3613 35.7813" stroke="#897B2B" stroke-width="0.162423" stroke-miterlimit="22.9256" stroke-linecap="round"/>
<path d="M40.429 37.9703C40.2919 37.3068 40.1949 36.6552 39.918 36.0392" stroke="#897B2B" stroke-width="0.162423" stroke-miterlimit="22.9256" stroke-linecap="round"/>
<path d="M40.909 38.2455C40.8598 37.5823 40.7341 36.9085 40.4453 36.3014" stroke="#897B2B" stroke-width="0.162423" stroke-miterlimit="22.9256" stroke-linecap="round"/>
<path d="M41.7299 39.0962C41.6189 38.3904 41.5417 37.6409 41.2012 36.9907" stroke="#897B2B" stroke-width="0.162423" stroke-miterlimit="22.9256" stroke-linecap="round"/>
<path d="M29.4644 14.9536C28.2836 14.1798 27.3417 12.7977 27.2617 11.3953" stroke="#897B2B" stroke-width="0.225365" stroke-miterlimit="22.9256" stroke-linecap="round"/>
<path d="M30.4332 14.8427C29.2924 14.2994 28.3741 13.1339 28.2656 11.7737" stroke="#897B2B" stroke-width="0.225365" stroke-miterlimit="22.9256" stroke-linecap="round"/>
<path d="M29.1641 12.0141C29.5141 13.3684 30.8063 14.0779 31.8076 14.8906" stroke="#897B2B" stroke-width="0.225365" stroke-miterlimit="22.9256" stroke-linecap="round"/>
<path d="M36.5657 15.624C36.2192 14.126 34.3594 13.7214 33.6758 12.4609" stroke="#897B2B" stroke-width="0.225365" stroke-miterlimit="22.9256" stroke-linecap="round"/>
<path d="M38.2926 16.4834C38.2127 14.6441 35.9689 14.1408 35.332 12.5988" stroke="#897B2B" stroke-width="0.225365" stroke-miterlimit="22.9256" stroke-linecap="round"/>
<path d="M39.5988 16.8271C39.6532 15.122 37.8351 14.3465 37.1406 13.011" stroke="#897B2B" stroke-width="0.225365" stroke-miterlimit="22.9256" stroke-linecap="round"/>
<path d="M39.8672 13.7559C40.6714 15.1059 42.0155 16.4693 41.4649 18.168" stroke="#897B2B" stroke-width="0.225365" stroke-miterlimit="22.9256" stroke-linecap="round"/>
<path d="M42.1691 18.8555C42.2683 17.9862 42.4439 17.0824 42.0909 16.1969C41.8823 15.6742 41.5414 15.1908 41.3496 14.5926" stroke="#897B2B" stroke-width="0.225365" stroke-miterlimit="22.9256" stroke-linecap="round"/>
<path d="M42.6152 20.5973C43.3015 19.8419 43.6841 18.8669 43.6932 17.8587" stroke="#897B2B" stroke-width="0.225365" stroke-miterlimit="22.9256" stroke-linecap="round"/>
<path d="M42.7793 21.3423C43.3239 20.7176 43.7628 19.9646 43.9483 19.1562" stroke="#897B2B" stroke-width="0.225365" stroke-miterlimit="22.9256" stroke-linecap="round"/>
<path d="M42.8574 21.8638C43.4196 21.4798 43.7179 20.8259 44.0968 20.2653" stroke="#897B2B" stroke-width="0.225365" stroke-miterlimit="22.9256" stroke-linecap="round"/>
<path d="M27.8978 14.5924C27.0005 13.7313 26.208 12.4809 26.2412 11.1891" stroke="#897B2B" stroke-width="0.225365" stroke-miterlimit="22.9256" stroke-linecap="round"/>
<path d="M33.7485 14.9707C32.7251 14.0203 30.977 13.6063 30.4609 12.2253" stroke="#897B2B" stroke-width="0.225365" stroke-miterlimit="22.9256" stroke-linecap="round"/>
<path d="M35.2273 15.3832C34.5937 13.8302 32.677 13.5847 31.8438 12.2547" stroke="#897B2B" stroke-width="0.225365" stroke-miterlimit="22.9256" stroke-linecap="round"/>
<path d="M42.2422 20.1621C43.4279 18.7771 42.8367 16.9441 42.6653 15.3831" stroke="#897B2B" stroke-width="0.225365" stroke-miterlimit="22.9256" stroke-linecap="round"/>
<path d="M26.5912 13.9737C25.63 13.1618 25.2032 11.8438 25.3751 10.6391" stroke="#897B2B" stroke-width="0.225365" stroke-miterlimit="22.9256" stroke-linecap="round"/>
<path d="M40.6192 17.5835C40.6039 16.5159 40.2053 15.5253 39.4844 14.7368" stroke="#897B2B" stroke-width="0.225365" stroke-miterlimit="22.9256" stroke-linecap="round"/>
<path d="M39.4837 14.7369L39.3145 14.5582" stroke="#897B2B" stroke-width="0.225365" stroke-miterlimit="22.9256" stroke-linecap="round"/>
<path d="M39.3127 14.5582C38.8756 14.1775 38.498 13.657 38.3965 13.0799" stroke="#897B2B" stroke-width="0.225365" stroke-miterlimit="22.9256" stroke-linecap="round"/>
<path d="M38.2568 31.7133C38.2422 30.3273 37.9531 28.8806 37.0234 27.7769" stroke="#897B2B" stroke-width="0.162423" stroke-miterlimit="22.9256" stroke-linecap="round"/>
<path d="M37.4483 31.1289C37.4098 29.9536 37.0447 28.7528 36.2734 27.8171" stroke="#897B2B" stroke-width="0.162423" stroke-miterlimit="22.9256" stroke-linecap="round"/>
<path d="M39.1572 31.6616C38.9111 30.3519 38.7683 28.9574 37.9648 27.8171" stroke="#897B2B" stroke-width="0.162423" stroke-miterlimit="22.9256" stroke-linecap="round"/>
<path d="M39.8626 31.9109C39.9025 30.5377 39.5847 29.1327 38.8125 27.9758" stroke="#897B2B" stroke-width="0.162423" stroke-miterlimit="22.9256" stroke-linecap="round"/>
<path d="M36.1246 31.507C35.7729 30.3384 35.4678 29.087 34.7324 28.052" stroke="#897B2B" stroke-width="0.162423" stroke-miterlimit="22.9256" stroke-linecap="round"/>
<path d="M36.8823 31.7478C36.6888 30.5031 36.583 29.0813 35.5312 28.1952" stroke="#897B2B" stroke-width="0.162423" stroke-miterlimit="22.9256" stroke-linecap="round"/>
<path d="M35.3669 31.4727C35.2352 30.3388 34.7827 29.2321 34.0176 28.3539" stroke="#897B2B" stroke-width="0.162423" stroke-miterlimit="22.9256" stroke-linecap="round"/>
<path d="M40.672 32.1689C40.6372 30.89 40.5319 29.5735 39.8203 28.4587" stroke="#897B2B" stroke-width="0.162423" stroke-miterlimit="22.9256" stroke-linecap="round"/>
<path d="M34.4694 31.0602C34.3516 30.088 33.864 29.2245 33.3027 28.4336" stroke="#897B2B" stroke-width="0.162423" stroke-miterlimit="22.9256" stroke-linecap="round"/>
<path d="M33.6763 31.1289C33.5928 30.2628 33.2817 29.4398 32.7246 28.7567" stroke="#897B2B" stroke-width="0.162423" stroke-miterlimit="22.9256" stroke-linecap="round"/>
<path d="M32.9721 31.2319C32.7234 30.4699 32.6152 29.6099 32.0137 29.0043" stroke="#897B2B" stroke-width="0.162423" stroke-miterlimit="22.9256" stroke-linecap="round"/>
<path d="M31.3496 29.3412C31.6975 29.6894 31.8722 30.1428 31.9489 30.613" stroke="#897B2B" stroke-width="0.162423" stroke-miterlimit="22.9256" stroke-linecap="round"/>
<path d="M42.0465 33.1572C42.141 31.8678 41.9108 30.596 41.3945 29.4099" stroke="#897B2B" stroke-width="0.162423" stroke-miterlimit="22.9256" stroke-linecap="round"/>
<path d="M31.0574 30.2236C31.007 30.0417 30.9493 29.8377 30.7871 29.7193" stroke="#897B2B" stroke-width="0.162423" stroke-miterlimit="22.9256" stroke-linecap="round"/>
<path d="M42.2246 30.1455C42.7261 31.1817 42.766 32.3634 42.7674 33.501" stroke="#897B2B" stroke-width="0.162423" stroke-miterlimit="22.9256" stroke-linecap="round"/>
<path d="M43.3678 33.8104C43.5492 32.9182 43.2626 32.047 43.0684 31.189" stroke="#897B2B" stroke-width="0.162423" stroke-miterlimit="22.9256" stroke-linecap="round"/>
<path d="M43.8704 34.1199C43.9214 33.4615 43.9964 32.7544 43.7559 32.1258" stroke="#897B2B" stroke-width="0.162423" stroke-miterlimit="22.9256" stroke-linecap="round"/>
<path d="M44.459 34.498C44.2899 33.9966 44.4284 33.4502 44.3711 32.9337" stroke="#897B2B" stroke-width="0.162423" stroke-miterlimit="22.9256" stroke-linecap="round"/>
<path d="M45.3587 35.4434C45.3478 35.1818 45.4103 34.9249 45.394 34.6698" stroke="#897B2B" stroke-width="0.162423" stroke-miterlimit="22.9256" stroke-linecap="round"/>
<path d="M41.2653 32.4467C41.3092 31.2165 41.21 29.8749 40.5723 28.7797" stroke="#897B2B" stroke-width="0.162423" stroke-miterlimit="22.9256" stroke-linecap="round"/>
<path d="M44.9413 34.7731C44.899 34.4429 44.958 34.1081 44.9459 33.776" stroke="#897B2B" stroke-width="0.162423" stroke-miterlimit="22.9256" stroke-linecap="round"/>
<path d="M4.07093 31.9787C3.79817 32.0756 3.74023 32.4868 3.74023 32.4868" stroke="#897B2B" stroke-width="0.150244" stroke-miterlimit="22.9256" stroke-linecap="round"/>
<path d="M4.27987 32.1319C4.00716 32.2288 3.94922 32.64 3.94922 32.64" stroke="#897B2B" stroke-width="0.150244" stroke-miterlimit="22.9256" stroke-linecap="round"/>
</g>
<defs>
<clipPath id="clip0_807_3419">
<rect width="52.5187" height="64" fill="white"/>
</clipPath>
</defs>
</svg>
