<svg width="53" height="64" viewBox="0 0 53 64" fill="none" xmlns="http://www.w3.org/2000/svg">
<path fill-rule="evenodd" clip-rule="evenodd" d="M26.2593 0H0V52.2337H18.1754C18.3924 51.8488 18.6637 51.4089 19.2605 50.9691C19.586 48.8797 19.6945 46.7354 19.586 44.4261L19.152 38.268C15.7882 35.079 13.7807 31.6701 13.2924 27.5464C13.1297 26.1718 12.6956 24.9622 12.0446 23.9175C11.285 23.9725 10.5254 24.0825 9.71162 23.9725L8.78929 24.5773C8.02972 25.0172 7.54142 24.7973 7.10739 24.4674C6.23931 23.6976 6.56484 22.7629 7.48717 22.1031C8.19248 21.6083 8.78929 21.0034 9.22333 20.1237C9.76587 19.134 10.7967 18.3643 11.6648 17.5395C12.4786 16.3299 12.8584 14.6254 13.0212 13.2509C13.0754 12.921 13.401 13.0859 13.401 13.0859L13.2924 14.8454C14.052 14.3505 14.8658 13.5258 15.5169 12.811C15.8967 12.3162 16.0052 11.7663 16.0052 11.2715L16.385 11.1065L16.3307 12.6461C17.3616 12.5911 18.0126 12.0412 18.4467 10.9966L18.7722 11.1615C18.7722 11.9863 18.1754 12.5361 17.1445 13.1409C17.0903 13.4708 17.1988 13.9107 17.1988 14.2406C18.3924 14.2406 19.369 13.7457 19.803 12.6461L20.02 12.756L19.9658 13.1959C20.1286 13.1959 20.2371 13.0859 20.3998 12.866L20.9424 11.8213L21.2136 11.9313C20.9966 12.701 20.6168 13.4708 19.5317 14.0756C18.8807 14.5155 18.0669 14.8454 17.0903 15.1203C15.8967 15.4502 15.1371 16.3849 14.3233 17.7045C14.1605 18.1993 14.3775 18.3643 14.8658 18.1443C15.5169 16.9897 16.3307 16.4949 17.3616 16.6048C17.3616 17.8144 16.4935 18.6392 15.5169 19.5189L19.0977 26.4467C19.9658 27.4914 20.9966 27.9863 22.2987 27.7113L26.3679 27.4364L37.1103 26.6117C38.3039 26.6117 39.3348 27.0516 40.3656 27.6014C41.1794 28.0412 41.722 28.811 42.2103 29.5808C42.7528 30.5704 42.9156 31.6701 43.0241 32.8797L42.373 33.3196C41.8848 34.3643 41.505 35.4639 41.3965 36.7285C41.3965 37.7182 41.6677 38.7079 42.4816 39.6976C43.0784 40.6873 43.8379 41.4021 44.6517 41.8969C44.9773 42.8866 44.9773 43.8213 44.5432 44.811L44.8145 51.6839L44.0549 52.0138V52.2337H52.5187V0H26.2593ZM19.8573 52.2337L20.3998 51.4639L20.7254 51.4089L20.7796 49.2646C21.2136 47.1203 21.4849 45.1409 21.5934 42.8866L21.919 42.8316L22.2987 44.3162C22.2445 45.1959 22.7328 46.4605 23.2753 47.1203L23.9264 52.2337H19.8573ZM25.6625 52.2337L25.4998 51.7388L24.6317 46.8454V46.5704C24.903 45.7457 24.7945 44.756 24.2519 43.8763L24.1977 43.3265L24.3062 38.1031C27.7242 38.1581 31.3593 37.7732 34.5061 36.8935C34.5603 38.268 35.3742 39.3127 36.4593 40.1924C37.9784 42.0069 38.5752 44.2612 38.0869 47.0103C37.8156 48.8247 37.2188 50.5292 36.1337 51.9588L35.971 52.2337H25.6625ZM37.1646 52.2337V52.1787L37.9241 52.0138L38.4124 50.1993C39.0092 47.945 39.606 45.9656 40.3114 44.5361C40.7454 43.5464 40.6911 43.3265 40.1486 42.5017L39.7688 41.0172C41.2337 41.9519 42.4273 43.2165 43.4039 44.701L43.3496 50.3643C42.8613 50.9141 42.4816 51.5739 42.2103 52.2337H37.1646ZM16.819 13.3608C16.819 13.0859 16.819 13.1409 16.7648 13.0859C16.7105 13.0309 16.602 13.1409 16.5477 13.1409C15.0828 14.5155 13.4552 15.89 12.6956 17.5395C12.7499 17.7595 12.8584 17.7595 13.0754 17.5945C13.8892 16.11 14.9743 14.9553 16.4392 14.1856C16.5477 13.9107 16.6562 13.6357 16.819 13.3608Z" fill="#0293DE"/>
<path fill-rule="evenodd" clip-rule="evenodd" d="M0 52.6736H17.9584C17.4158 53.4983 16.7105 54.0482 16.2222 54.9279L17.7413 55.0928L18.3924 54.543H19.369C19.5317 53.9382 19.4232 53.2784 19.5317 52.6736H19.586H23.9806L24.0349 52.8385C23.6551 53.2784 23.4924 53.8282 23.6009 54.653L22.2445 56.4674L24.1977 56.4124C24.7402 56.4674 25.12 56.3025 25.2285 55.9726L25.337 54.2131C26.1508 53.6083 25.9881 53.0585 25.8253 52.6736H35.6454L34.6689 53.9382L36.622 54.0482L37.0018 52.6736H42.0475C41.939 53.1684 41.8305 53.6633 41.8305 54.1581H43.8922L44.0007 52.6736H52.5187V52.8385C52.3017 57.787 49.2092 59.1066 42.9156 58.6667L34.6689 58.7217C30.5455 59.4915 27.1817 61.4159 26.2593 64C25.337 61.4159 21.9732 59.4915 17.8498 58.7217L9.60311 58.6667C3.30955 59.1066 0.217019 57.787 0 52.8385V52.6736Z" fill="#009846"/>
<path fill-rule="evenodd" clip-rule="evenodd" d="M9.82031 22.8729V22.9279C10.4171 22.9279 10.9054 22.8729 11.5022 22.8179C12.4788 22.653 12.4788 22.3781 13.1841 21.2784L13.2926 20.8935L13.6724 20.8386C13.7267 20.8386 13.7809 20.8386 13.8352 20.7836C13.8352 20.6736 13.8894 20.6186 13.8894 20.5637V20.3987L13.8352 20.1788C13.3469 19.574 13.4554 19.519 13.6182 19.2441L13.8894 19.0791C13.7267 19.0241 13.6182 19.1341 13.5096 19.1341C12.6416 19.7389 14.2692 20.3987 13.0214 20.4537C12.5873 22.543 11.1767 22.598 9.82031 22.8729ZM43.0785 42.9966C43.3498 43.3265 43.6211 43.7114 43.8924 44.0413C43.8381 43.6015 43.6211 43.1616 43.3498 42.7767C43.187 42.5568 42.9158 42.3368 42.6988 42.0619C42.4817 41.787 42.2647 41.4571 41.9934 41.1272C41.6679 40.6324 41.3966 40.1375 41.1254 39.6427C40.9626 39.3678 40.8541 39.0929 40.7456 38.8179C40.6371 38.598 40.5286 38.3231 40.4201 38.0482C40.3658 37.7733 40.3115 37.4984 40.2573 37.2234L40.1488 36.6736C40.0945 36.3987 40.0945 36.1788 40.0945 35.9039V35.354L40.1488 34.8592C40.203 34.5293 40.3115 34.2544 40.3658 33.9245L40.5286 33.1547C40.6371 32.8248 40.6913 32.4399 40.7456 32.0551V31.3953V31.1203V30.7905V30.5155L40.6913 30.2406L40.6371 29.9657L40.5286 29.7458L40.4201 29.5258L40.3115 29.3059L40.203 29.086L40.0403 28.921L39.8775 28.7011L39.7147 28.5362L39.4977 28.3712L39.2264 28.2612L39.0094 28.0963L38.6839 27.9863L38.4126 27.8764L38.0328 27.7664L37.6531 27.7114L37.2733 27.6564L36.8392 27.6015L36.4052 27.5465L35.9169 27.4915H35.6456C37.5445 28.3712 40.5286 27.8764 39.7147 32.8798C38.9009 38.488 40.203 39.4777 43.0785 42.9966ZM23.167 33.7595C23.3298 33.2097 23.601 33.0447 23.8723 33.1547C24.0351 33.2097 24.0893 33.2097 24.1979 33.5396C24.1979 33.9245 24.1979 34.4193 24.2521 34.6392C24.2521 34.8592 24.3606 34.8042 24.4691 34.7492C24.5234 34.6942 24.5234 34.5293 24.5234 33.8695C25.0659 33.9795 25.2829 33.9795 25.5542 34.3094C25.717 34.5293 25.8255 34.8042 26.0425 35.0241C26.0968 35.0791 26.0968 35.1341 26.151 35.1891C26.3138 35.354 26.4223 35.409 26.5851 35.464C26.8563 35.519 27.2904 35.519 27.5074 35.299C27.6702 35.1341 27.8329 34.9142 27.8872 34.6942C28.484 35.0791 28.8638 34.8592 29.6233 34.8042C29.7318 34.9142 29.8404 35.0241 30.0031 35.0791C30.2201 35.1891 30.5457 35.0791 30.7627 35.0241C31.5223 34.7492 32.4446 34.3643 33.2042 34.0894C33.2042 33.9795 33.2584 32.6599 33.2584 32.6599C33.3669 32.7698 33.4754 32.6049 33.5839 32.7149C33.6382 32.6599 33.801 32.7149 33.9095 32.7149C33.9637 32.8798 34.1265 33.0997 34.1807 33.3197C33.8552 32.22 33.801 31.0654 33.8552 30.0207C33.6382 29.5808 33.5839 29.6908 33.3127 29.8557C33.3127 30.1307 33.2042 30.4606 33.2042 30.7355C32.7701 33.3197 32.1733 34.2544 30.7627 31.6152C30.1116 31.2303 29.6776 31.3953 29.7861 32.275C29.7861 32.9348 29.1893 32.9898 28.8638 32.5499C28.267 31.7801 27.6702 31.0104 27.0734 30.2406C26.3138 32.4399 25.1744 31.5602 24.3064 30.0207C23.9808 29.7458 23.6553 29.8008 23.3298 30.1307C23.167 30.6255 23.2755 31.7252 23.4925 32.385C23.167 32.8798 22.7872 32.8798 22.8415 34.1444C23.0585 35.8489 23.1128 36.8935 22.733 38.4331C22.2447 40.5224 22.7872 42.8317 22.95 43.6564C22.95 43.9313 22.95 44.2063 22.95 44.4262L23.0585 44.2063L23.4383 43.3815C23.384 43.2716 23.2755 43.1616 23.2213 43.0516C23.167 42.9417 23.1128 42.8317 23.0585 42.6667C23.0042 42.5018 22.95 42.3918 22.95 42.2269C22.8957 42.0619 22.8957 41.897 22.8957 41.732C22.8415 41.3472 22.8957 41.0173 22.8957 40.6874L22.95 40.3025C23.167 39.4228 23.4383 38.598 23.5468 37.6633C23.5468 37.1685 23.5468 36.7286 23.4925 36.2887C23.3298 35.299 23.167 34.4193 23.167 33.7595ZM17.9585 30.1307C16.3852 30.6255 15.0288 28.7011 14.432 28.2063C14.4862 28.4262 14.432 28.7011 15.0288 29.3609C16.3309 31.0104 16.9277 31.5052 16.6022 33.0997C17.1447 33.0447 17.199 32.9348 17.7415 32.8798C16.8192 31.7801 17.85 30.5155 17.9585 30.1307ZM20.8341 29.9107C20.8883 29.5808 21.1053 29.2509 21.4309 28.976C22.1362 28.6461 23.9808 28.3162 24.0893 28.3162C23.9808 28.2612 23.0042 28.4262 21.4851 28.5362C21.3766 28.5362 21.2138 28.5362 21.1053 28.5362C20.8341 28.4812 20.5628 28.5362 20.3458 28.4812C20.2915 28.4262 20.0202 28.2063 20.0202 28.2063C20.0202 28.3162 20.0202 28.3712 19.966 28.4812L19.9117 28.976L19.4234 29.031L19.2064 28.8661C19.0436 28.8111 18.9351 28.7011 18.8266 28.5911C18.7724 28.5362 18.6639 28.4262 18.6096 28.3162C18.5011 28.2063 18.4468 28.0963 18.3926 27.9313V27.8214L18.3383 27.7114V27.6015C18.2841 27.3815 18.3926 27.0516 18.3926 26.8317C17.3075 24.9073 16.4394 22.9829 15.5171 21.1685C15.3001 21.0585 15.1915 20.8386 15.0288 20.6736L14.9745 20.8386C14.9203 21.0585 14.9745 20.8935 14.8118 21.0585C15.7341 21.4434 16.1139 23.3128 16.8734 24.8523C17.199 26.007 17.1447 27.4915 17.7415 27.7114L19.0979 29.2509C19.3149 29.8557 19.5862 29.9657 19.749 30.1307L19.8032 29.4159C19.9117 29.141 20.0745 29.141 20.183 29.3059L20.8341 29.9107ZM19.4777 31.7801C18.9351 31.7252 19.3149 33.2647 19.0979 34.0344C19.3149 34.2544 19.5862 34.3643 19.8575 34.2544C19.749 33.5396 19.5862 32.5499 19.4777 31.7801Z" fill="#D9DADA"/>
<path fill-rule="evenodd" clip-rule="evenodd" d="M18.2292 14.5154C18.9346 14.2405 19.4228 13.9656 19.8026 13.6357L19.5856 13.5807C19.3143 13.8007 18.826 14.0756 18.175 14.2955L16.7644 14.5704C16.7644 14.5704 16.8729 14.1855 16.7101 14.2405C16.6558 14.2405 16.4388 14.6254 16.3846 14.6254C15.625 14.9553 14.1059 16 13.4548 17.7044C13.0208 17.9793 12.424 18.0893 12.3697 17.6495L12.0442 17.5945L11.9357 17.7594L11.2304 18.4192C10.6878 18.8591 10.1995 19.3539 9.71122 20.0687C9.60271 20.2336 9.4942 20.4536 9.38569 20.6185L8.95166 21.2783C8.62613 21.7182 8.19209 22.1031 7.70379 22.378C7.26976 22.7079 6.78146 23.1477 7.05274 23.8075L7.16125 23.9175C7.16125 23.9725 7.2155 24.0275 7.2155 24.0275L7.48678 24.1374C7.70379 24.1924 8.3006 23.9725 8.68038 23.4226C8.84315 23.2577 8.8974 23.2577 9.27719 23.2027L9.43995 23.2577C10.3623 23.4776 11.8272 23.3127 12.641 22.9278C13.3463 22.4879 13.4006 21.8281 13.5633 21.2783C14.5399 21.2233 14.4314 19.7388 13.7803 19.6288C13.6176 19.5739 13.8346 19.5189 13.8888 19.4639C13.9974 19.4639 14.7569 19.3539 14.7569 19.4089L15.0825 19.4639C15.625 18.969 16.2218 18.4192 16.6016 17.8144L16.7101 17.6495C16.8186 17.4295 16.9271 17.2096 16.9814 16.9897C16.6558 16.9897 16.3846 17.0996 16.1133 17.2646C15.8963 17.3745 15.7335 17.5395 15.625 17.7044C15.4622 17.8694 15.3537 18.0343 15.2452 18.2543L15.1367 18.4742C14.9739 18.7491 14.7027 18.7491 14.4314 18.7491H14.1601L13.9431 18.6391L13.7803 18.4192L13.5091 18.3642L13.8888 17.8144L14.1601 17.3745C14.3771 16.9897 14.4314 16.8247 14.7027 16.4398C14.9197 16.1649 15.1367 15.945 15.3537 15.6701C15.5707 15.5051 15.7335 15.3952 15.9505 15.2302C16.059 15.1752 16.1676 15.1202 16.2761 15.0653C16.4931 14.9553 16.7644 14.9003 16.9814 14.7903L18.2292 14.5154ZM9.81973 22.8728V22.9278C10.4165 22.9278 10.9048 22.8728 11.5016 22.8178C12.4782 22.6529 12.4782 22.378 13.1835 21.2783L13.292 20.8934L13.6718 20.8385C13.7261 20.8385 13.7803 20.8385 13.8346 20.7835C13.8346 20.6735 13.8888 20.6185 13.8888 20.5635V20.3986L13.8346 20.1787C13.3463 19.5739 13.4548 19.5189 13.6176 19.244L13.8888 19.079C13.7261 19.024 13.6176 19.134 13.5091 19.134C12.641 19.7388 14.2686 20.3986 13.0208 20.4536C12.5867 22.5429 11.1761 22.5979 9.81973 22.8728ZM43.078 42.9965C43.3492 43.3264 43.6205 43.7113 43.8918 44.0412C43.8375 43.6013 43.6205 43.1615 43.3492 42.7766C43.1865 42.5567 42.9152 42.3367 42.6982 42.0618C42.4812 41.7869 42.2641 41.457 41.9929 41.1271C41.6673 40.6323 41.3961 40.1374 41.1248 39.6426C40.962 39.3677 40.8535 39.0927 40.745 38.8178C40.6365 38.5979 40.528 38.323 40.4195 38.0481C40.3652 37.7732 40.311 37.4982 40.2567 37.2233L40.1482 36.6735C40.0939 36.3986 40.0939 36.1787 40.0939 35.9037V35.3539L40.1482 34.8591C40.2024 34.5292 40.311 34.2543 40.3652 33.9244L40.528 33.1546C40.6365 32.8247 40.6907 32.4398 40.745 32.0549V31.3952V31.1202V30.7903V30.5154L40.6907 30.2405L40.6365 29.9656L40.528 29.7457L40.4195 29.5257L40.311 29.3058L40.2024 29.0859L40.0397 28.9209L39.8769 28.701L39.7142 28.536L39.4971 28.3711L39.2259 28.2611L39.0088 28.0962L38.6833 27.9862L38.412 27.8763L38.0323 27.7663L37.6525 27.7113L37.2727 27.6563L36.8386 27.6013L36.4046 27.5464L35.9163 27.4914H35.645C37.544 28.3711 40.528 27.8763 39.7142 32.8797C38.9003 38.4879 40.2024 39.4776 43.078 42.9965ZM23.1664 33.7594C23.3292 33.2096 23.6005 33.0446 23.8717 33.1546C24.0345 33.2096 24.0888 33.2096 24.1973 33.5395C24.1973 33.9244 24.1973 34.4192 24.2515 34.6391C24.2515 34.8591 24.36 34.8041 24.4685 34.7491C24.5228 34.6941 24.5228 34.5292 24.5228 33.8694C25.0653 33.9793 25.2824 33.9793 25.5536 34.3092C25.7164 34.5292 25.8249 34.8041 26.0419 35.024C26.0962 35.079 26.0962 35.134 26.1504 35.189C26.3132 35.3539 26.4217 35.4089 26.5845 35.4639C26.8558 35.5189 27.2898 35.5189 27.5068 35.2989C27.6696 35.134 27.8323 34.9141 27.8866 34.6941C28.4834 35.079 28.8632 34.8591 29.6228 34.8041C29.7313 34.9141 29.8398 35.024 30.0025 35.079C30.2196 35.189 30.5451 35.079 30.7621 35.024C31.5217 34.7491 32.444 34.3642 33.2036 34.0893C33.2036 33.9793 33.2578 32.6598 33.2578 32.6598C33.3663 32.7697 33.4748 32.6048 33.5834 32.7147C33.6376 32.6598 33.8004 32.7147 33.9089 32.7147C33.9631 32.8797 34.1259 33.0996 34.1802 33.3195C33.8546 32.2199 33.8004 31.0653 33.8546 30.0206C33.6376 29.5807 33.5834 29.6907 33.3121 29.8556C33.3121 30.1305 33.2036 30.4604 33.2036 30.7354C32.7695 33.3195 32.1727 34.2543 30.7621 31.6151C30.111 31.2302 29.677 31.3952 29.7855 32.2749C29.7855 32.9347 29.1887 32.9897 28.8632 32.5498C28.2664 31.78 27.6696 31.0103 27.0728 30.2405C26.3132 32.4398 25.1739 31.5601 24.3058 30.0206C23.9803 29.7457 23.6547 29.8006 23.3292 30.1305C23.1664 30.6254 23.2749 31.725 23.492 32.3848C23.1664 32.8797 22.7866 32.8797 22.8409 34.1443C23.0579 35.8488 23.1122 36.8934 22.7324 38.433C22.2441 40.5223 22.7866 42.8316 22.9494 43.6563C22.9494 43.9312 22.9494 44.2062 22.9494 44.4261L23.0579 44.2062L23.4377 43.3814C23.3834 43.2714 23.2749 43.1615 23.2207 43.0515C23.1664 42.9415 23.1122 42.8316 23.0579 42.6666C23.0037 42.5017 22.9494 42.3917 22.9494 42.2268C22.8952 42.0618 22.8952 41.8969 22.8952 41.7319C22.8409 41.347 22.8952 41.0171 22.8952 40.6872L22.9494 40.3024C23.1664 39.4226 23.4377 38.5979 23.5462 37.6632C23.5462 37.1683 23.5462 36.7285 23.492 36.2886C23.3292 35.2989 23.1664 34.4192 23.1664 33.7594ZM17.958 30.1305C16.3846 30.6254 15.0282 28.701 14.4314 28.2062C14.4857 28.4261 14.4314 28.701 15.0282 29.3608C16.3303 31.0103 16.9271 31.5051 16.6016 33.0996C17.1441 33.0446 17.1984 32.9347 17.7409 32.8797C16.8186 31.78 17.8495 30.5154 17.958 30.1305ZM20.8335 29.9106C20.8877 29.5807 21.1047 29.2508 21.4303 28.9759C22.1356 28.646 23.9803 28.3161 24.0888 28.3161C23.9803 28.2611 23.0037 28.4261 21.4845 28.536C21.376 28.536 21.2133 28.536 21.1047 28.536C20.8335 28.4811 20.5622 28.536 20.3452 28.4811C20.2909 28.4261 20.0196 28.2062 20.0196 28.2062C20.0196 28.3161 20.0196 28.3711 19.9654 28.4811L19.9111 28.9759L19.4228 29.0309L19.2058 28.8659C19.0431 28.811 18.9346 28.701 18.826 28.591C18.7718 28.536 18.6633 28.4261 18.609 28.3161C18.5005 28.2062 18.4463 28.0962 18.392 27.9312V27.8213L18.3377 27.7113V27.6013C18.2835 27.3814 18.392 27.0515 18.392 26.8316C17.3069 24.9072 16.4388 22.9828 15.5165 21.1684C15.2995 21.0584 15.191 20.8385 15.0282 20.6735L14.9739 20.8385C14.9197 21.0584 14.9739 20.8934 14.8112 21.0584C15.7335 21.4433 16.1133 23.3127 16.8729 24.8522C17.1984 26.0068 17.1441 27.4914 17.7409 27.7113L19.0973 29.2508C19.3143 29.8556 19.5856 29.9656 19.7484 30.1305L19.8026 29.4158C19.9111 29.1409 20.0739 29.1409 20.1824 29.3058L20.8335 29.9106ZM19.4771 31.78C18.9346 31.725 19.3143 33.2646 19.0973 34.0343C19.3143 34.2543 19.5856 34.3642 19.8569 34.2543C19.7484 33.5395 19.5856 32.5498 19.4771 31.78ZM12.424 17.2646C12.5867 17.1546 12.9665 16 13.2378 15.78L16.059 13.2508L15.9505 13.0309L15.8963 12.756C15.7878 12.9209 15.6793 13.2508 15.5707 13.3608C14.9739 13.8556 14.4314 14.3505 13.8346 14.9553L13.1835 15.3402H12.9665L12.1527 17.1546L12.424 17.2646ZM7.54103 24.3024C8.19209 24.3574 8.46336 23.9725 8.46336 23.8625C8.24634 24.0275 7.92081 24.1924 7.54103 24.3024ZM12.5867 24.1374C12.858 24.5773 13.0208 25.0171 13.1835 25.457C13.3463 25.9519 13.5091 26.4467 13.5633 26.9415C13.6718 27.3814 13.7261 27.8213 13.7803 28.2611C13.8346 28.591 13.9431 28.9759 13.9974 29.3608C14.1059 29.6907 14.2144 30.0206 14.3229 30.4055C14.4314 30.7354 14.5399 31.0653 14.7027 31.4501C14.8112 31.78 14.9739 32.1099 15.1367 32.4398C15.2995 32.7697 15.4622 33.0996 15.6793 33.3745C15.842 33.7044 16.059 34.0343 16.2761 34.3642C16.4388 34.6391 16.6558 34.9141 16.8729 35.189C17.0899 35.134 17.3612 35.079 17.4697 34.8041C17.3612 34.1443 17.0899 33.9244 16.8186 33.4295C17.0356 33.3745 17.5782 33.1546 17.7952 33.1546C17.8495 33.6494 17.7952 34.3092 18.2292 34.8041C18.5005 35.079 19.0431 35.134 19.0973 34.7491C19.0973 34.4742 19.0973 34.3092 19.0973 34.1993C19.3686 34.4742 19.5856 34.5292 19.9111 34.4192C19.4771 34.9141 19.9654 36.7835 21.2675 38.1031C21.6473 40.6872 21.8643 41.6769 22.5696 43.7113C22.5696 45.0309 22.7324 45.9656 23.3834 46.2955C23.3834 46.2955 23.492 46.2955 23.492 46.3505C23.8175 46.4055 23.8175 46.2955 23.8175 46.2405C23.1664 45.5807 23.0579 44.9759 23.4377 44.4261L23.8175 43.3264L23.709 43.1065C22.8952 42.0618 23.2749 40.0275 23.926 37.7182C23.926 36.1237 23.7632 34.969 23.4377 34.3092C23.3292 33.8144 23.5462 33.6494 23.926 33.6494L24.0345 34.8591C24.1973 35.134 24.4143 35.134 24.6856 34.8041V34.2543C24.9568 34.1993 25.1739 34.3092 25.2824 34.5842C25.6622 35.2439 26.0419 35.8488 26.7472 35.8488C27.3441 35.9037 27.8866 35.7938 28.0494 35.024C28.2664 35.189 28.8089 35.134 29.46 35.079C29.7313 35.2989 30.111 35.5189 30.9249 35.2439L33.3663 34.4192L33.4206 32.9347H33.8004C33.6376 31.945 34.5599 38.158 39.2259 40.1924C39.6056 40.4673 40.0397 40.7422 40.4195 40.9622C40.8535 41.2921 41.2875 41.6769 41.6673 42.0618C41.9386 42.2817 42.1556 42.5017 42.3726 42.7766C42.8609 43.2714 43.2407 43.8213 43.6205 44.3711L43.7833 44.591L44.1631 44.756L44.3258 44.4261C44.3258 43.6013 43.8918 42.7766 43.4035 42.2268C41.3418 40.0275 39.9312 36.8934 40.6365 34.4742C41.8301 29.9656 41.2333 27.1065 35.3738 27.1065L26.3675 27.7663L22.3526 28.0962C22.0813 28.1512 21.8643 28.2062 21.593 28.2062C21.4303 28.1512 21.2675 28.1512 21.0505 28.1512C20.8335 28.0962 20.6165 28.0412 20.3994 27.9312C19.5314 27.5464 19.4771 28.4811 19.6941 28.701C19.0973 28.536 18.6633 27.8213 18.7718 27.5464C18.609 27.4364 18.8803 26.7766 18.7718 26.6666L15.7878 20.8934C15.2995 20.6185 15.2995 20.0687 14.7569 20.1787C14.5942 20.8934 14.4857 21.1134 14.2686 21.1684C13.7261 21.4983 13.3463 22.213 13.5633 23.2027C13.1293 23.3677 12.858 23.6976 12.5867 24.1374ZM23.709 47.0103C23.709 47.0653 23.709 47.0653 23.709 47.0653L24.2515 51.024L24.3058 51.134L24.9026 51.024V50.5842L24.3058 47.0103H23.709ZM24.4685 52.4536L24.4143 52.9484C24.3058 53.0584 24.2515 53.1684 24.1973 53.2783C24.0888 53.4433 24.0345 53.6082 23.9803 53.8281C23.926 53.9381 23.926 54.0481 23.926 54.213C23.926 54.268 24.0888 54.158 24.0888 54.213L24.5771 54.268C24.5771 54.0481 24.5771 53.9931 24.8483 53.9381L25.2824 53.7732L25.3909 53.6632L25.4994 53.5532L25.5536 53.4433V53.2783C25.5536 53.1684 25.5536 53.1134 25.5536 53.0034L25.4994 52.8385C25.3909 52.6735 25.3366 52.5086 25.2824 52.3436V52.2886L24.4685 52.4536ZM23.926 54.7629L23.0037 56.0824L24.3058 56.0275C24.4685 56.0275 24.7398 56.0275 24.8483 55.8625L24.5771 55.0378C24.5228 54.9828 24.5228 54.9278 24.4685 54.7629H23.926ZM43.4035 51.189L43.078 51.5189C42.7524 51.9037 42.9152 51.6838 42.6982 52.1237L43.6748 52.4536V51.7938L43.729 51.2439L43.4035 51.189ZM42.4269 52.7835C42.3184 53.1134 42.2641 53.3883 42.2099 53.7732H43.5663V53.2233L42.4269 52.7835ZM37.3269 50.8041C37.2184 50.9141 37.1642 51.024 37.1099 51.189C37.0557 51.2989 36.8386 51.5189 36.7301 51.6838L37.2184 51.7388L37.5982 51.6838C37.7067 51.4639 37.761 51.2439 37.8152 51.024L37.3269 50.8041ZM36.0248 52.6735L35.3738 53.6082L36.3504 53.6632L36.5674 52.8385L36.0248 52.6735ZM19.9654 40.5773C19.9654 41.2371 19.6399 41.8419 20.0739 42.5017L20.5079 43.0515C20.4537 43.4914 20.1824 43.7663 20.1824 44.2611C20.1282 44.811 20.2909 45.4158 20.4537 45.8556L20.5622 45.6357C20.4537 45.0309 20.5079 44.4811 20.7792 44.0412C21.159 43.8213 21.159 43.3264 21.159 42.8316C20.0196 42.6116 20.1824 41.2371 20.1282 40.6872C20.0739 40.3574 20.1824 40.6323 19.9654 40.5773ZM20.2909 46.9003L19.7484 49.8694L19.8026 50.1443C20.0739 49.6494 20.2909 49.1546 20.3994 48.7147L20.4537 48C20.4537 47.6151 20.4537 47.2852 20.4537 46.9003H20.2909ZM19.0431 51.9587C18.9888 52.0137 18.8803 51.9037 18.826 51.9587C18.7175 52.1237 18.826 51.9037 18.7175 52.1237C18.5548 52.3436 18.4463 52.5635 18.3377 52.7835C18.175 53.0034 18.0122 53.2783 17.7952 53.4982C17.5239 53.8831 17.1441 54.213 16.8729 54.5979L17.6324 54.7079L18.175 54.158H19.0431C19.0431 53.7732 18.9346 53.3883 19.0973 53.0034C19.1516 52.8385 18.9888 52.7835 18.9888 52.6185L19.1516 51.9587H19.0431ZM11.6101 19.9037L11.0676 20.0137C10.7421 19.9587 10.4708 20.1787 10.4165 20.5635L10.091 21.0584L10.1453 21.1134L10.5793 20.9484C11.1761 21.0584 11.4474 20.6185 11.3931 20.3986L11.6644 20.0137L11.6101 19.9037ZM24.0888 44.4811C23.7632 44.3711 23.6005 44.4811 23.6005 44.8659C23.9803 45.1409 24.0888 45.5807 23.9803 46.1305C24.0888 46.3505 24.2515 46.2955 24.4143 46.1855C24.6313 45.5807 24.6313 45.0309 24.0888 44.4811Z" fill="white" stroke="white" stroke-width="0.0549828"/>
</svg>
