<svg width="53" height="64" viewBox="0 0 53 64" fill="none" xmlns="http://www.w3.org/2000/svg">
<g clip-path="url(#clip0_807_398)">
<path fill-rule="evenodd" clip-rule="evenodd" d="M0.636719 0.597168V54.6511C0.636719 57.2189 2.96112 59.2788 5.8587 59.2788H21.05C23.9476 59.2788 26.272 60.8348 26.272 63.4027C26.272 60.8348 28.6196 59.2788 31.5172 59.2788H46.6597C49.5573 59.2788 51.8817 57.2189 51.8817 54.6511V0.597168H0.636719Z" fill="#F71A22" stroke="#1A1A1A" stroke-width="0.507937"/>
<path fill-rule="evenodd" clip-rule="evenodd" d="M25.3914 8.06294L24.0914 5.01532H28.2513L26.9514 8.06294L30.0713 6.7931V10.8566L26.9514 9.58675L28.2513 12.6344H24.0914L25.3914 9.58675L22.2715 10.8566V6.7931L25.3914 8.06294Z" fill="white" stroke="#333333" stroke-width="0.304762"/>
<path fill-rule="evenodd" clip-rule="evenodd" d="M11.0232 45.9888C11.0232 45.9888 10.7536 46.9102 10.6557 47.5678C10.5512 48.2694 10.6181 48.6911 10.6181 48.6911C10.6181 48.6911 10.3645 48.1996 10.3235 47.6557C10.2802 47.0811 10.4493 46.4713 10.4493 46.4713L10.9304 45.7435L11.0232 45.9888Z" fill="white" stroke="#1A1A1A" stroke-width="0.214207"/>
<path fill-rule="evenodd" clip-rule="evenodd" d="M13.1174 28.0064C12.9995 28.159 12.8674 28.3873 12.8168 28.572C12.758 28.7865 12.804 29.1376 12.8502 29.3551C12.9107 29.6394 13.1842 30.1817 13.1842 30.1817L14.409 30.1926C14.409 30.1926 14.85 29.4838 14.9101 29.1267C14.9522 28.8762 14.885 28.5245 14.7876 28.2892C14.6979 28.0726 14.533 27.7646 14.32 27.6584C14.079 27.5382 13.7586 27.55 13.5071 27.6475C13.3578 27.7054 13.2143 27.8812 13.1174 28.0064Z" fill="white" stroke="#1A1A1A" stroke-width="0.253968"/>
<path fill-rule="evenodd" clip-rule="evenodd" d="M13.3945 28.9744C13.3945 28.9744 13.3981 28.6632 13.4613 28.5502C13.5511 28.39 13.523 28.3822 13.6952 28.3109C13.7723 28.279 13.8924 28.2686 13.9735 28.2892C14.0901 28.3188 14.2418 28.4082 14.3076 28.5067C14.4242 28.6815 14.43 29.1919 14.43 29.1919C14.43 29.1919 14.114 28.8341 13.929 28.8004C13.81 28.7787 13.8208 28.7514 13.7063 28.7895C13.6027 28.824 13.3945 28.9744 13.3945 28.9744Z" fill="#1A1A1A" stroke="#1A1A1A" stroke-width="0.253968"/>
<path fill-rule="evenodd" clip-rule="evenodd" d="M11.4138 46.1665C11.4138 46.1665 11.1442 47.088 11.0463 47.7455C10.9419 48.4472 11.0087 48.8688 11.0087 48.8688C11.0087 48.8688 10.7551 48.3774 10.7141 47.8334C10.6708 47.2588 10.8399 46.649 10.8399 46.649L11.321 45.9213L11.4138 46.1665Z" fill="white" stroke="#1A1A1A" stroke-width="0.214207"/>
<path fill-rule="evenodd" clip-rule="evenodd" d="M11.8396 46.2803C11.8396 46.2803 11.57 47.2017 11.4721 47.8593C11.3677 48.5609 11.4345 48.9826 11.4345 48.9826C11.4345 48.9826 11.1809 48.4911 11.1399 47.9472C11.0966 47.3726 11.2657 46.7628 11.2657 46.7628L11.7468 46.035L11.8396 46.2803Z" fill="white" stroke="#1A1A1A" stroke-width="0.214207"/>
<path fill-rule="evenodd" clip-rule="evenodd" d="M12.1851 45.4742C12.1851 45.4742 12.2168 46.432 12.1479 47.0931C12.0742 47.7985 11.9043 48.1915 11.9043 48.1915C11.9043 48.1915 12.2727 47.7752 12.4481 47.2574C12.6334 46.7104 12.6215 46.0788 12.6215 46.0788L12.3363 45.2584L12.1851 45.4742Z" fill="white" stroke="#1A1A1A" stroke-width="0.214207"/>
<path fill-rule="evenodd" clip-rule="evenodd" d="M19.7037 38.5232C19.7037 38.5232 14.2844 40.9383 12.5093 42.6653C11.8258 43.3303 11.2911 44.5191 10.8655 45.3647C10.6858 45.7219 10.3652 46.5981 10.3652 46.5981C10.3652 46.5981 10.937 47.0417 11.2943 47.0635C11.5582 47.0795 12.0569 46.9617 12.271 46.8308C12.5013 46.6899 12.7436 46.502 12.9143 46.2955C13.1536 46.006 13.3633 45.3176 13.4671 44.9595C13.5202 44.7762 13.5098 44.6906 13.5098 44.6906C13.5098 44.6906 13.6492 44.8625 13.6893 45.0622C13.7442 45.3362 13.7794 45.861 13.7794 45.861C13.7794 45.861 14.2945 45.3644 14.3913 45.0389C14.447 44.8512 14.3913 44.3874 14.3913 44.3874C14.3913 44.3874 14.6396 44.8294 14.6771 45.0389C14.719 45.2731 14.6295 45.8301 14.6295 45.8301C14.6295 45.8301 15.2299 45.3175 15.3442 45.0157C15.4235 44.8061 15.3442 44.271 15.3442 44.271C15.3442 44.271 15.5708 44.7345 15.63 44.9458C15.6834 45.1363 15.7253 45.5974 15.7253 45.5974C15.7253 45.5974 16.0869 45.1859 16.1541 44.9691C16.2411 44.6885 16.1541 43.9918 16.1541 43.9918C16.1541 43.9918 16.3848 44.4256 16.4638 44.6201C16.5772 44.8991 16.7735 45.5742 16.7735 45.5742C16.7735 45.5742 17.1728 44.9144 17.2261 44.5968C17.2726 44.3199 17.1308 43.666 17.1308 43.666C17.1308 43.666 17.2697 44.2858 17.3929 44.527C17.4841 44.7056 17.7979 45.0622 17.7979 45.0622C17.7979 45.0622 18.0075 44.6496 18.0361 44.4572C18.0752 44.1938 17.9646 43.5729 17.9646 43.5729C17.9646 43.5729 18.0568 44.3288 18.2743 44.5503C18.5106 44.7908 19.3463 44.9226 19.3463 44.9226L21.4427 42.9213L19.7037 38.5232Z" fill="white" stroke="#1A1A1A" stroke-width="0.253968"/>
<path fill-rule="evenodd" clip-rule="evenodd" d="M31.46 51.3979C31.46 51.3979 30.5003 51.5969 29.8597 51.8205C29.1762 52.0591 28.8262 52.3142 28.8262 52.3142C28.8262 52.3142 29.1519 51.8652 29.6246 51.575C30.124 51.2684 30.7547 51.1287 30.7547 51.1287L31.6383 51.2029L31.46 51.3979Z" fill="white" stroke="#1A1A1A" stroke-width="0.214207"/>
<path fill-rule="evenodd" clip-rule="evenodd" d="M31.0596 50.9564C31.0596 50.9564 30.0999 51.1554 29.4593 51.379C28.7758 51.6175 28.4258 51.8727 28.4258 51.8727C28.4258 51.8727 28.7515 51.4237 29.2242 51.1335C29.7236 50.8269 30.3543 50.6871 30.3543 50.6871L31.2379 50.7614L31.0596 50.9564Z" fill="white" stroke="#1A1A1A" stroke-width="0.214207"/>
<path fill-rule="evenodd" clip-rule="evenodd" d="M30.6475 50.5141C30.6475 50.5141 29.6878 50.7132 29.0472 50.9367C28.3637 51.1753 28.0137 51.4305 28.0137 51.4305C28.0137 51.4305 28.3394 50.9814 28.8121 50.6912C29.3115 50.3846 29.9422 50.2449 29.9422 50.2449L30.8258 50.3191L30.6475 50.5141Z" fill="white" stroke="#1A1A1A" stroke-width="0.214207"/>
<path fill-rule="evenodd" clip-rule="evenodd" d="M29.1777 41.4555V43.7952C29.1777 43.7952 29.1967 44.3352 29.2511 44.5593C29.2987 44.7558 29.5014 45.1863 29.5014 45.1863L29.9546 44.4275V44.1113C29.9546 44.1113 29.8939 44.9793 29.9546 45.3444C29.9939 45.5813 30.2135 46.1032 30.2135 46.1032L30.5048 45.376L30.5372 45.1231C30.5372 45.1231 30.4166 45.8221 30.4401 46.2297C30.4539 46.4695 30.5695 47.0202 30.5695 47.0202L30.9256 46.4827L31.0227 46.1032C31.0227 46.1032 30.9146 46.6652 30.9256 47.0834C30.9319 47.3221 31.0227 47.8738 31.0227 47.8738L31.4111 47.2415L31.5406 46.9253C31.5406 46.9253 31.4007 47.6535 31.4111 47.9687C31.4162 48.123 31.5082 48.4746 31.5082 48.4746L31.9614 47.8738C31.9614 47.8738 31.7755 48.3765 31.7348 48.601C31.7042 48.7694 31.7024 49.1701 31.7024 49.1701C31.7024 49.1701 30.8917 49.8744 30.4724 50.0554C30.246 50.1532 29.86 50.0667 29.6632 50.2135C29.5942 50.265 29.5316 50.3817 29.5338 50.4665C29.5468 50.9675 29.7491 51.5496 30.2135 51.7628C30.5617 51.9227 31.2818 51.8424 31.6377 51.6995C31.9864 51.5595 32.2916 51.1072 32.6734 51.004C33.0962 50.8896 33.7122 51.2612 34.13 51.1304C34.471 51.0237 34.8819 50.6872 35.0363 50.3716C35.1787 50.0805 35.1642 49.6055 35.0686 49.2966C34.986 49.0296 34.6802 48.5694 34.6802 48.5694C34.6802 48.5694 34.807 48.0191 34.8097 47.779C34.8128 47.5013 34.6802 47.115 34.6802 47.115C34.6802 47.115 34.8929 47.5309 35.0039 47.8106C35.0385 47.8977 35.1334 48.0952 35.1334 48.0952C35.1334 48.0952 35.2578 47.7456 35.2629 47.5893C35.2746 47.2229 35.1657 46.6724 35.1657 46.6724C35.1657 46.6724 35.2242 47.0397 35.3923 47.2731C35.4517 47.3556 35.6513 47.4944 35.6513 47.4944V46.704L35.4894 45.9452L35.8455 46.6724C35.8455 46.6724 36.0449 45.9694 36.0397 45.6606C36.0307 45.136 35.6513 43.9533 35.6513 43.9533L35.9426 42.1827L30.8285 40.6967L29.1777 41.4555Z" fill="white" stroke="#1A1A1A" stroke-width="0.253968"/>
<path fill-rule="evenodd" clip-rule="evenodd" d="M19.6456 52.0001C19.6456 52.0001 18.6859 52.1991 18.0453 52.4227C17.3617 52.6612 17.0117 52.9164 17.0117 52.9164C17.0117 52.9164 17.3374 52.4674 17.8101 52.1772C18.3095 51.8706 18.9403 51.7308 18.9403 51.7308L19.8239 51.8051L19.6456 52.0001Z" fill="white" stroke="#1A1A1A" stroke-width="0.214207"/>
<path fill-rule="evenodd" clip-rule="evenodd" d="M19.2471 51.5586C19.2471 51.5586 18.2874 51.7576 17.6468 51.9812C16.9633 52.2197 16.6133 52.4749 16.6133 52.4749C16.6133 52.4749 16.939 52.0259 17.4117 51.7356C17.9111 51.4291 18.5418 51.2893 18.5418 51.2893L19.4254 51.3636L19.2471 51.5586Z" fill="white" stroke="#1A1A1A" stroke-width="0.214207"/>
<path fill-rule="evenodd" clip-rule="evenodd" d="M18.835 51.1164C18.835 51.1164 17.8753 51.3154 17.2347 51.539C16.5512 51.7776 16.2012 52.0327 16.2012 52.0327C16.2012 52.0327 16.5269 51.5837 16.9996 51.2935C17.499 50.9869 18.1297 50.8472 18.1297 50.8472L19.0133 50.9214L18.835 51.1164Z" fill="white" stroke="#1A1A1A" stroke-width="0.214207"/>
<path fill-rule="evenodd" clip-rule="evenodd" d="M40.8155 51.7757C40.8155 51.7757 39.8558 51.9747 39.2152 52.1983C38.5317 52.4369 38.1816 52.6921 38.1816 52.6921C38.1816 52.6921 38.5073 52.243 38.98 51.9528C39.4794 51.6462 40.1102 51.5065 40.1102 51.5065L40.9938 51.5807L40.8155 51.7757Z" fill="white" stroke="#1A1A1A" stroke-width="0.214207"/>
<path fill-rule="evenodd" clip-rule="evenodd" d="M40.4171 51.3343C40.4171 51.3343 39.4573 51.5333 38.8168 51.7569C38.1332 51.9955 37.7832 52.2506 37.7832 52.2506C37.7832 52.2506 38.1089 51.8016 38.5816 51.5114C39.081 51.2048 39.7117 51.0651 39.7117 51.0651L40.5954 51.1393L40.4171 51.3343Z" fill="white" stroke="#1A1A1A" stroke-width="0.214207"/>
<path fill-rule="evenodd" clip-rule="evenodd" d="M40.003 50.8921C40.003 50.8921 39.0433 51.0911 38.4027 51.3146C37.7192 51.5532 37.3691 51.8084 37.3691 51.8084C37.3691 51.8084 37.6948 51.3593 38.1675 51.0691C38.6669 50.7626 39.2977 50.6228 39.2977 50.6228L40.1813 50.6971L40.003 50.8921Z" fill="white" stroke="#1A1A1A" stroke-width="0.214207"/>
<path fill-rule="evenodd" clip-rule="evenodd" d="M13.1687 29.6985C12.8132 29.7335 12.3351 29.8393 12.019 30.002C11.6505 30.1918 11.2163 30.5596 10.9626 30.8823C10.7954 31.0949 10.7191 31.4647 10.5684 31.6888C10.4569 31.8546 10.2816 32.0627 10.1236 32.1874C9.73414 32.4948 9.16634 32.7254 8.69112 32.8795C8.49467 32.9432 8.24873 32.8691 8.06966 32.9705C7.93739 33.0454 7.79072 33.219 7.75893 33.3651C7.70112 33.6308 7.80283 33.9965 7.9143 34.2454C7.95471 34.3356 8.10073 34.5185 8.10073 34.5185C8.10073 34.5185 8.08593 35.0152 8.22503 35.2166C8.28866 35.3088 8.43944 35.4913 8.53575 35.5505C8.6806 35.6395 9.03292 35.8237 9.03292 35.8237C9.03292 35.8237 9.08702 36.1931 9.18829 36.3094C9.33688 36.4799 9.87189 36.6432 9.87189 36.6432L11.612 36.6129C11.612 36.6129 12.0187 36.9768 12.1928 37.1962C12.3077 37.341 12.3994 37.7187 12.3994 37.7187C12.3994 37.7187 12.6704 37.2709 12.6576 37.0497C12.6461 36.8511 12.6842 36.7287 12.6842 36.7287C12.6842 36.7287 12.8004 36.9252 12.9062 37.1908C12.98 37.3762 13.0546 37.6966 13.0546 37.6966C13.0546 37.6966 13.3869 37.4503 13.4277 37.2832C13.4754 37.0875 13.5481 37.1479 13.5481 36.6288C13.5481 36.6288 13.6469 37.2546 13.6628 37.4931C13.6763 37.6963 13.575 38.0539 13.575 38.0539C13.575 38.0539 13.9559 37.8123 14.0667 37.6145C14.1202 37.5192 14.3293 37.1816 14.385 36.8743C14.4638 36.4386 14.4427 36.344 14.4427 36.344C14.4427 36.344 14.4697 36.4632 14.4512 36.8984C14.4365 37.2454 14.4289 37.3933 14.4302 37.5186C14.4321 37.7049 14.4613 37.9829 14.4613 37.9829C14.4613 37.9829 14.7222 37.8296 14.8436 37.5842C14.9873 37.2936 15.1735 36.7955 15.1735 36.7955C15.1735 36.7955 14.979 37.4423 14.9989 37.827C15.0062 37.967 15.103 38.283 15.103 38.283L15.6882 37.5027C15.6882 37.5027 15.4134 38.4047 15.4029 38.7072C15.3968 38.8804 15.4339 39.2839 15.4339 39.2839C15.4339 39.2839 15.7502 38.8545 15.8379 38.6465C15.9326 38.4218 16.1466 38.2752 16.1466 38.2752C16.1466 38.2752 16.03 38.4321 16.0554 38.6769C16.0783 38.8973 16.2083 39.1856 16.1797 39.4053C16.1681 39.4943 16.0554 39.6785 16.0554 39.6785C16.0554 39.6785 16.383 39.5625 16.4904 39.466C16.6353 39.3361 16.8017 39.1883 16.8017 39.1883L16.6147 39.6482C16.6147 39.6482 16.271 40.0448 16.2418 40.2552C16.2147 40.4507 16.4221 40.8888 16.4221 40.8888C16.4221 40.8888 16.4947 40.6486 16.5526 40.5587C16.6685 40.3788 16.8053 40.3114 16.8053 40.3114C16.8053 40.3114 16.8392 40.7469 16.8705 41.053C16.8906 41.2484 17.1134 41.6631 17.1134 41.6631L17.4257 41.1886L17.5422 41.1102C17.5422 41.1102 17.3811 41.6552 17.4113 42.0359C17.4249 42.2072 17.5992 42.5782 17.5992 42.5782L17.8768 42.2393L18.1197 42.0334C18.1197 42.0334 17.9351 42.5441 17.9462 42.8833C17.954 43.1225 18.1197 43.6628 18.1197 43.6628L18.4667 43.1883L18.579 42.9526C18.579 42.9526 18.465 43.5153 18.492 43.8612C18.5085 44.0734 18.6908 44.5433 18.6908 44.5433L19.1606 43.8662L19.2994 43.7741C19.2994 43.7741 18.9965 44.5751 19.0074 45.0072C19.013 45.231 19.1953 45.7304 19.1953 45.7304L19.577 45.1203L19.6935 45.0282C19.6935 45.0282 19.4969 45.5242 19.4729 45.832C19.4569 46.0371 19.577 46.5099 19.577 46.5099L19.9224 46.3258C19.9224 46.3258 19.7953 46.7241 19.7606 47.0755C19.7436 47.2483 19.8503 47.6475 19.8503 47.6475L20.1917 47.3765C20.1917 47.3765 20.0485 47.7642 20.0534 48.1029C20.0566 48.3214 20.2486 48.5802 20.2811 48.7964C20.3046 48.9528 20.271 49.3231 20.271 49.3231L20.7567 48.9503L20.9774 48.7864C20.9774 48.7864 20.7471 49.1675 20.6179 49.4248C20.5523 49.5555 20.4098 49.8654 20.4098 49.8654C20.4098 49.8654 19.415 50.5718 18.9177 50.7128C18.6576 50.7865 18.2094 50.5618 18.0156 50.7467C17.8962 50.8605 17.9365 51.1318 17.9809 51.289C18.0984 51.7049 18.3972 52.3312 18.8136 52.4753C19.1924 52.6063 19.6979 52.1442 20.0975 52.1024C20.9175 52.0167 22.0469 52.4092 22.8386 52.1836C23.2383 52.0697 23.7855 51.8664 23.949 51.4923C24.0848 51.1814 23.8102 50.3738 23.8102 50.3738L23.949 49.4587L24.2959 50.1366L24.5735 49.6621L24.3306 48.4419L24.6429 49.1198L24.8858 48.6452V47.4928L25.2675 48.1368C25.2675 48.1368 25.4168 47.6454 25.4088 47.4292C25.3944 47.0384 25.1771 46.5162 25.1771 46.5162L25.5451 46.9166C25.5451 46.9166 25.6803 46.4969 25.6602 46.314C25.6249 45.9934 25.3506 45.4848 25.3506 45.4848C25.3506 45.4848 25.4316 45.6814 25.5798 45.7642C25.6526 45.805 25.8574 45.7981 25.8574 45.7981C25.8574 45.7981 25.8041 45.1407 25.7414 44.8657C25.6569 44.4949 25.5725 43.9851 25.5725 43.9851L25.8227 44.2051C25.8227 44.2051 25.8498 43.8903 25.8295 43.7575C25.7784 43.4217 25.6171 42.9791 25.6171 42.9791C25.6171 42.9791 25.7181 43.1469 25.8574 43.3239C25.956 43.4493 26.239 43.6967 26.239 43.6967C26.239 43.6967 26.2601 43.0273 26.2043 42.7477C26.1345 42.3972 25.788 41.6292 25.788 41.6292C25.788 41.6292 26.2988 42.6877 26.4675 43.1115C26.5225 43.2494 26.6207 43.4595 26.6207 43.4595C26.6207 43.4595 26.8032 42.9894 26.8482 42.7793C26.8799 42.6313 26.8979 42.4385 26.8979 42.4385C26.8979 42.4385 26.8227 42.9881 26.9311 43.2651C27.0168 43.4841 27.4449 43.8641 27.4449 43.8641C27.4449 43.8641 27.5393 43.309 27.5775 43.0708C27.6242 42.7796 27.7267 42.6287 27.7267 42.6287C27.7267 42.6287 27.6969 42.7942 27.793 43.0708C27.8737 43.3029 28.2571 43.7508 28.2571 43.7508C28.2571 43.7508 28.3963 43.359 28.4228 43.1841C28.4681 42.8862 28.5101 42.7787 28.5101 42.7787C28.5101 42.7787 28.6106 42.9131 28.7543 43.2003C28.8185 43.3286 29.0361 43.5889 29.0361 43.5889C29.0361 43.5889 29.2752 43.1957 29.3013 43.006C29.3543 42.6213 29.3616 42.3944 29.3616 42.3944C29.3616 42.3944 29.5512 42.4483 29.6328 42.7955C29.6862 43.0228 29.6328 43.5727 29.6328 43.5727C29.6328 43.5727 30.0349 43.3586 30.13 43.2003C30.2521 42.9971 30.2785 42.9098 30.2461 42.6763C30.2278 42.5449 30.2758 42.3636 30.2758 42.3636C30.2758 42.3636 30.4099 42.4823 30.4781 42.7146C30.5632 43.0042 30.5113 43.7184 30.5113 43.7184C30.5113 43.7184 30.8388 43.4465 30.9244 43.2071C30.9703 43.0786 30.9945 42.9073 30.9945 42.9073C30.9945 42.9073 30.9826 43.2194 31.0349 43.4844C31.0607 43.6155 31.2074 43.8965 31.2074 43.8965C31.2074 43.8965 31.5255 43.4382 31.6052 43.2165C31.6686 43.0402 31.7047 42.9465 31.7047 42.9465C31.7047 42.9465 31.6627 43.1523 31.7212 43.3784C31.7719 43.5743 32.0362 43.9775 32.0362 43.9775C32.0362 43.9775 32.299 43.4111 32.3511 43.1517C32.3826 42.9944 32.3676 42.8936 32.3676 42.8936C32.3676 42.8936 32.5242 43.1899 32.6163 43.427C32.696 43.6322 32.9312 44.0908 32.9312 44.0908C32.9312 44.0908 33.128 43.623 33.1632 43.4108C33.2078 43.1423 33.2339 43.1025 33.2339 43.1025C33.2339 43.1025 33.3112 43.2243 33.445 43.5079C33.5154 43.6572 33.7599 43.9613 33.7599 43.9613C33.7599 43.9613 33.8725 43.6022 33.8925 43.4432C33.9345 43.1105 33.8925 42.326 33.8925 42.326C33.8925 42.326 34.165 43.1685 34.2118 43.5424C34.2329 43.7105 34.2075 44.107 34.2075 44.107C34.2075 44.107 34.412 43.8695 34.4714 43.7512C34.558 43.5784 34.655 43.4348 34.655 43.4348L34.7654 43.8965L34.8373 44.6089L35.202 44.1394L35.3206 43.8216L35.3346 44.6413L35.4837 45.1432L35.7489 44.8194L35.9007 44.4872C35.9007 44.4872 35.7842 44.9271 35.803 45.2471C35.812 45.4001 35.9313 45.7422 35.9313 45.7422L36.2627 45.2889L36.3578 44.9815L36.329 45.6937L36.3456 46.2765L36.8214 45.6876L36.9566 45.3886L36.9115 46.2378L36.9791 46.8979L37.272 46.5678L37.4491 46.1821L37.4297 46.7439L37.655 47.4921L37.9028 47.03L38.1444 46.4631C38.1444 46.4631 38.0838 46.9196 38.1281 47.3821C38.1503 47.615 38.3533 48.1302 38.3533 48.1302C38.3533 48.1302 38.6035 47.9436 38.7666 47.7175C38.9297 47.4913 38.9831 47.3944 38.9831 47.3944C38.9831 47.3944 38.9807 47.5759 39.0641 47.8495C39.1475 48.1231 39.2995 48.4383 39.2995 48.4383C39.2995 48.4383 39.5359 48.1943 39.5924 48.0642C39.699 47.8184 39.8689 47.5293 39.8689 47.5293C39.8689 47.5293 39.6324 48.1605 39.705 48.5704C39.7444 48.7927 39.9341 49.0526 39.9753 49.2746C40.0284 49.5604 39.9753 50.2428 39.9753 50.2428C39.9753 50.2428 39.425 50.4604 39.2319 50.6169C39.1133 50.713 38.9395 50.8642 38.9165 51.013C38.868 51.327 39.2995 52.0033 39.2995 52.0033C39.2995 52.0033 39.8667 52.1131 40.1105 52.0913C40.4831 52.058 40.9716 51.9061 41.3045 51.7392C42.0249 51.378 42.7156 50.4769 43.4446 50.1328C43.5199 50.0973 43.647 50.1144 43.715 50.0668C43.8978 49.9387 43.8823 49.6614 43.9457 49.4506C44.0009 49.2669 44.0116 48.9927 43.9457 48.8124C43.8165 48.459 43.4797 48.1806 43.3095 47.8442C43.1925 47.6131 43.1302 47.2647 43.1067 47.008C43.0621 46.5207 43.0368 45.8431 43.1968 45.3795C43.2699 45.1678 43.5499 44.9744 43.6249 44.7634C43.8557 44.1134 43.6291 43.1451 43.7932 42.476C43.8663 42.1779 44.1397 41.8351 44.1992 41.5341C44.369 40.6752 44.1484 38.6188 44.1484 38.6188C44.1484 38.6188 43.328 38.105 43.0929 37.7961C42.8458 37.4714 42.6259 36.5269 42.6259 36.5269C42.6259 36.5269 42.8473 37.4448 43.0826 37.7663C43.4229 38.2311 44.585 38.8969 44.585 38.8969C44.585 38.8969 44.5325 37.3772 44.2499 36.7748C44.0042 36.2509 43.4104 35.7024 42.9807 35.3076C42.6765 35.0281 42.0894 34.7842 41.8646 34.495C41.5325 34.068 40.6981 33.541 40.3686 33.1121C39.8511 32.4387 39.0314 32.2647 38.2724 31.8656C37.7844 31.609 37.5248 31.2656 36.9708 31.2539C36.5375 31.2447 35.825 31.1726 35.825 31.1726L36.6878 30.6273C36.6878 30.6273 35.3908 30.4911 34.8607 30.6273C34.4717 30.7273 33.6934 31.2718 33.6934 31.2718L34.2624 30.5979C34.2624 30.5979 33.4072 30.6361 32.9829 30.6769C32.3287 30.7398 31.4724 31.0745 30.8339 31.0944C28.6991 31.1611 26.2878 31.1707 23.9474 30.9069C23.2506 30.8284 22.1546 30.488 21.4621 30.3794C20.9752 30.3031 19.838 30.6273 19.838 30.6273L20.589 30.142C20.589 30.142 19.8381 30.0231 19.5335 30.082C19.3181 30.1236 18.9245 30.4786 18.9245 30.4786L19.2797 29.8837C19.2797 29.8837 18.4016 29.7528 18.0617 29.8837C17.771 29.9956 17.3004 30.5777 17.3004 30.5777L17.8079 29.6854C17.8079 29.6854 16.9967 29.6495 16.6914 29.7841C16.3767 29.9228 15.9301 30.5282 15.9301 30.5282C15.9301 30.5282 16.3234 29.9365 16.3773 29.6458C16.4472 29.2691 16.5043 28.71 16.2453 28.3762C16.0472 28.1209 15.6993 27.884 15.3718 27.9006C15.0453 27.9172 14.6263 28.1591 14.4075 28.3964C14.188 28.6344 14.0635 29.0733 14.0015 29.3879C13.9842 29.4755 14.0015 29.6854 14.0015 29.6854C14.0015 29.6854 13.428 29.673 13.1687 29.6985Z" fill="white" stroke="#1A1A1A" stroke-width="0.253968"/>
<path fill-rule="evenodd" clip-rule="evenodd" d="M10.3938 34.8263C10.3179 34.9649 10.1098 35.096 10.0814 35.1217C9.93534 35.2538 9.60433 35.4039 9.38262 35.4551C9.34742 35.4632 9.17104 35.4764 9.03326 35.4709C8.89547 35.4655 8.5332 35.4248 8.5332 35.4248C8.5332 35.4248 8.92493 35.9728 9.07905 35.9789C9.23317 35.985 9.3401 35.993 9.50449 35.9551C9.81836 35.8827 10.1811 35.7279 10.4388 35.4948C10.5858 35.3618 10.6786 35.1901 10.7638 35.0344C10.8491 34.8788 10.9566 34.5514 10.9566 34.5514C10.9566 34.5514 10.4697 34.6877 10.3938 34.8263Z" fill="#1A1A1A"/>
<path fill-rule="evenodd" clip-rule="evenodd" d="M11.3535 32.6034C11.3535 32.6415 11.346 32.6793 11.3315 32.7146C11.3169 32.7499 11.2956 32.7819 11.2686 32.8089C11.2417 32.8359 11.2097 32.8573 11.1745 32.8719C11.1393 32.8865 11.1016 32.894 11.0635 32.894C11.0253 32.894 10.9876 32.8865 10.9524 32.8719C10.9172 32.8573 10.8852 32.8359 10.8583 32.8089C10.8314 32.7819 10.81 32.7499 10.7954 32.7146C10.7809 32.6793 10.7734 32.6415 10.7734 32.6034C10.7734 32.5652 10.7809 32.5274 10.7954 32.4922C10.81 32.4569 10.8314 32.4249 10.8583 32.3979C10.8852 32.3709 10.9172 32.3495 10.9524 32.3349C10.9876 32.3203 11.0253 32.3127 11.0635 32.3127C11.1016 32.3127 11.1393 32.3203 11.1745 32.3349C11.2097 32.3495 11.2417 32.3709 11.2686 32.3979C11.2956 32.4249 11.3169 32.4569 11.3315 32.4922C11.346 32.5274 11.3535 32.5652 11.3535 32.6034Z" fill="#1A1A1A"/>
<path fill-rule="evenodd" clip-rule="evenodd" d="M8.71411 33.6835C8.68187 33.7315 8.48388 33.773 8.44228 33.783C8.36164 33.8024 8.21209 33.7612 8.11485 33.7316C8.10227 33.7277 8.0268 33.676 7.97673 33.6205C7.92667 33.5649 7.85509 33.4975 7.85509 33.4975L7.66602 33.7391C7.66602 33.7391 7.70952 33.7971 7.77164 33.866C7.83375 33.935 7.90478 34.0203 8.02351 34.0565C8.17541 34.1029 8.38692 34.1298 8.55974 34.0883C8.71843 34.0501 8.82418 33.9586 8.90516 33.8381C8.96215 33.7534 8.98551 33.6912 9.00395 33.6058C9.0224 33.5205 8.95583 33.3763 8.95583 33.3763C8.95583 33.3763 8.72178 33.6721 8.71411 33.6835Z" fill="#1A1A1A"/>
<path fill-rule="evenodd" clip-rule="evenodd" d="M14.5625 29.5119C14.5625 29.5119 14.5983 29.2271 14.7111 29.0556C14.7972 28.9248 14.8467 28.8177 14.9872 28.7445C15.1063 28.6824 15.2465 28.5862 15.3694 28.6408C15.5879 28.7379 15.6849 28.9912 15.7303 29.2215C15.7616 29.3804 15.7002 29.5816 15.6666 29.7401C15.6146 29.9857 15.4755 30.1549 15.4755 30.1549C15.4755 30.1549 15.3775 29.8083 15.1995 29.5741C15.1265 29.478 15.0247 29.4059 14.9022 29.4082C14.7624 29.4108 14.5625 29.5119 14.5625 29.5119Z" fill="#1A1A1A" stroke="#1A1A1A" stroke-width="0.253968"/>
<path d="M16.1109 35.4954C16.1109 35.4954 16.2565 35.873 16.2031 36.1257C16.1774 36.2471 15.9957 36.711 15.9957 36.711C15.9957 36.711 15.6892 36.4085 15.5808 36.2608C15.4655 36.1035 15.3193 35.9367 15.3193 35.9367C15.3193 35.9367 15.3299 36.1841 15.3043 36.3958C15.2847 36.5579 15.166 36.8235 15.166 36.8235" stroke="#1A1A1A" stroke-width="0.253968"/>
<path fill-rule="evenodd" clip-rule="evenodd" d="M43.0801 44.5047C43.0801 44.5047 43.0827 44.9655 43.1531 45.1466C43.207 45.2854 43.4452 45.5508 43.4452 45.5508C43.4452 45.5508 43.6989 45.014 43.7129 44.7662C43.7303 44.4603 43.2991 43.9816 43.2991 43.9816C43.2991 43.9816 43.6611 44.2964 43.786 44.4571C43.867 44.5615 44.005 44.8375 44.005 44.8375C44.005 44.8375 44.121 44.3682 44.078 44.1718C44.0144 43.8811 43.5454 43.1059 43.5454 43.1059L44.1267 43.7201C44.1267 43.7201 44.2607 43.3911 44.2484 43.2445C44.2244 42.9579 43.7085 42.1339 43.7085 42.1339L44.2728 42.7452C44.2728 42.7452 44.3385 42.1761 44.2971 41.9368C44.2425 41.6207 43.9077 40.9382 43.9077 40.9382L44.5405 41.6515C44.5405 41.6515 44.6477 40.9905 44.5648 40.7242C44.4582 40.3815 43.859 39.7494 43.859 39.7494L44.4918 40.2249C44.4918 40.2249 44.4837 39.5634 44.3945 39.2977C44.3047 39.0303 43.9077 38.4893 43.9077 38.4893" fill="white"/>
<path d="M43.0801 44.5047C43.0801 44.5047 43.0827 44.9655 43.1531 45.1466C43.207 45.2854 43.4452 45.5508 43.4452 45.5508C43.4452 45.5508 43.6989 45.014 43.7129 44.7662C43.7303 44.4603 43.2991 43.9816 43.2991 43.9816C43.2991 43.9816 43.6611 44.2964 43.786 44.4571C43.867 44.5615 44.005 44.8375 44.005 44.8375C44.005 44.8375 44.121 44.3682 44.078 44.1718C44.0144 43.8811 43.5454 43.1059 43.5454 43.1059L44.1267 43.7201C44.1267 43.7201 44.2607 43.3911 44.2484 43.2445C44.2244 42.9579 43.7085 42.1339 43.7085 42.1339L44.2728 42.7452C44.2728 42.7452 44.3385 42.1761 44.2971 41.9368C44.2425 41.6207 43.9077 40.9382 43.9077 40.9382L44.5405 41.6515C44.5405 41.6515 44.6477 40.9905 44.5648 40.7242C44.4582 40.3815 43.859 39.7494 43.859 39.7494L44.4918 40.2249C44.4918 40.2249 44.4837 39.5634 44.3945 39.2977C44.3047 39.0303 43.9077 38.4893 43.9077 38.4893" stroke="#1A1A1A" stroke-width="0.253968"/>
<path fill-rule="evenodd" clip-rule="evenodd" d="M35.9668 31.2443L36.8873 30.9143L37.7134 30.7612L37.4 31.1508L37.2291 31.3455C37.2291 31.3455 37.653 31.0863 37.8558 31.0256C37.9997 30.9824 38.3542 30.9699 38.3542 30.9699L38.1833 31.276L38.0552 31.4707C38.0552 31.4707 38.4019 31.2016 38.5821 31.1786C38.8493 31.1445 39.4508 31.4012 39.4508 31.4012C39.4508 31.4012 38.9947 31.4965 38.8385 31.6098C38.7918 31.6437 38.7672 31.7211 38.7672 31.7211C38.7672 31.7211 39.4059 31.6078 39.636 31.6377C39.9136 31.6737 40.106 31.8185 40.106 31.8185L39.5933 32.0133L39.2799 32.0968C39.2799 32.0968 39.9865 32.0503 40.2626 32.1524C40.5472 32.2576 41.0602 32.528 41.0602 32.528L40.1772 32.5837L39.8639 32.6115C39.8639 32.6115 40.739 32.6945 41.0744 32.848C41.2285 32.9185 41.5159 33.1958 41.5159 33.1958L41.1599 33.2375H40.8181C40.8181 33.2375 41.371 33.3628 41.5729 33.4879C41.7132 33.5749 42.0001 33.794 42.0001 33.794L41.1883 33.7662L40.9747 33.7522L41.4589 33.9331C41.4589 33.9331 42.0345 34.0278 42.228 34.1696C42.3635 34.269 42.5413 34.6287 42.5413 34.6287L41.815 34.4617L42.2539 34.8095" fill="white"/>
<path d="M35.9668 31.2443L36.8873 30.9143L37.7134 30.7612L37.4 31.1508L37.2291 31.3455C37.2291 31.3455 37.653 31.0863 37.8558 31.0256C37.9997 30.9824 38.3542 30.9699 38.3542 30.9699L38.1833 31.276L38.0552 31.4707C38.0552 31.4707 38.4019 31.2016 38.5821 31.1786C38.8493 31.1445 39.4508 31.4012 39.4508 31.4012C39.4508 31.4012 38.9947 31.4965 38.8385 31.6098C38.7918 31.6437 38.7672 31.7211 38.7672 31.7211C38.7672 31.7211 39.4059 31.6078 39.636 31.6377C39.9136 31.6737 40.106 31.8185 40.106 31.8185L39.5933 32.0133L39.2799 32.0968C39.2799 32.0968 39.9865 32.0503 40.2626 32.1524C40.5472 32.2576 41.0602 32.528 41.0602 32.528L40.1772 32.5837L39.8639 32.6115C39.8639 32.6115 40.739 32.6945 41.0744 32.848C41.2285 32.9185 41.5159 33.1958 41.5159 33.1958L41.1599 33.2375H40.8181C40.8181 33.2375 41.371 33.3628 41.5729 33.4879C41.7132 33.5749 42.0001 33.794 42.0001 33.794L41.1883 33.7662L40.9747 33.7522L41.4589 33.9331C41.4589 33.9331 42.0345 34.0278 42.228 34.1696C42.3635 34.269 42.5413 34.6287 42.5413 34.6287L41.815 34.4617L42.2539 34.8095" stroke="#1A1A1A" stroke-width="0.253968"/>
<path fill-rule="evenodd" clip-rule="evenodd" d="M23.5926 20.903L23.6687 31.7974C23.6687 31.7974 22.5212 31.7232 22.1842 31.5743C21.8592 31.4306 21.5371 30.8678 21.5371 30.8678V20.4568L23.5926 20.903Z" fill="#FFCC00" stroke="#1A1A1A" stroke-width="0.253968"/>
<path fill-rule="evenodd" clip-rule="evenodd" d="M30.2174 19.6759C30.2174 19.6759 29.7302 20.3786 29.9129 20.6798C29.9959 20.8165 30.0127 21.0731 30.3389 21.272C30.7314 21.5113 31.1691 21.8325 31.1691 21.8325L23.4039 21.8697C23.4039 21.8697 22.7079 21.7461 22.2314 21.45C21.8178 21.193 21.7021 20.9175 21.5753 20.6822C21.4426 20.4359 21.588 20.1958 21.8527 20.0364C22.1805 19.8389 22.6608 19.7503 22.6608 19.7503L30.2174 19.6759Z" fill="white" stroke="#1A1A1A" stroke-width="0.253968"/>
<path d="M31.3599 21.8696H23.6328V31.7601H31.3599V21.8696Z" fill="#D4AA00" stroke="#1A1A1A" stroke-width="0.253968"/>
<path d="M30.0286 20.79H26.3887" stroke="#1A1A1A" stroke-width="0.228571"/>
<path d="M30.0398 20.2821H26.9199" stroke="#1A1A1A" stroke-width="0.228571"/>
<path d="M26.8965 21.298H30.2764" stroke="#1A1A1A" stroke-width="0.228571"/>
<path d="M23.0098 21.8059C23.0098 31.7107 23.0098 31.7107 23.0098 31.7107" stroke="#1A1A1A" stroke-width="0.203175"/>
<path d="M22.4902 21.5493C22.4902 31.708 22.4902 31.708 22.4902 31.708" stroke="#1A1A1A" stroke-width="0.205763"/>
<path d="M21.9707 21.3005C21.9707 31.4593 21.9707 31.4593 21.9707 31.4593" stroke="#1A1A1A" stroke-width="0.205763"/>
<path fill-rule="evenodd" clip-rule="evenodd" d="M23.6264 26.3685L23.6049 27.8871C23.6049 27.8871 22.7667 27.8096 22.4574 27.6349C22.1481 27.4602 21.543 26.7225 21.543 26.7225V24.9299C21.543 24.9299 22.1557 25.7635 22.4682 25.9793C22.7807 26.1951 23.6264 26.3685 23.6264 26.3685Z" fill="#FFCC00" stroke="#1A1A1A" stroke-width="0.203175"/>
<path d="M21.5234 25.9745C21.5234 25.9745 22.1392 26.6452 22.438 26.8116C22.7572 26.9894 23.6194 27.1571 23.6194 27.1571" stroke="#1A1A1A" stroke-width="0.253968"/>
<path fill-rule="evenodd" clip-rule="evenodd" d="M23.6069 29.3779L23.5853 30.8964C23.5853 30.8964 22.7471 30.8189 22.4379 30.6442C22.1286 30.4695 21.5234 29.7318 21.5234 29.7318V27.9393C21.5234 27.9393 22.1361 28.7729 22.4487 28.9887C22.7612 29.2045 23.6069 29.3779 23.6069 29.3779Z" fill="#FFCC00" stroke="#1A1A1A" stroke-width="0.203175"/>
<path d="M21.5039 28.9839C21.5039 28.9839 22.1197 29.6545 22.4184 29.8209C22.7376 29.9987 23.5999 30.1664 23.5999 30.1664" stroke="#1A1A1A" stroke-width="0.253968"/>
<path fill-rule="evenodd" clip-rule="evenodd" d="M23.6069 23.2056L23.5853 24.7242C23.5853 24.7242 22.7471 24.6467 22.4379 24.472C22.1286 24.2973 21.5234 23.5596 21.5234 23.5596V21.767C21.5234 21.767 22.1361 22.6006 22.4487 22.8164C22.7612 23.0322 23.6069 23.2056 23.6069 23.2056Z" fill="#FFCC00" stroke="#1A1A1A" stroke-width="0.203175"/>
<path d="M21.5039 22.8116C21.5039 22.8116 22.1197 23.4823 22.4184 23.6487C22.7376 23.8265 23.5999 23.9942 23.5999 23.9942" stroke="#1A1A1A" stroke-width="0.253968"/>
<path d="M30.3655 22.9727H24.625V30.657H30.3655V22.9727Z" fill="#D4AA00" stroke="#1A1A1A" stroke-width="0.253968"/>
<path d="M25.6101 23.0164L24.6406 24.1212" stroke="#1A1A1A" stroke-width="0.253968"/>
<path d="M29.3906 23.0164L30.3601 24.1212" stroke="#1A1A1A" stroke-width="0.253968"/>
<path d="M25.616 30.6167L24.6465 29.5119" stroke="#1A1A1A" stroke-width="0.253968"/>
<path d="M29.3965 30.6167L30.366 29.5119" stroke="#1A1A1A" stroke-width="0.253968"/>
<path d="M27.5703 24.7527H27.4258V28.8771H27.5703V24.7527Z" fill="black" stroke="#1A1A1A" stroke-width="0.203175"/>
<path d="M28.1747 25.427H26.8262V25.5995H28.1747V25.427Z" fill="black" stroke="#1A1A1A" stroke-width="0.203175"/>
<path d="M28.5376 26.4125H26.4629V26.5573H28.5376V26.4125Z" fill="black" stroke="#1A1A1A" stroke-width="0.230884"/>
<path d="M28.1329 27.9674L26.9531 27.3293L26.8676 27.4803L28.0474 28.1184L28.1329 27.9674Z" fill="black" stroke="#1A1A1A" stroke-width="0.203175"/>
</g>
<defs>
<clipPath id="clip0_807_398">
<rect width="52.5187" height="64" fill="white"/>
</clipPath>
</defs>
</svg>
