<svg width="167" height="41" viewBox="0 0 167 41" fill="none" xmlns="http://www.w3.org/2000/svg">
<rect opacity="0.5" x="11.9165" y="10.3237" width="18.75" height="19.6078" rx="9.375" fill="#00CC66"/>
<path d="M7.5364 32.1739C9.6538 29.5053 15.257 23.871 20.7307 22.6822C20.005 24.8684 18.7234 30.1633 19.4022 33.8531C20.6726 30.9258 25.4954 24.1828 34.6233 20.6293C35.7105 19.8841 37.5444 16.8436 36.1829 10.6433C36.017 10.4796 34.8482 9.95955 31.5002 9.18893C31.0524 9.02826 29.8755 8.4643 28.7508 7.49377C27.345 6.2806 18.5842 8.94371 16.5702 10.5313C15.1143 10.2604 11.9696 10.1948 11.0377 12.1004C10.1058 14.006 11.0739 14.821 11.6745 14.9902C10.0733 16.0719 6.82997 18.5202 6.6665 19.6602C8.53271 18.3761 12.8738 15.7665 15.3085 15.6012C14.58 14.4388 13.8912 12.1118 16.9645 12.1034C19.6989 10.5626 25.7041 7.66054 27.8493 8.37857C28.7854 8.91953 30.7492 10.0066 31.1157 10.0272C31.5738 10.053 33.7463 10.3265 33.7689 10.5924C33.7787 10.7078 33.6202 10.8636 33.4457 11.0351C33.2182 11.2587 32.9634 11.5091 33.0192 11.7315C33.0596 11.8925 33.4792 12.143 33.9648 12.433C34.6646 12.8508 35.5016 13.3506 35.5384 13.7822C35.5516 13.9377 35.5895 14.1061 35.629 14.2817C35.7754 14.9322 35.9442 15.6823 34.9665 16.2449C34.8249 16.3263 34.6757 16.4171 34.5214 16.5111C33.322 17.2413 31.8137 18.1595 31.1952 16.3161C30.8424 15.2648 30.8313 14.3196 30.822 13.537C30.813 12.7708 30.8057 12.1603 30.4816 11.7587C29.8263 10.9469 28.2016 10.2223 26.9372 10.6709C25.9258 11.0297 24.641 11.748 24.125 12.0623C24.7781 12.3385 26.1348 12.8729 26.3371 12.8011C26.386 12.7838 26.5065 12.6924 26.6745 12.565C27.3756 12.0333 28.904 10.874 29.5121 11.8459C30.2659 13.0507 30.4178 13.305 29.9154 14.2878C29.825 14.4645 29.7058 14.6719 29.5758 14.8979C28.9828 15.9292 28.1671 17.3476 28.8636 17.9992C29.7128 18.7936 32.0961 19.2491 33.5681 18.179C34.7456 17.323 35.5269 16.708 35.7704 16.5075C35.6651 17.5663 35.1056 19.7153 33.7095 19.8408C31.9645 19.9977 26.2325 21.5178 25.4488 22.258C25.4407 21.1424 25.5934 18.6014 26.2694 17.3618C22.1911 17.9071 12.7349 21.6329 7.5364 32.1739Z" fill="white"/>
<path d="M23.1475 12.82C22.2251 13.4611 20.1751 15.3913 19.3538 17.9836C21.1715 17.1503 25.1651 15.5589 26.5974 15.8588C25.6117 15.5009 23.3133 14.9216 22.0052 15.4679C21.9985 15.1336 22.2175 14.136 23.1475 12.82Z" fill="white"/>
<path d="M18.4189 14.8479C18.7315 14.6395 18.8681 14.2854 18.724 14.0569C18.58 13.8283 18.2098 13.812 17.8973 14.0204C17.5847 14.2287 17.4481 14.5829 17.5922 14.8114C17.7362 15.04 18.1064 15.0563 18.4189 14.8479Z" fill="white"/>
<path d="M18.0262 17.6332C18.1601 17.8456 18.0153 18.1868 17.7028 18.3952C17.3902 18.6036 17.0282 18.6002 16.8943 18.3877C16.7604 18.1753 16.9052 17.8341 17.2177 17.6257C17.5303 17.4174 17.8922 17.4207 18.0262 17.6332Z" fill="white"/>
<path d="M14.786 18.7135C15.2042 18.4346 15.398 17.9781 15.2187 17.6938C15.0395 17.4095 14.5551 17.405 14.1369 17.6838C13.7186 17.9627 13.5249 18.4192 13.7041 18.7035C13.8834 18.9878 14.3677 18.9923 14.786 18.7135Z" fill="white"/>
<path d="M11.1232 19.3821C11.3402 19.7263 11.1396 20.2564 10.6751 20.5661C10.2106 20.8757 9.65811 20.8477 9.44113 20.5035C9.22415 20.1593 9.4248 19.6293 9.88931 19.3196C10.3538 19.0099 10.9063 19.0379 11.1232 19.3821Z" fill="white"/>
<path d="M13.4544 22.0845C13.8063 21.8499 13.9501 21.4353 13.7755 21.1583C13.6009 20.8814 13.1741 20.8471 12.8222 21.0817C12.4703 21.3163 12.3266 21.731 12.5011 22.0079C12.6757 22.2848 13.1025 22.3192 13.4544 22.0845Z" fill="white"/>
<path d="M10.3777 24.623C10.578 24.9408 10.4326 25.4037 10.0528 25.6569C9.67306 25.9101 9.20278 25.8577 9.00242 25.5398C8.80207 25.222 8.94751 24.7591 9.32728 24.506C9.70704 24.2528 10.1773 24.3052 10.3777 24.623Z" fill="white"/>
<path d="M13.1323 30.1067C13.5401 29.8348 13.725 29.3833 13.5453 29.0982C13.3655 28.813 12.8892 28.8023 12.4814 29.0742C12.0736 29.346 11.8887 29.7976 12.0685 30.0827C12.2482 30.3678 12.7245 30.3786 13.1323 30.1067Z" fill="white"/>
<path d="M17.6862 28.4691C17.8929 28.797 17.6504 29.3361 17.1447 29.6733C16.6389 30.0105 16.0614 30.018 15.8547 29.6901C15.648 29.3622 15.8904 28.8231 16.3962 28.4859C16.9019 28.1487 17.4795 28.1412 17.6862 28.4691Z" fill="white"/>
<path d="M18.5961 25.6747C19.0503 25.3719 19.2674 24.8867 19.081 24.5909C18.8945 24.2952 18.3752 24.301 17.9209 24.6038C17.4667 24.9066 17.2496 25.3918 17.436 25.6876C17.6224 25.9833 18.1418 25.9776 18.5961 25.6747Z" fill="white"/>
<path d="M47.7915 26.0198V15.5198H52.5915C53.5515 15.5198 54.3765 15.6748 55.0665 15.9848C55.7665 16.2948 56.3065 16.7448 56.6865 17.3348C57.0665 17.9148 57.2565 18.6048 57.2565 19.4048C57.2565 20.1948 57.0665 20.8798 56.6865 21.4598C56.3065 22.0398 55.7665 22.4898 55.0665 22.8098C54.3765 23.1198 53.5515 23.2748 52.5915 23.2748H49.4415L50.7615 21.9848V26.0198H47.7915ZM50.7615 22.2998L49.4415 20.9348H52.4115C53.0315 20.9348 53.4915 20.7998 53.7915 20.5298C54.1015 20.2598 54.2565 19.8848 54.2565 19.4048C54.2565 18.9148 54.1015 18.5348 53.7915 18.2648C53.4915 17.9948 53.0315 17.8598 52.4115 17.8598H49.4415L50.7615 16.4948V22.2998ZM60.6634 26.0198V17.2148L61.3234 17.8748H57.4384V15.5198H66.7984V17.8748H62.9284L63.5884 17.2148V26.0198H60.6634ZM74.7527 21.8198V19.6298H79.7027V21.8198H74.7527ZM76.1627 15.3098C76.9727 15.3098 77.7127 15.4448 78.3827 15.7148C79.0527 15.9748 79.6327 16.3498 80.1227 16.8398C80.6227 17.3298 81.0077 17.9098 81.2777 18.5798C81.5577 19.2398 81.6977 19.9698 81.6977 20.7698C81.6977 21.5698 81.5577 22.3048 81.2777 22.9748C81.0077 23.6348 80.6227 24.2098 80.1227 24.6998C79.6327 25.1898 79.0527 25.5698 78.3827 25.8398C77.7127 26.0998 76.9727 26.2298 76.1627 26.2298C75.1827 26.2298 74.3077 26.0598 73.5377 25.7198C72.7677 25.3698 72.1277 24.8798 71.6177 24.2498L73.4927 22.5398C73.8327 22.9398 74.2077 23.2448 74.6177 23.4548C75.0377 23.6648 75.5027 23.7698 76.0127 23.7698C76.4127 23.7698 76.7777 23.6998 77.1077 23.5598C77.4377 23.4198 77.7177 23.2198 77.9477 22.9598C78.1877 22.6898 78.3677 22.3698 78.4877 21.9998C78.6177 21.6298 78.6827 21.2198 78.6827 20.7698C78.6827 20.3198 78.6177 19.9098 78.4877 19.5398C78.3677 19.1698 78.1877 18.8548 77.9477 18.5948C77.7177 18.3248 77.4377 18.1198 77.1077 17.9798C76.7777 17.8398 76.4127 17.7698 76.0127 17.7698C75.5027 17.7698 75.0377 17.8748 74.6177 18.0848C74.2077 18.2948 73.8327 18.5998 73.4927 18.9998L71.6177 17.2898C72.1277 16.6498 72.7677 16.1598 73.5377 15.8198C74.3077 15.4798 75.1827 15.3098 76.1627 15.3098ZM89.9293 26.0198L86.9743 21.0248L89.3593 19.6148L93.2743 26.0198H89.9293ZM83.2393 26.0198V15.5198H86.1943V26.0198H83.2393ZM85.3393 21.9998V19.5998H89.1493V21.9998H85.3393ZM89.6443 21.0848L86.8993 20.7848L90.1243 15.5198H93.2443L89.6443 21.0848ZM99.2835 26.2298C98.4535 26.2298 97.6835 26.0998 96.9735 25.8398C96.2735 25.5698 95.6635 25.1898 95.1435 24.6998C94.6335 24.2098 94.2335 23.6348 93.9435 22.9748C93.6535 22.3048 93.5085 21.5698 93.5085 20.7698C93.5085 19.9698 93.6535 19.2398 93.9435 18.5798C94.2335 17.9098 94.6335 17.3298 95.1435 16.8398C95.6635 16.3498 96.2735 15.9748 96.9735 15.7148C97.6835 15.4448 98.4535 15.3098 99.2835 15.3098C100.253 15.3098 101.118 15.4798 101.878 15.8198C102.648 16.1598 103.288 16.6498 103.798 17.2898L101.908 18.9998C101.568 18.5998 101.193 18.2948 100.783 18.0848C100.383 17.8748 99.9335 17.7698 99.4335 17.7698C99.0035 17.7698 98.6085 17.8398 98.2485 17.9798C97.8885 18.1198 97.5785 18.3248 97.3185 18.5948C97.0685 18.8548 96.8685 19.1698 96.7185 19.5398C96.5785 19.9098 96.5085 20.3198 96.5085 20.7698C96.5085 21.2198 96.5785 21.6298 96.7185 21.9998C96.8685 22.3698 97.0685 22.6898 97.3185 22.9598C97.5785 23.2198 97.8885 23.4198 98.2485 23.5598C98.6085 23.6998 99.0035 23.7698 99.4335 23.7698C99.9335 23.7698 100.383 23.6648 100.783 23.4548C101.193 23.2448 101.568 22.9398 101.908 22.5398L103.798 24.2498C103.288 24.8798 102.648 25.3698 101.878 25.7198C101.118 26.0598 100.253 26.2298 99.2835 26.2298ZM105.14 26.0198V15.5198H114.995V26.0198H112.055V17.2148L112.715 17.8748H107.42L108.065 17.2148V26.0198H105.14ZM117.24 26.0198V15.5198H122.04C123 15.5198 123.825 15.6748 124.515 15.9848C125.215 16.2948 125.755 16.7448 126.135 17.3348C126.515 17.9148 126.705 18.6048 126.705 19.4048C126.705 20.1948 126.515 20.8798 126.135 21.4598C125.755 22.0398 125.215 22.4898 124.515 22.8098C123.825 23.1198 123 23.2748 122.04 23.2748H118.89L120.21 21.9848V26.0198H117.24ZM120.21 22.2998L118.89 20.9348H121.86C122.48 20.9348 122.94 20.7998 123.24 20.5298C123.55 20.2598 123.705 19.8848 123.705 19.4048C123.705 18.9148 123.55 18.5348 123.24 18.2648C122.94 17.9948 122.48 17.8598 121.86 17.8598H118.89L120.21 16.4948V22.2998ZM130.78 19.5848H135.655V21.8048H130.78V19.5848ZM130.99 23.7248H136.48V26.0198H128.05V15.5198H136.285V17.8148H130.99V23.7248ZM143.287 26.2298C142.457 26.2298 141.687 26.0998 140.977 25.8398C140.277 25.5698 139.667 25.1898 139.147 24.6998C138.637 24.2098 138.237 23.6348 137.947 22.9748C137.657 22.3048 137.512 21.5698 137.512 20.7698C137.512 19.9698 137.657 19.2398 137.947 18.5798C138.237 17.9098 138.637 17.3298 139.147 16.8398C139.667 16.3498 140.277 15.9748 140.977 15.7148C141.687 15.4448 142.457 15.3098 143.287 15.3098C144.257 15.3098 145.122 15.4798 145.882 15.8198C146.652 16.1598 147.292 16.6498 147.802 17.2898L145.912 18.9998C145.572 18.5998 145.197 18.2948 144.787 18.0848C144.387 17.8748 143.937 17.7698 143.437 17.7698C143.007 17.7698 142.612 17.8398 142.252 17.9798C141.892 18.1198 141.582 18.3248 141.322 18.5948C141.072 18.8548 140.872 19.1698 140.722 19.5398C140.582 19.9098 140.512 20.3198 140.512 20.7698C140.512 21.2198 140.582 21.6298 140.722 21.9998C140.872 22.3698 141.072 22.6898 141.322 22.9598C141.582 23.2198 141.892 23.4198 142.252 23.5598C142.612 23.6998 143.007 23.7698 143.437 23.7698C143.937 23.7698 144.387 23.6648 144.787 23.4548C145.197 23.2448 145.572 22.9398 145.912 22.5398L147.802 24.2498C147.292 24.8798 146.652 25.3698 145.882 25.7198C145.122 26.0598 144.257 26.2298 143.287 26.2298ZM154.039 26.2298C153.209 26.2298 152.439 26.0998 151.729 25.8398C151.029 25.5698 150.419 25.1898 149.899 24.6998C149.389 24.2098 148.989 23.6348 148.699 22.9748C148.409 22.3048 148.264 21.5698 148.264 20.7698C148.264 19.9698 148.409 19.2398 148.699 18.5798C148.989 17.9098 149.389 17.3298 149.899 16.8398C150.419 16.3498 151.029 15.9748 151.729 15.7148C152.439 15.4448 153.209 15.3098 154.039 15.3098C155.009 15.3098 155.874 15.4798 156.634 15.8198C157.404 16.1598 158.044 16.6498 158.554 17.2898L156.664 18.9998C156.324 18.5998 155.949 18.2948 155.539 18.0848C155.139 17.8748 154.689 17.7698 154.189 17.7698C153.759 17.7698 153.364 17.8398 153.004 17.9798C152.644 18.1198 152.334 18.3248 152.074 18.5948C151.824 18.8548 151.624 19.1698 151.474 19.5398C151.334 19.9098 151.264 20.3198 151.264 20.7698C151.264 21.2198 151.334 21.6298 151.474 21.9998C151.624 22.3698 151.824 22.6898 152.074 22.9598C152.334 23.2198 152.644 23.4198 153.004 23.5598C153.364 23.6998 153.759 23.7698 154.189 23.7698C154.689 23.7698 155.139 23.6648 155.539 23.4548C155.949 23.2448 156.324 22.9398 156.664 22.5398L158.554 24.2498C158.044 24.8798 157.404 25.3698 156.634 25.7198C155.874 26.0598 155.009 26.2298 154.039 26.2298Z" fill="white"/>
</svg>
