<svg width="37" height="33" viewBox="0 0 37 33" fill="none" xmlns="http://www.w3.org/2000/svg">
<g id="Group 8">
<rect id="Rectangle 3" opacity="0.5" x="6.55664" y="4.64606" width="22.5" height="23.5294" rx="11.25" fill="#00CC66"/>
<g id="Union">
<path d="M1.30072 30.8663C3.84159 27.664 10.5654 20.9028 17.1338 19.4763C16.263 22.0998 14.7251 28.4536 15.5397 32.8814C17.0642 29.3686 22.8516 21.277 33.805 17.0128C35.1096 16.1186 37.3103 12.47 35.6765 5.02958C35.4774 4.83315 34.0749 4.2091 30.0573 3.28435C29.5199 3.09155 28.1076 2.41479 26.758 1.25016C25.0711 -0.205643 14.5581 2.99009 12.1413 4.89525C10.3942 4.57009 6.62059 4.49144 5.5023 6.77816C4.38401 9.06489 5.54576 10.0428 6.26642 10.2459C4.34496 11.5439 0.452995 14.4819 0.256836 15.8498C2.49628 14.3089 7.70557 11.1775 10.6272 10.9791C9.75299 9.58414 8.92653 6.79178 12.6145 6.78168C15.8958 4.93274 23.1019 1.45028 25.6761 2.31192C26.7995 2.96107 29.1561 4.26557 29.5959 4.29033C30.1456 4.32128 32.7525 4.64949 32.7797 4.96855C32.7915 5.10703 32.6013 5.29396 32.3919 5.49975C32.1188 5.76809 31.8131 6.06851 31.8801 6.33542C31.9285 6.52861 32.432 6.82924 33.0148 7.17719C33.8546 7.67864 34.859 8.27835 34.9031 8.79633C34.9189 8.98288 34.9644 9.18494 35.0118 9.39571C35.1875 10.1763 35.39 11.0765 34.2168 11.7515C34.047 11.8492 33.8679 11.9582 33.6828 12.0709C32.2434 12.9472 30.4335 14.049 29.6912 11.8369C29.2679 10.5754 29.2545 9.44118 29.2434 8.50204C29.2326 7.58254 29.2239 6.85003 28.8349 6.3681C28.0486 5.39393 26.0989 4.52437 24.5817 5.06266C23.3679 5.4933 21.8262 6.35529 21.207 6.73245C21.9907 7.06386 23.6188 7.70514 23.8615 7.61902C23.9202 7.5982 24.0648 7.48853 24.2664 7.33559C25.1077 6.69755 26.9418 5.30647 27.6715 6.4727C28.5761 7.91847 28.7584 8.22358 28.1555 9.40303C28.0471 9.61504 27.904 9.86392 27.748 10.1351C27.0364 11.3727 26.0576 13.0748 26.8934 13.8567C27.9124 14.8099 30.7724 15.3565 32.5387 14.0725C33.9518 13.0452 34.8893 12.3072 35.1815 12.0666C35.0552 13.3372 34.3837 15.9159 32.7085 16.0666C30.6144 16.2549 23.736 18.0789 22.7956 18.9672C22.7859 17.6285 22.9691 14.5793 23.7803 13.0918C18.8864 13.7461 7.53896 18.2171 1.30072 30.8663Z" fill="white"/>
<path d="M20.034 7.64167C18.9272 8.41097 16.4672 10.7272 15.4816 13.8379C17.6629 12.8381 22.4551 10.9283 24.1739 11.2881C22.9911 10.8587 20.233 10.1636 18.6633 10.8191C18.6552 10.418 18.918 9.22089 20.034 7.64167Z" fill="white"/>
<path d="M14.3598 10.0751C14.7348 9.82509 14.8987 9.40008 14.7259 9.12586C14.553 8.85164 14.1088 8.83204 13.7337 9.08209C13.3587 9.33214 13.1948 9.75714 13.3676 10.0314C13.5405 10.3056 13.9847 10.3252 14.3598 10.0751Z" fill="white"/>
<path d="M13.8884 13.4174C14.0492 13.6724 13.8754 14.0818 13.5004 14.3319C13.1253 14.5819 12.6909 14.5779 12.5302 14.3229C12.3695 14.068 12.5432 13.6586 12.9183 13.4085C13.2934 13.1585 13.7277 13.1625 13.8884 13.4174Z" fill="white"/>
<path d="M10.0002 14.7138C10.5021 14.3792 10.7346 13.8314 10.5195 13.4902C10.3044 13.149 9.7232 13.1436 9.2213 13.4782C8.7194 13.8128 8.48689 14.3607 8.70198 14.7019C8.91707 15.0431 9.4983 15.0484 10.0002 14.7138Z" fill="white"/>
<path d="M5.60493 15.5162C5.8653 15.9292 5.62452 16.5653 5.06711 16.9369C4.50971 17.3085 3.84677 17.2749 3.58639 16.8619C3.32601 16.4489 3.5668 15.8128 4.1242 15.4412C4.6816 15.0696 5.34455 15.1032 5.60493 15.5162Z" fill="white"/>
<path d="M8.40234 18.7591C8.82463 18.4776 8.99714 17.9799 8.78765 17.6476C8.57816 17.3153 8.066 17.2741 7.64371 17.5557C7.22142 17.8372 7.04891 18.3348 7.2584 18.6671C7.46789 18.9994 7.98005 19.0406 8.40234 18.7591Z" fill="white"/>
<path d="M4.71024 21.8052C4.95067 22.1866 4.77614 22.7421 4.32042 23.0459C3.8647 23.3497 3.30036 23.2868 3.05994 22.9054C2.81951 22.524 2.99405 21.9686 3.44977 21.6648C3.90548 21.361 4.46982 21.4239 4.71024 21.8052Z" fill="white"/>
<path d="M8.01582 28.3857C8.50518 28.0594 8.72703 27.5176 8.51134 27.1754C8.29565 26.8333 7.72409 26.8204 7.23473 27.1466C6.74536 27.4729 6.52351 28.0147 6.7392 28.3569C6.9549 28.699 7.52646 28.7119 8.01582 28.3857Z" fill="white"/>
<path d="M13.4805 26.4205C13.7285 26.814 13.4376 27.461 12.8307 27.8656C12.2237 28.2702 11.5307 28.2792 11.2826 27.8858C11.0346 27.4923 11.3255 26.8453 11.9324 26.4407C12.5393 26.0361 13.2324 26.0271 13.4805 26.4205Z" fill="white"/>
<path d="M14.5723 23.0673C15.1174 22.7039 15.3779 22.1216 15.1542 21.7668C14.9305 21.4119 14.3072 21.4188 13.7621 21.7822C13.2171 22.1456 12.9565 22.7278 13.1802 23.0827C13.404 23.4376 14.0272 23.4307 14.5723 23.0673Z" fill="white"/>
</g>
</g>
</svg>
