<svg width="24" height="24" viewBox="0 0 24 24" fill="none" xmlns="http://www.w3.org/2000/svg">
<g clip-path="url(#clip0_711_41716)">
<path d="M12 0C5.37253 0 0 5.37253 0 12C0 18.6275 5.37253 24 12 24C18.6275 24 24 18.6275 24 12C24 5.37253 18.6275 0 12 0Z" fill="#40B3E0"/>
<path d="M17.8388 6.9029L15.6954 17.7092C15.6954 17.7092 15.3957 18.4586 14.5714 18.0989L9.62532 14.3069L7.82682 13.4377L4.79926 12.4184C4.79926 12.4184 4.33463 12.2536 4.28963 11.8939C4.24473 11.5342 4.81426 11.3393 4.81426 11.3393L16.8495 6.61809C16.8495 6.61809 17.8388 6.18347 17.8388 6.9029Z" fill="white"/>
<path d="M9.24452 17.5878C9.24452 17.5878 9.10014 17.5743 8.92023 17.0047C8.74042 16.4352 7.82617 13.4376 7.82617 13.4376L15.0953 8.82138C15.0953 8.82138 15.515 8.56657 15.5 8.82138C15.5 8.82138 15.5749 8.86629 15.3501 9.0761C15.1253 9.28601 9.63967 14.217 9.63967 14.217" fill="#D2E5F1"/>
<path d="M11.5227 15.7608L9.56634 17.5445C9.56634 17.5445 9.41344 17.6606 9.24609 17.5878L9.62072 14.2746" fill="#B5CFE4"/>
</g>
<defs>
<clipPath id="clip0_711_41716">
<rect width="24" height="24" rx="12" fill="white"/>
</clipPath>
</defs>
</svg>
