<svg width="24" height="24" viewBox="0 0 24 24" fill="none" xmlns="http://www.w3.org/2000/svg">
<g clip-path="url(#clip0_711_41722)">
<path d="M24 0H0V24H24V0Z" fill="#1BD741"/>
<path d="M3.60742 20.4021L4.78301 16.2267C4.02704 14.9425 3.62901 13.4812 3.62901 11.9801C3.62901 7.35818 7.38923 3.59796 12.0112 3.59796C16.6331 3.59796 20.3933 7.35818 20.3933 11.9801C20.3933 16.6021 16.6331 20.3623 12.0112 20.3623C10.571 20.3623 9.1608 19.9937 7.91328 19.2937L3.60742 20.4021ZM8.13341 17.7687L8.38998 17.9254C9.47767 18.5894 10.7299 18.9404 12.0112 18.9404C15.8491 18.9404 18.9714 15.818 18.9714 11.9801C18.9714 8.14223 15.8491 5.01985 12.0112 5.01985C8.17327 5.01985 5.0509 8.14223 5.0509 11.9801C5.0509 13.3174 5.43097 14.616 6.14992 15.7356L6.32271 16.0046L5.64573 18.4091L8.13341 17.7687Z" fill="white"/>
<path d="M9.65671 8.07879L9.11281 8.04914C8.94197 8.03982 8.7744 8.09691 8.64527 8.20908C8.38159 8.43806 7.95997 8.88074 7.83047 9.45761C7.63736 10.3177 7.9358 11.371 8.7082 12.4243C9.4806 13.4775 10.92 15.1627 13.4654 15.8825C14.2856 16.1144 14.9308 15.958 15.4286 15.6396C15.8229 15.3874 16.0947 14.9826 16.1927 14.5249L16.2795 14.1193C16.3071 13.9904 16.2416 13.8596 16.1219 13.8044L14.2837 12.9571C14.1644 12.9021 14.0229 12.9369 13.9426 13.0409L13.221 13.9764C13.1665 14.0471 13.0731 14.0751 12.9889 14.0455C12.4947 13.8718 10.8393 13.1785 9.93097 11.4288C9.89158 11.3529 9.90138 11.2608 9.95725 11.1961L10.6469 10.3983C10.7174 10.3168 10.7352 10.2023 10.6928 10.1033L9.90048 8.24947C9.8583 8.15078 9.76377 8.08464 9.65671 8.07879Z" fill="white"/>
</g>
<defs>
<clipPath id="clip0_711_41722">
<rect width="24" height="24" rx="12" fill="white"/>
</clipPath>
</defs>
</svg>
