<svg width="56" height="56" viewBox="0 0 56 56" fill="none" xmlns="http://www.w3.org/2000/svg">
<path d="M39.375 8.75H45.5C45.9641 8.75 46.4092 8.93437 46.7374 9.26256C47.0656 9.59075 47.25 10.0359 47.25 10.5V16.625" stroke="#00CC66" stroke-width="2" stroke-linecap="round" stroke-linejoin="round"/>
<path d="M39.375 47.25H45.5C45.9641 47.25 46.4092 47.0656 46.7374 46.7374C47.0656 46.4092 47.25 45.9641 47.25 45.5V39.375" stroke="#00CC66" stroke-width="2" stroke-linecap="round" stroke-linejoin="round"/>
<path d="M16.625 47.25H10.5C10.0359 47.25 9.59075 47.0656 9.26256 46.7374C8.93437 46.4092 8.75 45.9641 8.75 45.5V39.375" stroke="#00CC66" stroke-width="2" stroke-linecap="round" stroke-linejoin="round"/>
<path d="M16.625 8.75H10.5C10.0359 8.75 9.59075 8.93437 9.26256 9.26256C8.93437 9.59075 8.75 10.0359 8.75 10.5V16.625" stroke="#00CC66" stroke-width="2" stroke-linecap="round" stroke-linejoin="round"/>
<path d="M28 31.5C31.866 31.5 35 28.366 35 24.5C35 20.634 31.866 17.5 28 17.5C24.134 17.5 21 20.634 21 24.5C21 28.366 24.134 31.5 28 31.5Z" stroke="#00CC66" stroke-width="2" stroke-linecap="round" stroke-linejoin="round"/>
<path d="M17.5 36.75C18.7226 35.1199 20.3078 33.7969 22.1303 32.8856C23.9528 31.9744 25.9624 31.5 28 31.5C30.0376 31.5 32.0472 31.9744 33.8697 32.8856C35.6922 33.7969 37.2774 35.1199 38.5 36.75" stroke="#00CC66" stroke-width="2" stroke-linecap="round" stroke-linejoin="round"/>
</svg>
