<svg width="56" height="56" viewBox="0 0 56 56" fill="none" xmlns="http://www.w3.org/2000/svg">
<path d="M28 45.5C37.665 45.5 45.5 37.665 45.5 28C45.5 18.335 37.665 10.5 28 10.5C18.335 10.5 10.5 18.335 10.5 28C10.5 37.665 18.335 45.5 28 45.5Z" stroke="#00CC66" stroke-width="2" stroke-linecap="round" stroke-linejoin="round"/>
<path d="M28 28H50.75" stroke="#00CC66" stroke-width="2" stroke-linecap="round" stroke-linejoin="round"/>
<path d="M28 27.9999L16.625 8.29712" stroke="#00CC66" stroke-width="2" stroke-linecap="round" stroke-linejoin="round"/>
<path d="M28 28L16.625 47.7028" stroke="#00CC66" stroke-width="2" stroke-linecap="round" stroke-linejoin="round"/>
<path d="M28 10.5V5.25" stroke="#00CC66" stroke-width="2" stroke-linecap="round" stroke-linejoin="round"/>
<path d="M12.845 19.25L8.29718 16.625" stroke="#00CC66" stroke-width="2" stroke-linecap="round" stroke-linejoin="round"/>
<path d="M10.5 28H5.25" stroke="#00CC66" stroke-width="2" stroke-linecap="round" stroke-linejoin="round"/>
<path d="M12.845 36.75L8.29718 39.375" stroke="#00CC66" stroke-width="2" stroke-linecap="round" stroke-linejoin="round"/>
<path d="M28 45.5V50.75" stroke="#00CC66" stroke-width="2" stroke-linecap="round" stroke-linejoin="round"/>
<path d="M36.75 43.155L39.375 47.7028" stroke="#00CC66" stroke-width="2" stroke-linecap="round" stroke-linejoin="round"/>
<path d="M43.155 36.75L47.7028 39.375" stroke="#00CC66" stroke-width="2" stroke-linecap="round" stroke-linejoin="round"/>
<path d="M43.155 19.25L47.7028 16.625" stroke="#00CC66" stroke-width="2" stroke-linecap="round" stroke-linejoin="round"/>
<path d="M36.75 12.8449L39.375 8.29712" stroke="#00CC66" stroke-width="2" stroke-linecap="round" stroke-linejoin="round"/>
</svg>
