<svg width="56" height="56" viewBox="0 0 56 56" fill="none" xmlns="http://www.w3.org/2000/svg">
<g clip-path="url(#clip0_407_23327)">
<path d="M18.375 35C24.6572 35 29.75 29.9072 29.75 23.625C29.75 17.3428 24.6572 12.25 18.375 12.25C12.0928 12.25 7 17.3428 7 23.625C7 29.9072 12.0928 35 18.375 35Z" stroke="#00CC66" stroke-width="2" stroke-linecap="round" stroke-linejoin="round"/>
<path d="M2.23779 43.7499C3.9858 41.0623 6.37741 38.8538 9.1955 37.325C12.0136 35.7961 15.1689 34.9954 18.375 34.9954C21.5811 34.9954 24.7364 35.7961 27.5545 37.325C30.3726 38.8538 32.7642 41.0623 34.5122 43.7499" stroke="#00CC66" stroke-width="2" stroke-linecap="round" stroke-linejoin="round"/>
<path d="M37.625 35C40.8309 34.9981 43.9865 35.7976 46.8048 37.3257C49.623 38.8539 52.0147 41.0622 53.7622 43.75" stroke="#00CC66" stroke-width="2" stroke-linecap="round" stroke-linejoin="round"/>
<path d="M33.4009 13.0594C34.9569 12.4388 36.6308 12.1695 38.3029 12.2708C39.975 12.3721 41.6041 12.8415 43.0738 13.6455C44.5435 14.4494 45.8175 15.568 46.8047 16.9214C47.792 18.2748 48.4681 19.8296 48.7848 21.4745C49.1015 23.1195 49.0509 24.8142 48.6368 26.4374C48.2226 28.0606 47.455 29.5722 46.3889 30.8644C45.3227 32.1565 43.9843 33.1972 42.4693 33.9121C40.9543 34.6271 39.3001 34.9985 37.6249 35" stroke="#00CC66" stroke-width="2" stroke-linecap="round" stroke-linejoin="round"/>
</g>
<defs>
<clipPath id="clip0_407_23327">
<rect width="56" height="56" fill="white"/>
</clipPath>
</defs>
</svg>
