<svg width="96" height="96" viewBox="0 0 96 96" fill="none" xmlns="http://www.w3.org/2000/svg">
<path fill-rule="evenodd" clip-rule="evenodd" d="M21.5683 26.5697C21.6553 26.0949 22.0691 25.75 22.5519 25.75H40.278C40.6869 25.75 41.0546 25.999 41.2064 26.3786L41.7527 27.7442C42.0154 28.401 41.5316 29.1156 40.8242 29.1156H28.2508C26.5939 29.1156 25.2508 30.4587 25.2508 32.1156V45.2122H18.1505L21.5683 26.5697ZM16.9496 47.2124L16.972 47.2122H26.2424L26.2508 47.2122L26.2591 47.2122H43.656C46.2737 47.2122 48.5892 48.9092 49.3775 51.4054L49.4565 51.6554C49.4014 51.6524 49.346 51.6509 49.2901 51.6509H6.12972L8.81106 48.9696C9.93628 47.8443 11.4624 47.2122 13.0537 47.2122H16.9312L16.9496 47.2124ZM16.1171 45.2122L19.6011 26.209C19.8622 24.7846 21.1037 23.75 22.5519 23.75H40.278C41.5047 23.75 42.6078 24.4969 43.0634 25.6358L43.6096 27.0014C44.3979 28.972 42.9466 31.1156 40.8242 31.1156H28.2508C27.6985 31.1156 27.2508 31.5633 27.2508 32.1156V45.2122H40.3672L42.136 40.4955C42.3299 39.9784 42.9063 39.7164 43.4234 39.9103C43.9405 40.1042 44.2025 40.6807 44.0086 41.1978L42.5032 45.2122H43.656C47.1462 45.2122 50.2336 47.4749 51.2847 50.8031L51.886 52.7074C51.9378 52.8715 51.9451 53.0389 51.9148 53.1967C52.1539 53.6275 52.2901 54.1233 52.2901 54.6509V61.6666H56.1664C61.2508 45.9311 83.7792 45.8193 88.6411 61.7092C91.3388 62.0468 93.426 64.3486 93.426 67.1379C93.426 69.9675 91.2778 72.2955 88.5234 72.58C83.4659 87.9766 61.5518 87.8661 56.2859 72.6091H52.2901V72.6092H51.2901H34.3339C33.6558 79.0425 28.2138 84.0558 21.6008 84.0558C14.9878 84.0558 9.54568 79.0425 8.86766 72.6092H5.00012C3.34326 72.6092 2.00012 71.2661 2.00012 69.6092V54.6509C2.00012 54.1232 2.13636 53.6274 2.37557 53.1966C2.3157 52.8823 2.40742 52.5448 2.65073 52.3015L7.39685 47.5553C8.89714 46.055 10.932 45.2122 13.0537 45.2122H16.1171ZM57.0358 70.6091C57.0211 70.6088 57.0064 70.6088 56.9916 70.6091H52.2901V63.6666H87.9547C89.8718 63.6666 91.426 65.2207 91.426 67.1379C91.426 69.055 89.8718 70.6091 87.9547 70.6091H87.7972C87.7826 70.6088 87.768 70.6088 87.7535 70.6091H79.2035H79.1805H65.6069H65.588H57.0358ZM58.4174 72.6091C63.3897 85.2523 81.6232 85.2473 86.3922 72.6091H79.7099C76.0799 77.4655 68.7408 77.4949 65.0829 72.6091H58.4174ZM64.827 61.6666H58.2815C63.0919 48.5463 81.9231 48.5516 86.5224 61.6666H79.9645C76.372 56.3653 68.5604 56.3022 64.8893 61.577L64.827 61.6666ZM67.8165 72.6091H76.9764C74.3526 74.8085 70.4509 74.8186 67.8165 72.6091ZM67.4213 61.6666H77.3718C74.6308 58.992 70.1758 58.9785 67.4213 61.6666ZM4.00012 54.6509C4.00012 54.0986 4.44784 53.6509 5.00012 53.6509H49.2901C49.8424 53.6509 50.2901 54.0986 50.2901 54.6509V62.6535L50.2901 62.6666L50.2901 62.6796V70.6092H34.3892C34.0545 63.8361 28.4569 58.4473 21.6008 58.4473C14.7446 58.4473 9.14701 63.8361 8.81237 70.6092H5.00012C4.44784 70.6092 4.00012 70.1615 4.00012 69.6092V54.6509ZM10.8495 72.3279C11.0374 72.1461 11.1542 71.8913 11.1542 71.6092C11.1542 71.3049 11.0183 71.0324 10.8039 70.849C11.0156 65.0685 15.7685 60.4473 21.6008 60.4473C27.5678 60.4473 32.405 65.2845 32.405 71.2515C32.405 77.2186 27.5678 82.0558 21.6008 82.0558C15.997 82.0558 11.3897 77.7896 10.8495 72.3279Z" fill="#00CC66"/>
</svg>
