<svg width="96" height="96" viewBox="0 0 96 96" fill="none" xmlns="http://www.w3.org/2000/svg">
<path fill-rule="evenodd" clip-rule="evenodd" d="M44.796 17.75L44.7879 17.75L44.7797 17.75H36.0331C34.3763 17.75 33.0331 19.0932 33.0331 20.75V46.184C33.0331 46.5346 33.0933 46.8712 33.2038 47.184H29.5049H20.7501C19.0933 47.184 17.7501 48.5271 17.7501 50.184V75.618C17.7501 77.2748 19.0933 78.618 20.7501 78.618H46.1841C46.9524 78.618 47.6533 78.3291 48.1841 77.8541C48.7148 78.3291 49.4157 78.618 50.1841 78.618H75.618C77.2749 78.618 78.618 77.2748 78.618 75.618V50.184C78.618 48.5271 77.2749 47.184 75.618 47.184H66.8633H64.2964C64.4069 46.8712 64.4671 46.5346 64.4671 46.184V20.75C64.4671 19.0932 63.124 17.75 61.4671 17.75H52.7206L52.7124 17.75L52.7042 17.75H44.796ZM65.8633 49.184H59.9388V59.1454L61.6654 57.7888C62.3906 57.219 63.4115 57.219 64.1367 57.7888L65.8633 59.1454L65.8633 49.184ZM57.9388 49.184V59.1454C57.9388 60.8143 59.8622 61.7491 61.1744 60.718L62.9011 59.3614L64.6277 60.718C65.9399 61.7491 67.8633 60.8143 67.8633 59.1454V49.184H75.618C76.1703 49.184 76.618 49.6317 76.618 50.184V75.618C76.618 76.1702 76.1703 76.618 75.618 76.618H50.1841C49.6324 76.618 49.185 76.1712 49.1841 75.6197V75.618V50.184C49.1841 49.6317 49.6318 49.184 50.1841 49.184H57.9388ZM47.1841 50.184V75.618C47.1841 76.1702 46.7364 76.618 46.1841 76.618H20.7501C20.1978 76.618 19.7501 76.1702 19.7501 75.618V50.184C19.7501 49.6317 20.1978 49.184 20.7501 49.184H28.5049V59.1454C28.5049 60.8143 30.4283 61.7491 31.7405 60.718L33.4672 59.3614L35.1938 60.718C36.506 61.7491 38.4294 60.8143 38.4294 59.1454V49.184H46.1841C46.7358 49.184 47.1832 49.6308 47.1841 50.1823L47.1841 50.184ZM36.4294 49.184V59.1454L34.7028 57.7888C33.9776 57.219 32.9567 57.219 32.2315 57.7888L30.5049 59.1454V49.184H36.4294ZM43.7879 19.75H36.0331C35.4809 19.75 35.0331 20.1977 35.0331 20.75V46.184C35.0331 46.7363 35.4809 47.184 36.0331 47.184H61.4671C62.0194 47.184 62.4671 46.7363 62.4671 46.184V20.75C62.4671 20.1977 62.0194 19.75 61.4671 19.75H53.7124V29.7114C53.7124 31.3803 51.789 32.3151 50.4767 31.284L48.7501 29.9274L47.0235 31.284C45.7112 32.3151 43.7879 31.3803 43.7879 29.7114V19.75ZM51.7124 19.75L51.7124 29.7114L49.9858 28.3548C49.2605 27.785 48.2397 27.785 47.5145 28.3548L45.7879 29.7114V19.75H51.7124ZM51.7124 39.9764C51.7124 39.4241 52.1601 38.9764 52.7124 38.9764H59.2218C59.7741 38.9764 60.2218 39.4241 60.2218 39.9764C60.2218 40.5287 59.7741 40.9764 59.2218 40.9764H52.7124C52.1601 40.9764 51.7124 40.5287 51.7124 39.9764ZM52.7124 42.0896C52.1601 42.0896 51.7124 42.5373 51.7124 43.0896C51.7124 43.6419 52.1601 44.0896 52.7124 44.0896H59.2218C59.7741 44.0896 60.2218 43.6419 60.2218 43.0896C60.2218 42.5373 59.7741 42.0896 59.2218 42.0896H52.7124ZM36.4294 69.4104C36.4294 68.8581 36.8771 68.4104 37.4294 68.4104H43.9389C44.4911 68.4104 44.9389 68.8581 44.9389 69.4104C44.9389 69.9627 44.4911 70.4104 43.9389 70.4104H37.4294C36.8771 70.4104 36.4294 69.9627 36.4294 69.4104ZM37.4294 71.5236C36.8771 71.5236 36.4294 71.9713 36.4294 72.5236C36.4294 73.0759 36.8771 73.5236 37.4294 73.5236H43.9389C44.4911 73.5236 44.9389 73.0759 44.9389 72.5236C44.9389 71.9713 44.4911 71.5236 43.9389 71.5236H37.4294ZM65.8633 69.4104C65.8633 68.8581 66.311 68.4104 66.8633 68.4104H73.3728C73.925 68.4104 74.3728 68.8581 74.3728 69.4104C74.3728 69.9627 73.925 70.4104 73.3728 70.4104H66.8633C66.311 70.4104 65.8633 69.9627 65.8633 69.4104ZM66.8633 71.5236C66.311 71.5236 65.8633 71.9713 65.8633 72.5236C65.8633 73.0759 66.311 73.5236 66.8633 73.5236H73.3728C73.925 73.5236 74.3728 73.0759 74.3728 72.5236C74.3728 71.9713 73.925 71.5236 73.3728 71.5236H66.8633Z" fill="#00CC66"/>
</svg>
