<svg width="96" height="96" viewBox="0 0 96 96" fill="none" xmlns="http://www.w3.org/2000/svg">
<g clip-path="url(#clip0_239_13029)">
<path fill-rule="evenodd" clip-rule="evenodd" d="M0.00012207 31H88.2501V48.5H0.00012207V50.5H88.2501H89.2501H90.2501H93.5001V55.25H0.00012207V57.25H16.6251V66.5C16.6251 69.2614 18.8637 71.5 21.6251 71.5H29.0025C29.1357 78.5643 34.9039 84.25 42.0001 84.25C49.0963 84.25 54.8645 78.5643 54.9978 71.5H57.5025C57.6357 78.5643 63.4039 84.25 70.5001 84.25C77.5963 84.25 83.3645 78.5643 83.4978 71.5H88.2501V72.25C88.2501 73.9069 89.5933 75.25 91.2501 75.25H92.5001C94.157 75.25 95.5001 73.9069 95.5001 72.25V57.25V57V56.25V56V50.5V49.5V48.5V35C95.5001 31.9403 93.2099 29.4155 90.2501 29.0464V29H89.5001H89.2501H88.2501H0.00012207V31ZM88.2501 57.25V69.5H83.3833C82.5286 63.1479 77.0864 58.25 70.5001 58.25C63.9139 58.25 58.4716 63.1479 57.6169 69.5H54.8833C54.0286 63.1479 48.5864 58.25 42.0001 58.25C35.4139 58.25 29.9716 63.1479 29.1169 69.5H21.6251C19.9683 69.5 18.6251 68.1569 18.6251 66.5V57.25H88.2501ZM90.2501 70.5V58H93.5001V72.25C93.5001 72.8023 93.0524 73.25 92.5001 73.25H91.2501C90.6978 73.25 90.2501 72.8023 90.2501 72.25V71.5V70.5ZM90.2501 31.0702V48.5H93.5001V35C93.5001 33.0472 92.1008 31.4213 90.2501 31.0702ZM42.0001 60.25C35.925 60.25 31.0001 65.1749 31.0001 71.25C31.0001 77.3251 35.925 82.25 42.0001 82.25C48.0753 82.25 53.0001 77.3251 53.0001 71.25C53.0001 65.1749 48.0753 60.25 42.0001 60.25ZM38.5001 71.25C38.5001 69.317 40.0671 67.75 42.0001 67.75C43.9331 67.75 45.5001 69.317 45.5001 71.25C45.5001 73.183 43.9331 74.75 42.0001 74.75C40.0671 74.75 38.5001 73.183 38.5001 71.25ZM42.0001 65.75C38.9626 65.75 36.5001 68.2124 36.5001 71.25C36.5001 74.2876 38.9626 76.75 42.0001 76.75C45.0377 76.75 47.5001 74.2876 47.5001 71.25C47.5001 68.2124 45.0377 65.75 42.0001 65.75ZM67.0001 71.25C67.0001 69.317 68.5671 67.75 70.5001 67.75C72.4331 67.75 74.0001 69.317 74.0001 71.25C74.0001 73.183 72.4331 74.75 70.5001 74.75C68.5671 74.75 67.0001 73.183 67.0001 71.25ZM70.5001 65.75C67.4626 65.75 65.0001 68.2124 65.0001 71.25C65.0001 74.2876 67.4626 76.75 70.5001 76.75C73.5377 76.75 76.0001 74.2876 76.0001 71.25C76.0001 68.2124 73.5377 65.75 70.5001 65.75ZM59.5001 71.25C59.5001 65.1749 64.425 60.25 70.5001 60.25C76.5753 60.25 81.5001 65.1749 81.5001 71.25C81.5001 77.3251 76.5753 82.25 70.5001 82.25C64.425 82.25 59.5001 77.3251 59.5001 71.25ZM43.6797 41.1377H45.3613L47.2686 45H49.0254V44.9111L46.8994 40.748C47.1729 40.625 47.4212 40.4792 47.6445 40.3105C47.8678 40.1419 48.0592 39.946 48.2188 39.7227C48.3783 39.4993 48.5013 39.2487 48.5879 38.9707C48.679 38.6927 48.7246 38.3828 48.7246 38.041C48.7246 37.5443 48.638 37.1113 48.4648 36.7422C48.2917 36.3685 48.0501 36.0563 47.7402 35.8057C47.4258 35.5596 47.0521 35.3727 46.6191 35.2451C46.1862 35.1175 45.7122 35.0514 45.1973 35.0469H42.0391V45H43.6797V41.1377ZM45.2178 39.7979H43.6797V36.3867H45.1973C45.4798 36.3913 45.735 36.43 45.9629 36.5029C46.1908 36.5713 46.3844 36.6738 46.5439 36.8105C46.7171 36.9564 46.847 37.1387 46.9336 37.3574C47.0247 37.5716 47.0703 37.8223 47.0703 38.1094C47.0703 38.3646 47.0293 38.5924 46.9473 38.793C46.8652 38.9935 46.7513 39.1621 46.6055 39.2988C46.4414 39.4583 46.2409 39.5814 46.0039 39.668C45.7715 39.75 45.5094 39.7933 45.2178 39.7979ZM52.1631 40.5361H56.2783V39.21H52.1631V36.4072H56.9346V35.0469H50.5156V45H56.9688V43.6465H52.1631V40.5361ZM63.6133 45H65.2607V35.0469H63.6064L63.5928 41.8691L60.3799 35.0469H58.7119V45H60.373L60.3799 38.1504L63.6133 45ZM71.2354 36.4072H74.3047V35.0469H66.5527V36.4072H69.6016V45H71.2354V36.4072Z" fill="#00CC66"/>
</g>
<defs>
<clipPath id="clip0_239_13029">
<rect width="96" height="96" fill="white"/>
</clipPath>
</defs>
</svg>
