<svg width="96" height="96" viewBox="0 0 96 96" fill="none" xmlns="http://www.w3.org/2000/svg">
<g clip-path="url(#clip0_239_13027)">
<path fill-rule="evenodd" clip-rule="evenodd" d="M88.2501 31H0.00012207V29H88.2501H89.2501H89.5001H90.2501V29.0464C93.2099 29.4155 95.5001 31.9403 95.5001 35V48.5V49.5V50.5V56V56.25V57V57.25V72.25C95.5001 73.9069 94.157 75.25 92.5001 75.25H91.2501C89.5933 75.25 88.2501 73.9069 88.2501 72.25V71.5H83.4978C83.3645 78.5643 77.5963 84.25 70.5001 84.25C63.4039 84.25 57.6357 78.5643 57.5025 71.5H54.9978C54.8645 78.5643 49.0963 84.25 42.0001 84.25C34.9039 84.25 29.1357 78.5643 29.0025 71.5H21.6251C18.8637 71.5 16.6251 69.2614 16.6251 66.5V57.25H0.00012207V55.25H93.5001V50.5H90.2501H89.2501H88.2501H0.00012207V48.5H88.2501V31ZM88.2501 69.5V57.25H18.6251V66.5C18.6251 68.1569 19.9683 69.5 21.6251 69.5H29.1169C29.9716 63.1479 35.4139 58.25 42.0001 58.25C48.5864 58.25 54.0286 63.1479 54.8833 69.5H57.6169C58.4716 63.1479 63.9139 58.25 70.5001 58.25C77.0864 58.25 82.5286 63.1479 83.3833 69.5H88.2501ZM90.2501 58V70.5V71.5V72.25C90.2501 72.8023 90.6978 73.25 91.2501 73.25H92.5001C93.0524 73.25 93.5001 72.8023 93.5001 72.25V58H90.2501ZM90.2501 48.5V31.0702C92.1008 31.4213 93.5001 33.0472 93.5001 35V48.5H90.2501ZM31.0001 71.25C31.0001 65.1749 35.925 60.25 42.0001 60.25C48.0753 60.25 53.0001 65.1749 53.0001 71.25C53.0001 77.3251 48.0753 82.25 42.0001 82.25C35.925 82.25 31.0001 77.3251 31.0001 71.25ZM42.0001 67.75C40.0671 67.75 38.5001 69.317 38.5001 71.25C38.5001 73.183 40.0671 74.75 42.0001 74.75C43.9331 74.75 45.5001 73.183 45.5001 71.25C45.5001 69.317 43.9331 67.75 42.0001 67.75ZM36.5001 71.25C36.5001 68.2124 38.9626 65.75 42.0001 65.75C45.0377 65.75 47.5001 68.2124 47.5001 71.25C47.5001 74.2876 45.0377 76.75 42.0001 76.75C38.9626 76.75 36.5001 74.2876 36.5001 71.25ZM70.5001 67.75C68.5671 67.75 67.0001 69.317 67.0001 71.25C67.0001 73.183 68.5671 74.75 70.5001 74.75C72.4331 74.75 74.0001 73.183 74.0001 71.25C74.0001 69.317 72.4331 67.75 70.5001 67.75ZM65.0001 71.25C65.0001 68.2124 67.4626 65.75 70.5001 65.75C73.5377 65.75 76.0001 68.2124 76.0001 71.25C76.0001 74.2876 73.5377 76.75 70.5001 76.75C67.4626 76.75 65.0001 74.2876 65.0001 71.25ZM70.5001 60.25C64.425 60.25 59.5001 65.1749 59.5001 71.25C59.5001 77.3251 64.425 82.25 70.5001 82.25C76.5753 82.25 81.5001 77.3251 81.5001 71.25C81.5001 65.1749 76.5753 60.25 70.5001 60.25Z" fill="#00CC66"/>
</g>
<defs>
<clipPath id="clip0_239_13027">
<rect width="96" height="96" fill="white"/>
</clipPath>
</defs>
</svg>
