<svg width="96" height="96" viewBox="0 0 96 96" fill="none" xmlns="http://www.w3.org/2000/svg">
<path fill-rule="evenodd" clip-rule="evenodd" d="M21.6933 29.1075C21.9352 27.6213 22.977 26.438 24.3354 25.9686L24.3354 41.9699H21.0175L20.9912 41.9699H19.6003L21.6933 29.1075ZM26.3354 41.9699H35.8335L37.5927 37.2785C37.7867 36.7614 38.3631 36.4994 38.8802 36.6933C39.3973 36.8872 39.6593 37.4636 39.4654 37.9807L37.9695 41.9699H43.4769L39.5682 28.6256C39.069 26.9211 37.5056 25.75 35.7295 25.75H26.3354L26.3354 41.9699ZM41.4876 28.0634L45.5609 41.9699H70.8275V35.9891C70.8275 32.3525 73.7756 29.4044 77.4122 29.4044C78.35 29.4044 79.1103 30.1647 79.1103 31.1025V33.9646C79.1103 34.9796 78.2875 35.8023 77.2726 35.8023C76.8996 35.8023 76.5972 36.1047 76.5972 36.4777V41.9699H77.191C80.6593 41.9699 83.8799 43.7669 85.7012 46.7184L86.5652 48.1186C87.4418 49.5392 87.9061 51.1756 87.9061 52.8449V64.1008C87.9061 66.8622 85.6675 69.1008 82.9061 69.1008H82.4798C82.7409 70.0848 82.88 71.1184 82.88 72.1846C82.88 78.8091 77.5097 84.1794 70.8852 84.1794C64.2607 84.1794 58.8904 78.8091 58.8904 72.1846C58.8904 71.1184 59.0295 70.0848 59.2906 69.1008H46.7134C46.703 69.1009 46.6927 69.1009 46.6823 69.1008H43.267C42.7517 77.1677 36.0456 83.5511 27.8485 83.5511C19.5504 83.5511 12.7802 77.0092 12.4139 68.8014C12.3987 68.7859 12.3839 68.7699 12.3696 68.7532L8.3469 64.0799C8.10861 63.803 7.99887 63.4416 8.03836 63.0839C7.99159 62.9202 7.98604 62.7424 8.03069 62.5654L11.3214 49.5234C12.1383 46.2856 14.4828 43.7542 17.4682 42.62L19.7193 28.7863C20.1918 25.8828 22.6997 23.75 25.6414 23.75H35.7295C38.3936 23.75 40.7387 25.5067 41.4876 28.0634ZM25.3278 43.9699H20.994C17.3394 43.9805 14.1552 46.4672 13.2606 50.0127L11.9954 55.0272C15.7197 50.455 21.3787 47.6244 27.5682 47.6244H29.014C35.4865 47.6244 41.136 50.8831 44.5018 55.7919H85.9061V52.8449C85.9061 51.5466 85.545 50.2738 84.8632 49.1689L83.9991 47.7687C82.5421 45.4075 79.9656 43.9699 77.191 43.9699H46.1467L46.1467 43.9699H44.8118H25.3431L25.3354 43.9699L25.3278 43.9699ZM85.9061 57.7919H45.6984C47.1377 60.5763 47.8972 63.7565 47.7665 67.1008H60.0179C61.9313 63.0177 66.078 60.1898 70.8852 60.1898C75.6924 60.1898 79.8391 63.0177 81.7525 67.1008H82.9061C84.5629 67.1008 85.9061 65.7576 85.9061 64.1008V57.7919ZM29.014 49.6244C38.6074 49.6244 46.177 57.6374 45.7647 67.1008H43.267C42.7516 59.0339 36.0455 52.6506 27.8485 52.6506C20.0623 52.6506 13.6213 58.4102 12.5537 65.9013L10.0992 63.0499C12.2049 55.1403 19.3696 49.6244 27.5682 49.6244H29.014ZM77.1103 31.4142C74.719 31.5697 72.8275 33.5585 72.8275 35.9891V41.9699H74.5972V36.4777C74.5972 35.0546 75.7083 33.8911 77.1103 33.8072V31.4142ZM14.3983 68.1008C14.3983 60.6725 20.4202 54.6506 27.8485 54.6506C35.2769 54.6506 41.2988 60.6725 41.2988 68.1008C41.2988 75.5292 35.2769 81.5511 27.8485 81.5511C20.4202 81.5511 14.3983 75.5292 14.3983 68.1008ZM60.8904 72.1846C60.8904 66.6646 65.3653 62.1898 70.8852 62.1898C76.4052 62.1898 80.88 66.6646 80.88 72.1846C80.88 77.7045 76.4052 82.1794 70.8852 82.1794C65.3653 82.1794 60.8904 77.7045 60.8904 72.1846Z" fill="#00CC66"/>
</svg>
