<svg width="96" height="96" viewBox="0 0 96 96" fill="none" xmlns="http://www.w3.org/2000/svg">
<g clip-path="url(#clip0_239_13031)">
<path fill-rule="evenodd" clip-rule="evenodd" d="M89.2501 4.25C86.6242 4.25 84.3765 5.86944 83.4513 8.16408L83.4346 8.17527L44.0596 35.1753C43.6041 35.4876 43.4881 36.11 43.8004 36.5655C44.1127 37.021 44.7352 37.1371 45.1907 36.8247L83.0121 10.89C83.1464 13.0713 84.3996 14.95 86.2048 15.9592C75.505 27.6833 58.1651 47.0054 56.9693 48.5003C56.6242 48.9316 56.6942 49.5609 57.1254 49.9059C57.5567 50.2509 58.186 50.181 58.531 49.7497C59.6963 48.2931 77.5929 28.3506 88.2619 16.6723C88.3819 16.6914 88.503 16.707 88.6251 16.7191V52.625H86.6251C86.0728 52.625 85.6251 53.0727 85.6251 53.625C85.6251 54.1773 86.0728 54.625 86.6251 54.625H88.6251V56.2429C88.6251 56.735 88.8065 57.2098 89.1346 57.5765L92.2703 61.0811C93.569 62.5325 93.4736 64.7547 92.0554 66.0895C90.6827 67.3814 88.5447 67.3917 87.1596 66.1132L86.8062 65.787C86.133 65.1656 85.7501 64.2911 85.7501 63.375C85.7501 62.8227 85.3024 62.375 84.7501 62.375C84.1978 62.375 83.7501 62.8227 83.7501 63.375C83.7501 64.8493 84.3663 66.2566 85.4496 67.2566L85.803 67.5828C87.9597 69.5736 91.2888 69.5575 93.4261 67.5459C95.6344 65.4675 95.7829 62.0075 93.7608 59.7475L90.6251 56.2429V54.625H92.6251C93.1774 54.625 93.6251 54.1773 93.6251 53.625C93.6251 53.0727 93.1774 52.625 92.6251 52.625H90.6251V16.5983C93.4154 15.9718 95.5001 13.4794 95.5001 10.5C95.5001 7.04822 92.7019 4.25 89.2501 4.25ZM85.0001 10.5C85.0001 8.15279 86.9029 6.25 89.2501 6.25C91.5973 6.25 93.5001 8.15279 93.5001 10.5C93.5001 12.8472 91.5973 14.75 89.2501 14.75C86.9029 14.75 85.0001 12.8472 85.0001 10.5ZM19.5001 34.25C15.6341 34.25 12.5001 37.384 12.5001 41.25V62.75H11.7501C10.0933 62.75 8.75012 64.0931 8.75012 65.75V67.7157C3.98148 69.118 0.500122 73.5274 0.500122 78.75C0.500122 85.1013 5.64885 90.25 12.0001 90.25H59.2501C65.6014 90.25 70.7501 85.1013 70.7501 78.75C70.7501 72.9937 66.5208 68.2252 61.0001 67.3823V65.75C61.0001 64.3521 60.044 63.1775 58.7501 62.8445V61.25C58.7501 46.3383 46.6618 34.25 31.7501 34.25H23.2501H19.5001ZM19.5001 36.25H22.2501L22.2501 62.75H14.5001V41.25C14.5001 38.4886 16.7387 36.25 19.5001 36.25ZM24.2501 36.25L24.2501 62.75H56.7501V61.25C56.7501 47.4429 45.5572 36.25 31.7501 36.25H24.2501ZM13.5001 64.75H23.2501H57.7501H58.0001C58.5524 64.75 59.0001 65.1977 59.0001 65.75V67.25H12.0001H10.7501V65.75C10.7501 65.1977 11.1978 64.75 11.7501 64.75H12.5001H13.5001ZM12.0001 69.25H59.2501C64.4968 69.25 68.7501 73.5033 68.7501 78.75C68.7501 83.9967 64.4968 88.25 59.2501 88.25H12.0001C6.75342 88.25 2.50012 83.9967 2.50012 78.75C2.50012 73.5033 6.75342 69.25 12.0001 69.25ZM9.37512 78.125C8.82284 78.125 8.37512 78.5727 8.37512 79.125C8.37512 79.6773 8.82284 80.125 9.37512 80.125H59.6251C60.1774 80.125 60.6251 79.6773 60.6251 79.125C60.6251 78.5727 60.1774 78.125 59.6251 78.125H9.37512Z" fill="#00CC66"/>
</g>
<defs>
<clipPath id="clip0_239_13031">
<rect width="96" height="96" fill="white"/>
</clipPath>
</defs>
</svg>
